<svg width="510" height="580" viewBox="0 0 510 580" fill="none" xmlns="http://www.w3.org/2000/svg">
<path d="M253.389 283.316C254.338 283.762 255.431 283.799 256.409 283.422C268.21 278.872 274.168 274.209 280.046 266.62C282.079 263.997 279.959 260.318 276.647 260.521C261.307 261.463 250.05 261.812 235.044 260.815C231.431 260.575 229.279 264.835 231.788 267.446C238.834 274.777 244.62 279.196 253.389 283.316Z" fill="#E83B40" style="fill:#E83B40;fill:color(display-p3 0.9087 0.2315 0.2492);fill-opacity:1;"/>
<path d="M248 261C253.382 261.317 256.218 261.193 262 261V268C262 268.552 261.552 269 261 269H249C248.448 269 248 268.552 248 268V261Z" fill="#D9D9D9" style="fill:#D9D9D9;fill:color(display-p3 0.8510 0.8510 0.8510);fill-opacity:1;"/>
</svg>
