<svg width="510" height="580" viewBox="0 0 510 580" fill="none" xmlns="http://www.w3.org/2000/svg">
<path d="M255.475 260.03L266.967 267.346C266.057 274.178 263.746 276.952 255.078 279.235C247.005 277.577 244.333 274.857 242.275 267.346L255.475 260.03Z" fill="#F3B6C4" style="fill:#F3B6C4;fill:color(display-p3 0.9529 0.7137 0.7686);fill-opacity:1;"/>
<path d="M255.011 258.988C255.432 258.969 255.848 259.13 256.148 259.437C264.155 263.879 268.293 265.986 275.209 264.506C276.019 264.333 276.816 264.849 276.989 265.659C277.163 266.469 276.647 267.266 275.837 267.439C273.273 267.988 271.013 268.093 268.871 267.843C268.218 275.899 262.151 280.594 255.721 280.903C249.172 281.218 242.437 277.013 240.489 267.909C238.544 268.067 236.488 267.931 234.187 267.439C233.376 267.266 232.86 266.469 233.033 265.659C233.207 264.849 234.004 264.333 234.813 264.506C241.73 265.986 245.868 263.878 253.875 259.436C254.175 259.13 254.59 258.97 255.011 258.988ZM253.77 262.921C249.953 265.019 246.767 266.635 243.455 267.429C245.144 275.046 250.588 278.147 255.577 277.907C260.691 277.661 265.517 273.932 265.901 267.259C262.951 266.452 260.061 265.004 256.69 263.162C256.699 263.226 256.705 263.291 256.705 263.357V270.417C256.705 271.245 256.034 271.917 255.205 271.917C254.377 271.916 253.705 271.245 253.705 270.417V263.357C253.705 263.205 253.728 263.059 253.77 262.921Z" fill="black" style="fill:black;fill-opacity:1;"/>
</svg>
