<svg width="510" height="580" viewBox="0 0 510 580" fill="none" xmlns="http://www.w3.org/2000/svg">
<path d="M279.447 263.565C282.527 263.404 284.363 263.556 285.342 263.916C285.534 263.986 285.638 264.046 285.687 264.08C285.702 264.137 285.722 264.252 285.722 264.448C285.722 265.272 285.347 266.351 284.061 267.652C282.76 268.969 280.704 270.315 277.886 271.521C272.264 273.927 264.254 275.5 255.222 275.5C246.191 275.5 238.18 273.927 232.558 271.521C229.741 270.315 227.684 268.969 226.383 267.652C225.097 266.351 224.722 265.272 224.722 264.448C224.722 264.252 224.742 264.137 224.756 264.08C224.806 264.046 224.91 263.987 225.102 263.916C226.081 263.556 227.917 263.404 230.998 263.565C233.984 263.722 237.489 264.119 241.669 264.501C245.775 264.877 250.37 265.22 255.222 265.22C260.074 265.22 264.669 264.877 268.775 264.501C272.955 264.119 276.46 263.722 279.447 263.565Z" fill="#F5B3B1" stroke="#E83B40" style="fill:#F5B3B1;fill:color(display-p3 0.9615 0.7011 0.6934);fill-opacity:1;stroke:#E83B40;stroke:color(display-p3 0.9087 0.2315 0.2492);stroke-opacity:1;" stroke-width="7"/>
</svg>
