<svg width="510" height="580" viewBox="0 0 510 580" fill="none" xmlns="http://www.w3.org/2000/svg">
<path d="M232.769 266.39C236.139 266.649 240.42 266.464 245.282 265.679C244.425 265.659 243.586 265.639 242.767 265.619C238.861 265.527 235.448 265.457 232.61 265.531C231.077 265.571 229.808 265.655 228.781 265.775C229.822 266.044 231.149 266.265 232.769 266.39ZM265.554 265.683C270.347 266.465 274.637 266.649 278.047 266.39C279.699 266.264 281.063 266.039 282.138 265.765C281.126 265.65 279.883 265.57 278.39 265.531C275.552 265.457 272.139 265.527 268.233 265.619C267.362 265.64 266.468 265.661 265.554 265.683Z" fill="#F5B3B1" stroke="#E83B40" style="fill:#F5B3B1;fill:color(display-p3 0.9615 0.7011 0.6934);fill-opacity:1;stroke:#E83B40;stroke:color(display-p3 0.9087 0.2315 0.2492);stroke-opacity:1;" stroke-width="7"/>
</svg>
