<svg width="510" height="580" viewBox="0 0 510 580" fill="none" xmlns="http://www.w3.org/2000/svg">
<path d="M264.445 262.501C264.524 262.722 264.667 263.273 264.667 264.448C264.666 271.474 259.846 276.5 254.667 276.5C249.487 276.5 244.667 271.474 244.667 264.448C244.667 263.273 244.808 262.722 244.887 262.501C245.002 262.498 245.189 262.504 245.475 262.545C246.438 262.682 247.496 263.018 249.198 263.441C250.757 263.829 252.635 264.22 254.667 264.22C256.698 264.22 258.576 263.829 260.135 263.441C261.837 263.018 262.895 262.682 263.858 262.545C264.143 262.504 264.33 262.498 264.445 262.501Z" fill="#E83B40" stroke="#E83B40" style="fill:#E83B40;fill:color(display-p3 0.9087 0.2315 0.2492);fill-opacity:1;stroke:#E83B40;stroke:color(display-p3 0.9087 0.2315 0.2492);stroke-opacity:1;" stroke-width="5"/>
</svg>
