<svg width="510" height="580" viewBox="0 0 510 580" fill="none" xmlns="http://www.w3.org/2000/svg">
<path d="M226 299.5C227.591 299.5 229.628 297.708 230.243 296.46C230.857 295.213 231.014 294.5 230.243 290C229.471 285.5 229.249 282.507 229.471 277.773C228.21 269.512 227.005 266.895 226.197 266.593C226.141 266.318 226.001 265.5 226.001 265.5C226.001 265.5 226.001 265.502 226 265.505C225.999 265.502 225.999 265.5 225.999 265.5C225.999 265.5 225.859 266.318 225.802 266.593C224.84 271.295 223.609 274.745 222.529 277.773C221.14 281.665 220 284.86 220 289.123C220 291.875 220.632 294.514 221.757 296.46C222.875 298.393 224.42 299.5 226 299.5Z" fill="#56CCF2" style="fill:#56CCF2;fill:color(display-p3 0.3373 0.8000 0.9490);fill-opacity:1;"/>
<path d="M233.999 266.702C239.198 267.508 247.05 267.399 256.687 265.096L256.812 265.065L256.941 265.045C259.82 264.579 262.767 264.118 265.659 263.688C263.063 263.567 260.329 263.5 257.5 263.5C248.669 263.5 240.752 264.141 235.117 265.118C233.454 265.407 232.045 265.718 230.899 266.029C231.749 266.278 232.78 266.513 233.999 266.702Z" fill="#F5B3B1" stroke="#E83B40" style="fill:#F5B3B1;fill:color(display-p3 0.9615 0.7011 0.6934);fill-opacity:1;stroke:#E83B40;stroke:color(display-p3 0.9087 0.2315 0.2492);stroke-opacity:1;" stroke-width="7"/>
</svg>
