<svg width="510" height="580" viewBox="0 0 510 580" fill="none" xmlns="http://www.w3.org/2000/svg">
<path d="M234 305.537C235.591 305.537 237.628 303.745 238.243 302.498C238.857 301.25 239.014 300.537 238.243 296.037C237.471 291.537 237.249 288.544 237.471 283.81C236.21 275.549 235.005 272.932 234.197 272.63C234.141 272.355 234.001 271.537 234.001 271.537C234.001 271.537 234.001 271.539 234 271.542C233.999 271.539 233.999 271.537 233.999 271.537C233.999 271.537 233.859 272.355 233.802 272.63C232.84 277.332 231.609 280.782 230.529 283.81C229.14 287.702 228 290.897 228 295.16C228 297.912 228.632 300.551 229.757 302.498C230.875 304.43 232.42 305.537 234 305.537Z" fill="#56CCF2" style="fill:#56CCF2;fill:color(display-p3 0.3373 0.8000 0.9490);fill-opacity:1;"/>
<path d="M275.002 278C276.687 274 281.037 273.685 282.617 269.871C283.502 266 280.112 263.975 276.687 263.541C274.047 263.206 272.901 262.503 272.167 260.649C271.754 259.327 270.587 258.156 267.384 258.463C264.181 258.77 262.148 259.389 261.002 258.463C259.856 257.538 257.121 257.304 255.002 257C251.002 257.5 249.975 257.573 248.309 259.5C246.477 261.665 243.383 260.917 239.223 260.765C236.87 260.473 235.554 259.342 234.324 264.078C234.746 264.86 237.594 268.095 232.308 270.058C230.502 273.537 231.961 273.931 231.502 275.037C232.727 278.16 233.949 279.003 236.846 279.162C240.633 279.489 240.107 279.722 241.086 282.302C242.065 284.882 246.432 286.219 248.309 284.777C251.569 282.927 257.609 284.076 262.502 284.777C269.189 285.736 274.002 282.302 275.002 278Z" fill="#E83B40" style="fill:#E83B40;fill:color(display-p3 0.9098 0.2314 0.2510);fill-opacity:1;"/>
</svg>
