<svg width="510" height="580" viewBox="0 0 510 580" fill="none" xmlns="http://www.w3.org/2000/svg">
<path d="M164.082 276.653C161.175 275.911 161.102 271.88 163.976 271.022C196.929 261.188 219.173 257.382 256.727 255.156C257.997 255.081 259.196 255.821 259.661 257.006C264.548 269.458 264.384 277.174 259.929 289.362C259.471 290.615 258.204 291.392 256.876 291.275C218.057 287.848 195.354 284.633 164.082 276.653Z" fill="#FF9D47" style="fill:#FF9D47;fill:color(display-p3 1.0000 0.6154 0.2788);fill-opacity:1;"/>
<path d="M247.505 264.228C247.422 264.774 246.912 265.149 246.366 265.066C245.82 264.983 245.445 264.473 245.528 263.927L246.517 264.078L247.505 264.228ZM246.517 264.078L245.528 263.927C245.653 263.111 245.592 261.709 245.452 260.148C245.312 258.589 245.118 257.095 245.005 255.974L246 255.874L246.995 255.774C247.096 256.779 247.306 258.434 247.444 259.969C247.581 261.501 247.672 263.138 247.505 264.228L246.517 264.078Z" fill="#D97C2A" style="fill:#D97C2A;fill:color(display-p3 0.8510 0.4844 0.1636);fill-opacity:1;"/>
<path d="M206.489 270.651C206.405 271.197 205.895 271.572 205.349 271.489C204.803 271.406 204.428 270.896 204.511 270.35L205.5 270.5L206.489 270.651ZM205.5 270.5L204.511 270.35C204.632 269.556 204.531 268.068 204.305 266.287C204.084 264.549 203.765 262.672 203.514 261.165L204.5 261.001L205.486 260.836C205.735 262.329 206.062 264.249 206.289 266.035C206.51 267.776 206.658 269.538 206.489 270.651L205.5 270.5Z" fill="#D97C2A" style="fill:#D97C2A;fill:color(display-p3 0.8510 0.4844 0.1636);fill-opacity:1;"/>
<path d="M240.505 264.854C240.422 265.4 239.912 265.775 239.366 265.692C238.82 265.609 238.445 265.099 238.528 264.553L239.517 264.704L240.505 264.854ZM239.517 264.704L238.528 264.553C238.653 263.737 238.592 262.335 238.452 260.774C238.312 259.215 238.118 257.721 238.005 256.6L239 256.5L239.995 256.4C240.096 257.405 240.306 259.059 240.444 260.595C240.581 262.127 240.672 263.764 240.505 264.854L239.517 264.704Z" fill="#D97C2A" style="fill:#D97C2A;fill:color(display-p3 0.8510 0.4844 0.1636);fill-opacity:1;"/>
<path d="M200.99 271.143C200.911 271.689 200.405 272.069 199.858 271.99C199.311 271.912 198.932 271.405 199.01 270.858L200 271L200.99 271.143ZM200 271L199.01 270.858C199.131 270.018 199.023 268.436 198.795 266.716C198.571 265.032 198.252 263.357 198.013 262.401L198.983 262.159L199.953 261.916C200.214 262.961 200.546 264.712 200.777 266.452C201.004 268.155 201.155 269.994 200.99 271.143L200 271Z" fill="#D97C2A" style="fill:#D97C2A;fill:color(display-p3 0.8510 0.4844 0.1636);fill-opacity:1;"/>
<path d="M229.988 279.35C229.905 278.804 229.395 278.429 228.849 278.512C228.303 278.595 227.928 279.106 228.011 279.652L229 279.501L229.988 279.35ZM229 279.501L228.011 279.652C228.199 280.883 228.093 282.263 227.858 283.759C227.741 284.502 227.595 285.257 227.445 286.026C227.296 286.789 227.141 287.569 227.013 288.336L228 288.501L228.986 288.665C229.108 287.932 229.257 287.183 229.408 286.41C229.558 285.643 229.71 284.854 229.834 284.069C230.079 282.507 230.223 280.887 229.988 279.35L229 279.501Z" fill="#D97C2A" style="fill:#D97C2A;fill:color(display-p3 0.8510 0.4844 0.1636);fill-opacity:1;"/>
<path d="M187.205 273.062C187.185 272.507 186.723 272.064 186.173 272.072C185.623 272.08 185.194 272.536 185.214 273.09L186.209 273.076L187.205 273.062ZM186.209 273.076L185.214 273.09C185.259 274.328 184.993 275.561 184.62 276.926C184.257 278.252 183.779 279.746 183.518 281.313L184.5 281.5L185.482 281.688C185.721 280.255 186.148 278.936 186.541 277.499C186.923 276.102 187.261 274.622 187.205 273.062L186.209 273.076Z" fill="#D97C2A" style="fill:#D97C2A;fill:color(display-p3 0.8510 0.4844 0.1636);fill-opacity:1;"/>
<path d="M224.989 280.349C224.905 279.803 224.395 279.428 223.849 279.511C223.303 279.595 222.928 280.105 223.011 280.651L224 280.5L224.989 280.349ZM224 280.5L223.011 280.651C223.2 281.889 223.107 282.852 222.918 283.912C222.731 284.957 222.42 286.221 222.259 287.814L223.254 287.914L224.249 288.014C224.4 286.52 224.672 285.461 224.886 284.263C225.098 283.08 225.222 281.88 224.989 280.349L224 280.5Z" fill="#D97C2A" style="fill:#D97C2A;fill:color(display-p3 0.8510 0.4844 0.1636);fill-opacity:1;"/>
<path d="M182.463 273.494C182.443 272.94 181.981 272.497 181.432 272.504C180.882 272.512 180.453 272.968 180.473 273.523L181.468 273.508L182.463 273.494ZM181.468 273.508L180.473 273.523C180.518 274.764 180.309 275.642 180.008 276.61C179.706 277.585 179.282 278.726 179.018 280.313L180 280.501L180.982 280.688C181.218 279.275 181.579 278.319 181.911 277.248C182.245 276.17 182.52 275.051 182.463 273.494L181.468 273.508Z" fill="#D97C2A" style="fill:#D97C2A;fill:color(display-p3 0.8510 0.4844 0.1636);fill-opacity:1;"/>
</svg>
