<svg width="510" height="580" viewBox="0 0 510 580" fill="none" xmlns="http://www.w3.org/2000/svg">
<path d="M239.999 530.495L182 529.687C187.837 553.63 199.476 560.604 219.772 560.363C239.845 560.125 240.39 553.857 239.999 530.495Z" fill="#423F3F" style="fill:#423F3F;fill:color(display-p3 0.2596 0.2475 0.2459);fill-opacity:1;"/>
<path d="M239.999 530.495L182 529.687C187.837 553.63 199.476 560.604 219.772 560.363C239.845 560.125 240.39 553.857 239.999 530.495Z" fill="#423F3F" style="fill:#423F3F;fill:color(display-p3 0.2596 0.2475 0.2459);fill-opacity:1;"/>
<path d="M272.501 529.892L330.015 529.898C326.972 555.26 317.654 561.946 295.026 560.447C281.217 558.39 276.579 551.995 272.501 529.892Z" fill="#423F3F" style="fill:#423F3F;fill:color(display-p3 0.2596 0.2475 0.2459);fill-opacity:1;"/>
<path d="M272.501 529.892L330.015 529.898C326.972 555.26 317.654 561.946 295.026 560.447C281.217 558.39 276.579 551.995 272.501 529.892Z" fill="#423F3F" style="fill:#423F3F;fill:color(display-p3 0.2596 0.2475 0.2459);fill-opacity:1;"/>
</svg>
