<svg width="510" height="580" viewBox="0 0 510 580" fill="none" xmlns="http://www.w3.org/2000/svg">
<path d="M239.686 533.501L182.208 533.511C189.459 555.545 203.552 561.65 219.303 561.383C234.822 561.12 238.995 554.89 239.686 533.501Z" fill="#0A0909" style="fill:#0A0909;fill:color(display-p3 0.0392 0.0353 0.0353);fill-opacity:1;"/>
<path d="M207.565 448.987C191.826 449.254 177.5 439 177.5 466.5C177.5 477.5 177.605 483.871 177.946 498.29C178.295 513.062 180.093 524.591 183 533.51L239.695 533.51C239.984 524.406 240.247 493.806 239.886 478.499C238.675 427.234 229.462 448.616 207.565 448.987Z" fill="#352C2C" style="fill:#352C2C;fill:color(display-p3 0.2078 0.1725 0.1725);fill-opacity:1;"/>
<path d="M273.057 533.511L329.817 533.511C325.571 555.574 316.715 561.717 301.124 561.452C285.761 561.192 276.687 554.928 273.057 533.511Z" fill="#0A0909" style="fill:#0A0909;fill:color(display-p3 0.0385 0.0344 0.0344);fill-opacity:1;"/>
<path d="M304.492 448.988C326.389 449.359 334.058 447.024 332.847 498.29C332.498 513.055 331.535 524.585 329.818 533.51L273.058 533.51C271.514 524.399 270.955 512.546 271.317 497.247C272.527 445.981 282.594 448.616 304.492 448.988Z" fill="#352C2C" style="fill:#352C2C;fill:color(display-p3 0.2078 0.1725 0.1725);fill-opacity:1;"/>
<path d="M304.492 448.988C326.389 449.359 334.058 447.024 332.847 498.29C332.498 513.055 331.535 524.585 329.818 533.51L273.058 533.51C271.514 524.399 270.955 512.546 271.317 497.247C272.527 445.981 282.594 448.616 304.492 448.988Z" fill="#352C2C" style="fill:#352C2C;fill:color(display-p3 0.2078 0.1725 0.1725);fill-opacity:1;"/>
<path d="M195.499 443C173.602 443.371 177.316 443.395 178.015 472.994C178.217 481.519 227.892 495.265 229.52 500.407C251.897 499.411 264.3 499.309 286.27 500.001C287.905 494.728 333.208 489.834 333 481C332.776 471.526 333 455.5 332.5 444.5C297.15 434.995 210.388 442.747 195.499 443Z" fill="#352C2C" style="fill:#352C2C;fill:color(display-p3 0.2078 0.1725 0.1725);fill-opacity:1;"/>
<path d="M195.499 443C173.602 443.371 177.316 443.395 178.015 472.994C178.217 481.519 227.892 495.265 229.52 500.407C251.897 499.411 264.3 499.309 286.27 500.001C287.905 494.728 333.208 489.834 333 481C332.776 471.526 333 455.5 332.5 444.5C297.15 434.995 210.388 442.747 195.499 443Z" fill="#352C2C" style="fill:#352C2C;fill:color(display-p3 0.2078 0.1725 0.1725);fill-opacity:1;"/>
</svg>
