<svg width="510" height="580" viewBox="0 0 510 580" fill="none" xmlns="http://www.w3.org/2000/svg">
<path d="M178.128 429.198C176.299 450.02 177.088 475.485 177.628 498.5C178.83 549.751 197.974 561.693 219.71 561.322C241.447 560.951 240.524 548.45 239.322 497.198C238.789 474.497 235.061 449.723 229.183 429.198L178.128 429.198Z" fill="#38291E" style="fill:#38291E;fill:color(display-p3 0.2212 0.1623 0.1191);fill-opacity:1;"/>
<path d="M330.497 431.198C332.891 451.919 333.228 476.7 332.699 499.241C331.497 550.493 322.947 562.757 301.211 562.386C279.475 562.015 270.42 549.45 271.622 498.198C272.144 475.969 275.135 451.618 280.128 431.198L330.497 431.198Z" fill="#38291E" style="fill:#38291E;fill:color(display-p3 0.2212 0.1623 0.1191);fill-opacity:1;"/>
<path d="M328.713 414.5C331.128 423 331.73 446.939 332.128 454C335.097 506.618 294.543 498 252.547 498C212.493 498 180.077 487.594 177.713 436.5C177.329 428.202 178.267 419.18 180.213 413L328.713 414.5Z" fill="#38291E" style="fill:#38291E;fill:color(display-p3 0.2212 0.1623 0.1191);fill-opacity:1;"/>
</svg>
