<svg width="510" height="580" viewBox="0 0 510 580" fill="none" xmlns="http://www.w3.org/2000/svg">
<path d="M249.109 138.386C248.891 137.148 249.834 136 251.092 136H254.425C255.62 136 256.547 137.041 256.423 138.229C255.418 147.876 255.475 154.135 256.437 163.785C256.555 164.968 255.63 166 254.441 166H251.092C249.835 166 248.891 164.851 249.111 163.614C250.732 154.499 250.856 148.301 249.109 138.386Z" fill="#BFE542" style="fill:#BFE542;fill:color(display-p3 0.7498 0.8990 0.2593);fill-opacity:1;"/>
<path d="M255.667 136.5C255.667 143.956 241.154 147.5 220.167 147.5C199.18 147.5 181.667 147.5 173.667 141.5C168.334 137.5 197.18 114 218.167 114C239.154 114 255.667 129.044 255.667 136.5Z" fill="#BFE542" style="fill:#BFE542;fill:color(display-p3 0.7498 0.8990 0.2593);fill-opacity:1;"/>
<path d="M330.605 159.23C328.272 166.312 313.378 165.137 293.445 158.57C273.512 152.003 256.879 146.523 251.158 138.321C247.344 132.853 282.095 119.559 302.028 126.126C321.961 132.693 332.938 152.149 330.605 159.23Z" fill="#BFE542" style="fill:#BFE542;fill:color(display-p3 0.7498 0.8990 0.2593);fill-opacity:1;"/>
<path d="M181.667 137C213.368 128.43 225.669 119 252.667 138" stroke="#B3D83C" style="stroke:#B3D83C;stroke:color(display-p3 0.7038 0.8462 0.2359);stroke-opacity:1;" stroke-width="2" stroke-linecap="round"/>
<path d="M324.667 157C310.667 142.5 292.167 125.5 257.167 138" stroke="#B3D83C" style="stroke:#B3D83C;stroke:color(display-p3 0.7038 0.8462 0.2359);stroke-opacity:1;" stroke-width="2" stroke-linecap="round"/>
</svg>
