<svg width="510" height="580" viewBox="0 0 510 580" fill="none" xmlns="http://www.w3.org/2000/svg">
<path d="M365.292 171.492C365.292 216.016 402.873 216.588 255.562 213.48C122.877 210.681 145.833 216.016 145.833 171.492C145.833 126.968 194.96 90.874 255.562 90.874C316.164 90.874 365.292 126.968 365.292 171.492Z" fill="#9AAD5E" style="fill:#9AAD5E;fill:color(display-p3 0.6039 0.6784 0.3686);fill-opacity:1;"/>
<path d="M400 214.6C400 230.369 339 221.158 258.919 221.158C178.838 221.158 110 230.369 110 214.6C110 198.831 174.919 186.048 255 186.048C335.081 186.048 400 198.831 400 214.6Z" fill="#9AAD5E" style="fill:#9AAD5E;fill:color(display-p3 0.6039 0.6784 0.3686);fill-opacity:1;"/>
<path d="M141.911 196.686C230.772 190.548 282.314 190.284 369.208 196.686L366.969 177.651C279.687 172.357 233.271 172.222 144.71 177.651L141.911 196.686Z" fill="#C27F3C" style="fill:#C27F3C;fill:color(display-p3 0.7608 0.4980 0.2353);fill-opacity:1;"/>
<path d="M169.685 152.307C195.04 147.758 209.388 146.92 235.106 148.179L243.234 171.787L238.138 196.23C212.503 195.941 198.092 196.842 172.717 200.358L163.893 176.794L169.685 152.307ZM227.289 157.647C208.053 156.352 197.379 157.159 178.453 160.729L173.95 176.158L180.357 190.9C199.496 187.857 210.234 187.233 229.193 187.818L233.176 172.421L227.289 157.647Z" fill="#E12935" style="fill:#E12935;fill:color(display-p3 0.8824 0.1608 0.2078);fill-opacity:1;"/>
<path d="M178.453 160.73C197.406 157.243 208.059 156.661 227.289 157.649L233.176 172.423L229.193 187.82C209.791 187.016 199.107 187.749 180.357 190.902L173.95 176.16L178.453 160.73Z" fill="url(#paint0_linear_1267_11001)" fill-opacity="0.51" style=""/>
<path d="M339.196 152.307C313.841 147.758 299.493 146.92 273.775 148.179L265.647 171.787L270.743 196.23C296.378 195.941 310.789 196.842 336.164 200.358L344.988 176.794L339.196 152.307ZM281.592 157.647C300.828 156.352 311.502 157.159 330.427 160.729L334.93 176.158L328.524 190.9C309.384 187.857 298.647 187.233 279.688 187.818L275.705 172.421L281.592 157.647Z" fill="#E12935" style="fill:#E12935;fill:color(display-p3 0.8824 0.1608 0.2078);fill-opacity:1;"/>
<path d="M330.427 160.73C311.474 157.243 300.821 156.661 281.592 157.649L275.704 172.423L279.688 187.82C299.09 187.016 309.773 187.749 328.523 190.902L334.93 176.16L330.427 160.73Z" fill="url(#paint1_linear_1267_11001)" fill-opacity="0.51" style=""/>
<path d="M286.351 94.7938C311.962 74.5538 328.194 68.9293 360.251 70.1606C371.721 101.239 367.64 118.634 358.571 149.659L327.78 117.187L286.351 94.7938Z" fill="#D59A5C" style="fill:#D59A5C;fill:color(display-p3 0.8353 0.6039 0.3608);fill-opacity:1;"/>
<g filter="url(#filter0_i_1267_11001)">
<path d="M302.587 103.953C325.88 94.2268 340.626 83.4052 346.255 87.1576C351.293 90.5166 351.115 108.097 347.375 137.544L327.22 119.629L302.587 103.953Z" fill="#EDC4CA" style="fill:#EDC4CA;fill:color(display-p3 0.9294 0.7686 0.7922);fill-opacity:1;"/>
<path d="M302.587 103.953C325.88 94.2268 340.626 83.4052 346.255 87.1576C351.293 90.5166 351.115 108.097 347.375 137.544L327.22 119.629L302.587 103.953Z" fill="#EDC4CA" style="fill:#EDC4CA;fill:color(display-p3 0.9294 0.7686 0.7922);fill-opacity:1;"/>
</g>
<path d="M225.06 94.7938C199.449 74.5538 183.218 68.9293 151.16 70.1606C139.691 101.239 143.772 118.634 152.84 149.659L183.631 117.187L225.06 94.7938Z" fill="#D59A5C" style="fill:#D59A5C;fill:color(display-p3 0.8353 0.6039 0.3608);fill-opacity:1;"/>
<g filter="url(#filter1_i_1267_11001)">
<path d="M208.825 103.953C185.531 94.2268 170.785 83.4052 165.157 87.1576C160.118 90.5166 160.297 108.097 164.037 137.544L184.192 119.629L208.825 103.953Z" fill="#EDC4CA" style="fill:#EDC4CA;fill:color(display-p3 0.9294 0.7686 0.7922);fill-opacity:1;"/>
<path d="M208.825 103.953C185.531 94.2268 170.785 83.4052 165.157 87.1576C160.118 90.5166 160.297 108.097 164.037 137.544L184.192 119.629L208.825 103.953Z" fill="#EDC4CA" style="fill:#EDC4CA;fill:color(display-p3 0.9294 0.7686 0.7922);fill-opacity:1;"/>
</g>
<ellipse cx="256.68" cy="91.9938" rx="4.47876" ry="3.35907" fill="#97A95C" style="fill:#97A95C;fill:color(display-p3 0.5906 0.6635 0.3604);fill-opacity:1;"/>
<defs>
<filter id="filter0_i_1267_11001" x="298.587" y="81.3955" width="51.5293" height="56.1484" filterUnits="userSpaceOnUse" color-interpolation-filters="sRGB">
<feFlood flood-opacity="0" result="BackgroundImageFix"/>
<feBlend mode="normal" in="SourceGraphic" in2="BackgroundImageFix" result="shape"/>
<feColorMatrix in="SourceAlpha" type="matrix" values="0 0 0 0 0 0 0 0 0 0 0 0 0 0 0 0 0 0 127 0" result="hardAlpha"/>
<feOffset dx="-4" dy="-5"/>
<feGaussianBlur stdDeviation="2.5"/>
<feComposite in2="hardAlpha" operator="arithmetic" k2="-1" k3="1"/>
<feColorMatrix type="matrix" values="0 0 0 0 0 0 0 0 0 0 0 0 0 0 0 0 0 0 0.25 0"/>
<feBlend mode="normal" in2="shape" result="effect1_innerShadow_1267_11001"/>
</filter>
<filter id="filter1_i_1267_11001" x="157.295" y="81.3955" width="51.5293" height="56.1484" filterUnits="userSpaceOnUse" color-interpolation-filters="sRGB">
<feFlood flood-opacity="0" result="BackgroundImageFix"/>
<feBlend mode="normal" in="SourceGraphic" in2="BackgroundImageFix" result="shape"/>
<feColorMatrix in="SourceAlpha" type="matrix" values="0 0 0 0 0 0 0 0 0 0 0 0 0 0 0 0 0 0 127 0" result="hardAlpha"/>
<feOffset dx="-4" dy="-5"/>
<feGaussianBlur stdDeviation="2.5"/>
<feComposite in2="hardAlpha" operator="arithmetic" k2="-1" k3="1"/>
<feColorMatrix type="matrix" values="0 0 0 0 0 0 0 0 0 0 0 0 0 0 0 0 0 0 0.25 0"/>
<feBlend mode="normal" in2="shape" result="effect1_innerShadow_1267_11001"/>
</filter>
<linearGradient id="paint0_linear_1267_11001" x1="174.288" y1="201.382" x2="176.191" y2="231.554" gradientUnits="userSpaceOnUse">
<stop stop-color="#49818F" style="stop-color:#49818F;stop-color:color(display-p3 0.2862 0.5070 0.5615);stop-opacity:1;"/>
<stop offset="1" stop-color="#7DDDF5" style="stop-color:#7DDDF5;stop-color:color(display-p3 0.4900 0.8682 0.9615);stop-opacity:1;"/>
</linearGradient>
<linearGradient id="paint1_linear_1267_11001" x1="334.593" y1="201.382" x2="332.689" y2="231.554" gradientUnits="userSpaceOnUse">
<stop stop-color="#49818F" style="stop-color:#49818F;stop-color:color(display-p3 0.2862 0.5070 0.5615);stop-opacity:1;"/>
<stop offset="1" stop-color="#7DDDF5" style="stop-color:#7DDDF5;stop-color:color(display-p3 0.4900 0.8682 0.9615);stop-opacity:1;"/>
</linearGradient>
</defs>
</svg>
