<svg width="510" height="580" viewBox="0 0 510 580" fill="none" xmlns="http://www.w3.org/2000/svg">
<g clip-path="url(#clip0_652_8392)">
<path d="M372.324 77.8719C372.695 80.9398 368.627 82.3996 366.721 79.9666C354.476 64.3302 342.368 57.2045 327.566 57.6713C324 57.7838 320.511 50.7174 323.372 48.5871L344.762 32.6644C345.6 32.0408 346.705 31.8922 347.663 32.3078C359.931 37.6282 368.539 46.6354 372.324 77.8719Z" fill="url(#paint0_linear_652_8392)" style=""/>
<path d="M335.746 33.7612C343.033 27.0533 355.02 32.1617 354.313 42.0404C350.376 97.0991 336.792 126.152 340.978 171.955C341.688 179.722 334.794 186.315 327.175 184.648L233.803 164.225C226.805 162.695 223.108 154.981 226.64 148.749C256.229 96.5423 294.94 71.3285 335.746 33.7612Z" fill="url(#paint1_linear_652_8392)" style=""/>
<g filter="url(#filter0_d_652_8392)">
<path d="M225.815 136.767C226.541 136.341 227.37 136.358 228.208 136.437C240.551 137.604 336.537 158.487 344.579 163.007C344.934 163.207 345.192 163.486 345.322 163.872C346.259 166.634 346.704 178.713 345.373 189.909C344.818 194.582 340.029 197.243 335.583 195.703C291.352 180.38 271.686 170.194 221.79 163.617C216.95 162.979 213.688 158.235 215.473 153.691C218.803 145.215 223.076 138.374 225.815 136.767Z" fill="#FFFAFA" style="fill:#FFFAFA;fill:color(display-p3 1.0000 0.9808 0.9808);fill-opacity:1;"/>
</g>
<ellipse cx="372" cy="86.4577" rx="16.5" ry="15.5" transform="rotate(12.3376 372 86.4577)" fill="#FEF6F6" style="fill:#FEF6F6;fill:color(display-p3 0.9952 0.9665 0.9665);fill-opacity:1;"/>
</g>
<defs>
<filter id="filter0_d_652_8392" x="210.978" y="136.393" width="139.23" height="67.748" filterUnits="userSpaceOnUse" color-interpolation-filters="sRGB">
<feFlood flood-opacity="0" result="BackgroundImageFix"/>
<feColorMatrix in="SourceAlpha" type="matrix" values="0 0 0 0 0 0 0 0 0 0 0 0 0 0 0 0 0 0 127 0" result="hardAlpha"/>
<feOffset dy="4"/>
<feGaussianBlur stdDeviation="2"/>
<feComposite in2="hardAlpha" operator="out"/>
<feColorMatrix type="matrix" values="0 0 0 0 0 0 0 0 0 0 0 0 0 0 0 0 0 0 0.25 0"/>
<feBlend mode="normal" in2="BackgroundImageFix" result="effect1_dropShadow_652_8392"/>
<feBlend mode="normal" in="SourceGraphic" in2="effect1_dropShadow_652_8392" result="shape"/>
</filter>
<linearGradient id="paint0_linear_652_8392" x1="360.872" y1="67.134" x2="338.402" y2="13.0845" gradientUnits="userSpaceOnUse">
<stop offset="0.158654" stop-color="#E83B40" style="stop-color:#E83B40;stop-color:color(display-p3 0.9087 0.2315 0.2492);stop-opacity:1;"/>
<stop offset="1" stop-color="#822124" style="stop-color:#822124;stop-color:color(display-p3 0.5087 0.1296 0.1395);stop-opacity:1;"/>
</linearGradient>
<linearGradient id="paint1_linear_652_8392" x1="324.072" y1="68.0422" x2="282.909" y2="175.189" gradientUnits="userSpaceOnUse">
<stop stop-color="#E83B40" style="stop-color:#E83B40;stop-color:color(display-p3 0.9087 0.2315 0.2492);stop-opacity:1;"/>
<stop offset="1" stop-color="#C33C40" style="stop-color:#C33C40;stop-color:color(display-p3 0.7644 0.2352 0.2490);stop-opacity:1;"/>
</linearGradient>
<clipPath id="clip0_652_8392">
<rect width="510" height="580" fill="white" style="fill:white;fill-opacity:1;"/>
</clipPath>
</defs>
</svg>
