<svg width="510" height="580" viewBox="0 0 510 580" fill="none" xmlns="http://www.w3.org/2000/svg">
<path d="M147 179.843C157.5 163.686 181.386 144.107 199.5 141.47C233.604 136.504 283.848 136.548 320.5 143.489C348 155.607 346.694 163.034 356.5 173.784L362.5 196C341.296 188.791 341.5 165.705 320.5 157.122C286.161 152.188 235.046 150.34 199.5 157.122C183.713 160.134 168.353 181.358 155.5 193.98L147 179.843Z" fill="#37383C" style="fill:#37383C;fill:color(display-p3 0.2157 0.2196 0.2353);fill-opacity:1;"/>
<path d="M149 204.915C159.5 189.047 175.386 157.006 193.5 154.415C227.604 149.538 283.848 147.598 320.5 154.415C348 166.317 353.694 187.858 363.5 198.415L356.5 213.915C349 204.915 333 168.145 312 159.715C277.661 154.869 235.046 153.054 199.5 159.715C183.713 162.673 169.853 196.018 157 208.415L149 204.915Z" fill="#EE64A1" style="fill:#EE64A1;fill:color(display-p3 0.9333 0.3922 0.6314);fill-opacity:1;"/>
<path d="M113.503 142.981L124 133.981L158.5 175.481L158.5 193.981L152.004 239.481L113.503 142.981Z" fill="#3F67CB" style="fill:#3F67CB;fill:color(display-p3 0.2471 0.4039 0.7961);fill-opacity:1;"/>
<path d="M115.593 149.482L123.868 141.748L149 175.481L146.5 187.981L157 202.981L154.5 228.481C134.13 201.719 125.533 184.511 115.593 149.482Z" fill="#22A273" style="fill:#22A273;fill:color(display-p3 0.1333 0.6353 0.4510);fill-opacity:1;"/>
<path d="M123.829 201.621L134.257 195.259L157.386 233.72L150.934 254.481L130.5 241.981L123.829 201.621Z" fill="#5054C2" style="fill:#5054C2;fill:color(display-p3 0.3137 0.3294 0.7608);fill-opacity:1;"/>
<path d="M127.874 214.98L145.045 221.98L146.045 247.48L135.545 253.981L119.545 232.98L127.874 214.98Z" fill="#58554F" style="fill:#58554F;fill:color(display-p3 0.3451 0.3333 0.3098);fill-opacity:1;"/>
<path d="M391.566 142.981L381.069 133.981L346.569 175.481L346.569 193.981L353.066 239.481L391.566 142.981Z" fill="#3F67CB" style="fill:#3F67CB;fill:color(display-p3 0.2471 0.4039 0.7961);fill-opacity:1;"/>
<path d="M389.476 149.482L381.201 141.748L356.069 175.481L358.569 187.981L348.069 202.981L350.569 228.481C370.939 201.719 379.537 184.511 389.476 149.482Z" fill="#22A273" style="fill:#22A273;fill:color(display-p3 0.1333 0.6353 0.4510);fill-opacity:1;"/>
<path d="M381.24 201.621L370.812 195.259L347.683 233.72L354.136 254.481L374.569 241.981L381.24 201.621Z" fill="#5054C2" style="fill:#5054C2;fill:color(display-p3 0.3137 0.3294 0.7608);fill-opacity:1;"/>
<path d="M377.195 214.98L360.024 221.98L359.024 247.48L369.524 253.981L385.524 232.98L377.195 214.98Z" fill="#58554F" style="fill:#58554F;fill:color(display-p3 0.3451 0.3333 0.3098);fill-opacity:1;"/>
</svg>
