<svg width="510" height="580" viewBox="0 0 510 580" fill="none" xmlns="http://www.w3.org/2000/svg">
<path d="M214.501 164C245.272 170.529 262.471 170.34 295.501 164C296.791 173.781 298.001 171 295.996 177.149C263.803 183.536 245.917 183.698 214.289 177.149C212.501 174 212.759 173.285 214.501 164Z" fill="#FFD900" style="fill:#FFD900;fill:color(display-p3 1.0000 0.8500 0.0000);fill-opacity:1;"/>
<path d="M222.526 121C224.764 143.067 232.729 161 243.729 175L213 173.5C216.136 153.724 218.546 141.826 222.526 121Z" fill="#FFD900" style="fill:#FFD900;fill:color(display-p3 1.0000 0.8500 0.0000);fill-opacity:1;"/>
<path d="M255.524 110.5C257.291 136.619 264.662 150.562 270.526 173.5H239C246.032 150.502 254.685 136.505 255.524 110.5Z" fill="#FFD900" style="fill:#FFD900;fill:color(display-p3 1.0000 0.8500 0.0000);fill-opacity:1;"/>
<path d="M286.311 121C291.216 144.403 297.155 170.969 296.997 173H268.5C275.397 154.979 284.214 143.465 286.311 121Z" fill="#FFD900" style="fill:#FFD900;fill:color(display-p3 1.0000 0.8500 0.0000);fill-opacity:1;"/>
<circle cx="222.526" cy="125" r="4" fill="#FFD900" style="fill:#FFD900;fill:color(display-p3 1.0000 0.8500 0.0000);fill-opacity:1;"/>
<circle cx="255.526" cy="114" r="4" fill="#FFD900" style="fill:#FFD900;fill:color(display-p3 1.0000 0.8500 0.0000);fill-opacity:1;"/>
<circle cx="286.797" cy="124" r="4" fill="#FFD900" style="fill:#FFD900;fill:color(display-p3 1.0000 0.8500 0.0000);fill-opacity:1;"/>
</svg>
