<svg width="510" height="580" viewBox="0 0 510 580" fill="none" xmlns="http://www.w3.org/2000/svg">
<path d="M220.509 160.631C219.282 154.131 218.882 148.339 212.713 145.987C206.545 143.636 196.19 145.2 191.378 148.022C186.567 150.844 182.041 156.451 181.404 162.793C180.768 169.136 183.989 175.008 190.614 179.84C196.267 175.633 205.45 169.372 205.45 169.372C205.45 169.372 214.138 162.897 220.509 160.631Z" fill="#F9F1E6" style="fill:#F9F1E6;fill:color(display-p3 0.9760 0.9450 0.9009);fill-opacity:1;"/>
<path d="M288.115 161.34C289.342 154.841 289.854 148.951 296.022 146.599C302.191 144.247 312.545 145.812 317.357 148.634C322.169 151.456 326.695 157.062 327.331 163.405C327.968 169.748 326.24 175.508 319.615 180.34C313.962 176.133 303.286 169.984 303.286 169.984C303.286 169.984 294.486 163.606 288.115 161.34Z" fill="#F9F1E6" style="fill:#F9F1E6;fill:color(display-p3 0.9760 0.9450 0.9009);fill-opacity:1;"/>
</svg>
