<svg width="510" height="580" viewBox="0 0 510 580" fill="none" xmlns="http://www.w3.org/2000/svg">
<path d="M358.45 235.992C358.45 213.795 345.951 193.083 327 177.213C308.049 161.343 281.599 152.518 254.5 152.022C227.401 151.526 207.298 159.362 187.5 174.522C167.702 189.683 155.711 213.817 154.5 235.992H159C160.073 216.348 174.461 192.953 192 179.522C209.539 166.092 232.511 158.264 256.518 158.703C280.524 159.143 303.102 165.506 319.89 179.565C336.679 193.624 351.5 216.328 351.5 235.992H358.45Z" fill="#3E483C" style="fill:#3E483C;fill:color(display-p3 0.2431 0.2824 0.2353);fill-opacity:1;"/>
<path d="M165.106 249.522C165.106 272.442 173.016 291.022 155.95 291.022C138.883 291.022 148.803 273.551 148.803 250.631C148.803 227.711 138.883 208.022 155.95 208.022C173.016 208.022 165.106 226.603 165.106 249.522Z" fill="#667662" style="fill:#667662;fill:color(display-p3 0.3987 0.4615 0.3861);fill-opacity:1;"/>
<path d="M134.41 211.422C134.701 208.914 136.833 207.022 139.358 207.022H147.472C150.408 207.022 152.71 209.55 152.467 212.476C150.033 241.83 150.159 259.663 152.453 286.562C152.703 289.492 150.4 292.022 147.458 292.022H139.403C136.859 292.022 134.718 290.102 134.446 287.572C131.259 257.915 131.124 239.819 134.41 211.422Z" fill="#3E483C" style="fill:#3E483C;fill:color(display-p3 0.2438 0.2837 0.2346);fill-opacity:1;"/>
<path d="M345.831 249.522C345.831 272.442 337.92 291.022 354.987 291.022C372.053 291.022 362.133 273.551 362.133 250.631C362.133 227.711 372.053 208.022 354.987 208.022C337.92 208.022 345.831 226.603 345.831 249.522Z" fill="#667662" style="fill:#667662;fill:color(display-p3 0.3987 0.4615 0.3861);fill-opacity:1;"/>
<path d="M376.526 211.422C376.236 208.914 374.103 207.022 371.578 207.022H363.465C360.528 207.022 358.227 209.55 358.469 212.476C360.903 241.83 360.777 259.663 358.483 286.562C358.233 289.492 360.537 292.022 363.478 292.022H371.533C374.077 292.022 376.219 290.102 376.491 287.572C379.678 257.915 379.813 239.819 376.526 211.422Z" fill="#3E483C" style="fill:#3E483C;fill:color(display-p3 0.2438 0.2837 0.2346);fill-opacity:1;"/>
</svg>
