<svg width="510" height="580" viewBox="0 0 510 580" fill="none" xmlns="http://www.w3.org/2000/svg">
<path fill-rule="evenodd" clip-rule="evenodd" d="M330.861 168.998C349.376 147.488 367.445 179.305 339.784 184.458C367.445 189.836 349.153 221.428 330.861 199.918C340.23 226.806 303.869 226.582 313.238 199.918C294.722 221.428 276.653 189.836 304.315 184.458C276.43 179.305 294.722 147.712 313.238 168.998C303.645 142.334 340.23 142.334 330.861 168.998ZM321.938 180.425C324.168 180.425 326.176 182.217 326.176 184.458C326.176 186.699 324.168 188.715 321.938 188.715C319.707 188.715 317.922 186.699 317.922 184.458C317.922 182.217 319.707 180.425 321.938 180.425Z" fill="#EB5757" style="fill:#EB5757;fill:color(display-p3 0.9216 0.3412 0.3412);fill-opacity:1;"/>
<path d="M328 184C328 187.314 325.314 190 322 190C318.686 190 316 187.314 316 184C316 180.686 318.686 178 322 178C325.314 178 328 180.686 328 184Z" fill="#FFCC00" style="fill:#FFCC00;fill:color(display-p3 1.0000 0.8000 0.0000);fill-opacity:1;"/>
</svg>
