<svg width="510" height="580" viewBox="0 0 510 580" fill="none" xmlns="http://www.w3.org/2000/svg">
<path d="M332.09 41.375C335.134 40.1892 338.543 41.9193 339.351 45.085C356.999 114.247 343.184 144.508 302.378 188.193C301.023 189.643 298.972 190.254 297.047 189.775L296.208 189.566C292.107 188.547 290.649 183.486 293.592 180.453C301.504 172.299 308.556 165.018 314.371 157.403C309.8 141.612 301.699 132.815 283.385 116.833C280.442 114.265 280.94 109.784 284.386 108.117L285.407 107.623C287.254 106.73 289.524 106.9 291.241 108.115C309.595 121.105 315.729 132.969 319.512 150.03C324.071 142.77 327.497 134.911 329.499 125.526C324.204 112.167 316.476 102.882 300.113 89.6104C297.163 87.2177 297.354 82.6161 300.551 80.5645L300.783 80.415C302.62 79.2359 304.998 79.2492 306.774 80.5186C320.056 90.0136 326.395 99.4902 331.307 111.873C332.262 96.1351 330.004 76.3849 323.663 49.873C323.019 47.1801 324.431 44.3576 327.012 43.3525L332.09 41.375Z" fill="url(#paint0_linear_652_13019)" style=""/>
<path d="M177.244 41.375C174.2 40.1892 170.79 41.9193 169.982 45.085C152.334 114.247 166.15 144.508 206.956 188.193C208.31 189.643 210.361 190.254 212.287 189.775L213.127 189.566C217.227 188.547 218.684 183.486 215.742 180.453C207.83 172.299 200.778 165.018 194.963 157.403C199.534 141.612 207.635 132.815 225.949 116.833C228.891 114.265 228.393 109.784 224.948 108.117L223.927 107.623C222.08 106.73 219.809 106.9 218.093 108.115C199.738 121.105 193.605 132.969 189.822 150.03C185.263 142.77 181.836 134.911 179.835 125.526C185.13 112.167 192.858 102.882 209.221 89.6104C212.17 87.2177 211.979 82.6161 208.783 80.5645L208.551 80.415C206.713 79.2359 204.335 79.2492 202.559 80.5186C189.277 90.0136 182.938 99.4902 178.026 111.873C177.071 96.1351 179.33 76.3848 185.671 49.873C186.315 47.1801 184.902 44.3576 182.322 43.3525L177.244 41.375Z" fill="url(#paint1_linear_652_13019)" style=""/>
<defs>
<linearGradient id="paint0_linear_652_13019" x1="314.167" y1="41" x2="314.167" y2="189.936" gradientUnits="userSpaceOnUse">
<stop stop-color="#6D6057" style="stop-color:#6D6057;stop-color:color(display-p3 0.4275 0.3765 0.3412);stop-opacity:1;"/>
<stop offset="1" stop-color="#AC9988" style="stop-color:#AC9988;stop-color:color(display-p3 0.6745 0.6000 0.5333);stop-opacity:1;"/>
</linearGradient>
<linearGradient id="paint1_linear_652_13019" x1="195.167" y1="41" x2="195.167" y2="189.936" gradientUnits="userSpaceOnUse">
<stop stop-color="#6D6057" style="stop-color:#6D6057;stop-color:color(display-p3 0.4275 0.3765 0.3412);stop-opacity:1;"/>
<stop offset="1" stop-color="#AC9988" style="stop-color:#AC9988;stop-color:color(display-p3 0.6745 0.6000 0.5333);stop-opacity:1;"/>
</linearGradient>
</defs>
</svg>
