<svg width="510" height="580" viewBox="0 0 510 580" fill="none" xmlns="http://www.w3.org/2000/svg">
<path d="M220.424 157.631C219.197 151.131 218.796 145.339 212.628 142.987C206.459 140.636 196.105 142.2 191.293 145.022C186.481 147.844 181.955 153.451 181.319 159.793C180.682 166.136 183.903 172.008 190.529 176.84C196.182 172.633 205.364 166.372 205.364 166.372C205.364 166.372 214.052 159.897 220.424 157.631Z" fill="#170F02" style="fill:#170F02;fill:color(display-p3 0.0913 0.0577 0.0097);fill-opacity:1;"/>
<path d="M288.029 158.34C289.256 151.841 289.768 145.951 295.936 143.599C302.105 141.247 312.459 142.812 317.271 145.634C322.083 148.456 326.609 154.062 327.245 160.405C327.882 166.748 326.155 172.508 319.529 177.34C313.876 173.133 303.2 166.984 303.2 166.984C303.2 166.984 294.4 160.606 288.029 158.34Z" fill="#170F02" style="fill:#170F02;fill:color(display-p3 0.0913 0.0577 0.0097);fill-opacity:1;"/>
</svg>
