<svg width="510" height="580" viewBox="0 0 510 580" fill="none" xmlns="http://www.w3.org/2000/svg">
<path d="M200.775 133.017C218.528 145.422 223.859 148.499 234.774 166.017L209.39 172.517L185.39 183.017C186.496 162.475 188.855 151.319 200.775 133.017Z" fill="#4A2F2A" style="fill:#4A2F2A;fill:color(display-p3 0.2902 0.1843 0.1647);fill-opacity:1;"/>
<path d="M203.018 146.01C215.072 154.408 218.686 156.499 226.175 168.249L209.502 172.5L193.502 179.5C194.087 165.829 195.131 158.105 203.018 146.01Z" fill="white" style="fill:white;fill-opacity:1;"/>
<path d="M308.3 133.017C290.547 145.422 285.217 148.499 274.301 166.017L299.685 172.517L323.685 183.017C322.579 162.475 320.22 151.319 308.3 133.017Z" fill="#4A2F2A" style="fill:#4A2F2A;fill:color(display-p3 0.2902 0.1843 0.1647);fill-opacity:1;"/>
<path d="M306.057 146.01C294.003 154.408 290.389 156.499 282.901 168.249L299.573 172.5L315.573 179.5C314.988 165.829 313.944 158.105 306.057 146.01Z" fill="white" style="fill:white;fill-opacity:1;"/>
</svg>
