<svg width="510" height="580" viewBox="0 0 510 580" fill="none" xmlns="http://www.w3.org/2000/svg">
<path d="M239.589 531.495L181 530.687C186.896 554.63 198.653 561.604 219.156 561.363C239.433 561.125 239.984 554.857 239.589 531.495Z" fill="#423F3F" style="fill:#423F3F;fill:color(display-p3 0.2596 0.2475 0.2459);fill-opacity:1;"/>
<path d="M239.589 531.495L181 530.687C186.896 554.63 198.653 561.604 219.156 561.363C239.433 561.125 239.984 554.857 239.589 531.495Z" fill="#423F3F" style="fill:#423F3F;fill:color(display-p3 0.2596 0.2475 0.2459);fill-opacity:1;"/>
<path d="M272.421 530.892L330 530.892C326.946 556.254 317.615 562.941 294.962 561.444C281.138 559.389 276.497 552.995 272.421 530.892Z" fill="#423F3F" style="fill:#423F3F;fill:color(display-p3 0.2596 0.2475 0.2459);fill-opacity:1;"/>
<path d="M272.421 530.892L330 530.892C326.946 556.254 317.615 562.941 294.962 561.444C281.138 559.389 276.497 552.995 272.421 530.892Z" fill="#423F3F" style="fill:#423F3F;fill:color(display-p3 0.2596 0.2475 0.2459);fill-opacity:1;"/>
<path d="M215.957 517.302C190.665 516.942 176.303 534.276 174.692 486.811C174.171 471.452 170.195 448.591 175.383 450.761L242.101 450.92C253.204 451.021 247.577 472.537 248.103 488.032C249.714 535.498 241.25 517.662 215.957 517.302Z" fill="#E83B40" style="fill:#E83B40;fill:color(display-p3 0.9087 0.2315 0.2492);fill-opacity:1;"/>
<path d="M300.496 517.303C325.789 516.943 336.807 535.498 338.418 488.033C338.939 472.674 339.606 448.75 334.418 450.921L274.352 450.921C263.249 451.021 268.876 472.537 268.35 488.033C266.739 535.498 275.203 517.662 300.496 517.303Z" fill="#E83B40" style="fill:#E83B40;fill:color(display-p3 0.9087 0.2315 0.2492);fill-opacity:1;"/>
<g filter="url(#filter0_d_652_18338)">
<path d="M184.96 342.542C186.471 338.793 190.68 339.581 194.462 341.005C213.979 348.356 279.172 349.286 302.088 342.713C306.862 341.344 311.957 342.12 313.125 346.947C314.287 351.748 315.425 357.902 316.011 363.916C316.467 368.6 312.356 372.223 307.684 371.668C261.201 366.15 239.812 360.402 189.663 364.638C184.799 365.049 180.598 361.111 181.371 356.291C182.232 350.924 183.545 346.054 184.96 342.542Z" fill="#363131" style="fill:#363131;fill:color(display-p3 0.2115 0.1932 0.1932);fill-opacity:1;"/>
</g>
<path d="M193.863 352.445C196.823 371.831 215.743 379.807 169.297 389.242C154.268 392.295 132.316 399.284 133.77 394.946L125.185 343.946C123.83 335.446 145.717 336.026 160.88 332.946C207.326 323.51 190.903 333.06 193.863 352.445Z" fill="#E83B40" style="fill:#E83B40;fill:color(display-p3 0.9087 0.2315 0.2492);fill-opacity:1;"/>
<path d="M312.849 351.445C309.866 370.831 290.797 378.807 337.608 388.242C352.755 391.295 374.879 398.284 373.414 393.946L382.066 342.946C383.432 334.446 361.373 335.026 346.091 331.946C299.28 322.51 315.833 332.06 312.849 351.445Z" fill="#E83B40" style="fill:#E83B40;fill:color(display-p3 0.9087 0.2315 0.2492);fill-opacity:1;"/>
<path d="M279.286 369.045V368.529H278.638V367.965H277.99V367.377H277.318V364.101H277.99V363.489H278.614V362.937H279.202V362.433H284.566V362.985H285.214V364.437H284.566V365.001H280.798V365.433H280.354V366.153H280.798V366.585H283.402V367.113H284.038V367.665H284.698V368.265H285.37V371.529H284.698V372.141H284.062V372.693H283.486V373.209H278.086V372.645H277.462V371.193H278.086V370.641H281.854V370.197H282.298V369.489H281.854V369.045H279.286ZM288.262 369.045V368.529H287.614V367.965H286.966V367.377H286.294V364.101H286.966V363.489H287.59V362.937H288.178V362.433H293.542V362.985H294.19V364.437H293.542V365.001H289.774V365.433H289.33V366.153H289.774V366.585H292.378V367.113H293.014V367.665H293.674V368.265H294.346V371.529H293.674V372.141H293.038V372.693H292.462V373.209H287.062V372.645H286.438V371.193H287.062V370.641H290.83V370.197H291.274V369.489H290.83V369.045H288.262ZM301.367 366.597H300.743V365.745H300.155V365.001H299.339V365.745H298.751V366.597H298.127V367.665H301.367V366.597ZM298.127 370.113V372.669H297.539V373.221H295.907V372.669H295.331V365.589H295.955V364.605H296.579V363.753H297.191V363.057H297.779V362.433H301.703V363.057H302.279V363.753H302.891V364.605H303.527V365.589H304.163V372.669H303.575V373.221H301.943V372.669H301.367V370.113H298.127ZM311.965 366.645V367.221H312.601V368.613H311.965V369.201H308.065V372.633H307.477V373.221H305.797V372.633H305.221V363.009H305.845V362.433H312.265V363.009H312.889V364.365H312.265V364.953H308.065V366.645H311.965ZM315.581 367.929V367.149H314.993V366.393H314.393V365.661H313.781V365.013H313.193V362.985H313.781V362.433H315.497V362.985H316.109V363.777H316.697V364.533H317.261V365.241H317.933V364.533H318.497V363.777H319.085V362.985H319.697V362.433H321.413V362.985H322.001V365.013H321.413V365.661H320.801V366.393H320.213V367.149H319.613V367.929H319.037V372.741H318.557V373.221H316.637V372.741H316.157V367.929H315.581Z" fill="#F2F2F2" style="fill:#F2F2F2;fill:color(display-p3 0.9490 0.9490 0.9490);fill-opacity:1;"/>
<path d="M315.766 329.445C322.862 329.066 362.189 458.715 338.237 474C314.284 489.285 218.166 480.406 180.574 484C142.983 487.593 173.009 338.047 189.037 329.445C202.673 334.571 214.225 338.46 224.605 341.113C228.297 352.573 240.691 361 255.414 361C270.433 361 283.027 352.231 286.434 340.419C295.267 337.801 304.813 334.145 315.766 329.445Z" fill="#E83B40" style="fill:#E83B40;fill:color(display-p3 0.9087 0.2315 0.2492);fill-opacity:1;"/>
<path d="M254.001 429.568C234.416 430.643 222.668 413.591 223.118 461.44C223.263 476.923 221 500.059 224.942 497.727L269.418 497.726L276.634 495.686C285.233 495.271 280.103 473.76 279.957 458.14C279.507 410.291 273.587 428.493 254.001 429.568Z" fill="#E83B40" style="fill:#E83B40;fill:color(display-p3 0.9087 0.2315 0.2492);fill-opacity:1;"/>
<path d="M160.418 436.5C160.418 434.325 162.619 432.83 164.66 433.583C235.263 459.641 275.879 459.748 343.564 433.511C345.576 432.731 347.842 433.908 348.31 436.014C348.382 436.336 348.407 436.667 348.387 436.997L347.632 448.924C347.503 450.966 346.117 452.733 344.169 453.36C274.121 475.916 233.491 476.36 163.857 453.448C161.816 452.777 160.418 450.857 160.418 448.709V436.5Z" fill="#363131" style="fill:#363131;fill:color(display-p3 0.2115 0.1932 0.1932);fill-opacity:1;"/>
<path d="M244.418 456C253.753 456.864 259.005 456.881 268.418 456V466.859C258.929 468.346 253.67 468.414 244.418 466.859V456Z" fill="#989898" style="fill:#989898;fill:color(display-p3 0.5962 0.5962 0.5962);fill-opacity:1;"/>
<path d="M249.539 527.333C245.935 535.116 187.915 538.653 174.955 526.806C174.474 526.453 174.566 525.398 174.783 522.761C175.178 517.948 179.533 514.334 184.318 514.964C205.095 517.697 218.539 517.403 240.946 514.888C245.867 514.336 250.665 518.266 250.714 523.215C250.725 524.304 250.475 525.311 249.539 527.333Z" fill="#FFFAFA" style="fill:#FFFAFA;fill:color(display-p3 1.0000 0.9808 0.9808);fill-opacity:1;"/>
<path d="M127.639 400.271C119.543 397.963 110.231 347.375 120.712 334.684C121.007 334.233 122.021 334.189 124.525 334.094C129.416 333.909 133.523 337.93 133.378 342.819C132.86 360.314 134.447 371.882 138.866 390.184C140.038 395.039 136.684 400.361 131.717 400.865C130.683 400.97 129.656 400.847 127.639 400.271Z" fill="#FFFAFA" style="fill:#FFFAFA;fill:color(display-p3 1.0000 0.9808 0.9808);fill-opacity:1;"/>
<path d="M382.019 397.271C390.115 394.963 399.427 344.375 388.946 331.684C388.651 331.233 387.637 331.189 385.133 331.094C380.242 330.909 376.135 334.93 376.28 339.819C376.798 357.314 375.211 368.882 370.792 387.184C369.62 392.039 372.974 397.361 377.941 397.865C378.975 397.97 380.002 397.847 382.019 397.271Z" fill="#FFFAFA" style="fill:#FFFAFA;fill:color(display-p3 1.0000 0.9808 0.9808);fill-opacity:1;"/>
<path d="M339.464 528.217C335.86 536 277.84 539.537 264.88 527.689C264.399 527.337 264.491 526.282 264.708 523.645C265.103 518.832 269.458 515.218 274.243 515.847C295.02 518.581 308.464 518.287 330.871 515.772C335.792 515.22 340.591 519.15 340.639 524.098C340.65 525.187 340.4 526.195 339.464 528.217Z" fill="#FFFAFA" style="fill:#FFFAFA;fill:color(display-p3 1.0000 0.9808 0.9808);fill-opacity:1;"/>
<circle cx="257.418" cy="382" r="4" fill="#363131" style="fill:#363131;fill:color(display-p3 0.2115 0.1932 0.1932);fill-opacity:1;"/>
<circle cx="257.418" cy="401" r="4" fill="#363131" style="fill:#363131;fill:color(display-p3 0.2115 0.1932 0.1932);fill-opacity:1;"/>
<defs>
<filter id="filter0_d_652_18338" x="177.279" y="339.823" width="142.766" height="39.9014" filterUnits="userSpaceOnUse" color-interpolation-filters="sRGB">
<feFlood flood-opacity="0" result="BackgroundImageFix"/>
<feColorMatrix in="SourceAlpha" type="matrix" values="0 0 0 0 0 0 0 0 0 0 0 0 0 0 0 0 0 0 127 0" result="hardAlpha"/>
<feOffset dy="4"/>
<feGaussianBlur stdDeviation="2"/>
<feComposite in2="hardAlpha" operator="out"/>
<feColorMatrix type="matrix" values="0 0 0 0 0 0 0 0 0 0 0 0 0 0 0 0 0 0 0.25 0"/>
<feBlend mode="normal" in2="BackgroundImageFix" result="effect1_dropShadow_652_18338"/>
<feBlend mode="normal" in="SourceGraphic" in2="effect1_dropShadow_652_18338" result="shape"/>
</filter>
</defs>
</svg>
