<svg width="510" height="580" viewBox="0 0 510 580" fill="none" xmlns="http://www.w3.org/2000/svg">
<circle cx="253.5" cy="364.5" r="9.5" fill="white" style="fill:white;fill-opacity:1;"/>
<circle cx="253.5" cy="396.5" r="9.5" fill="white" style="fill:white;fill-opacity:1;"/>
<path d="M120.595 342.502C117.893 347.238 118.22 349.359 122.463 351.731" stroke="white" style="stroke:white;stroke-opacity:1;" stroke-width="5" stroke-linecap="round"/>
<path d="M123.34 352.246C120.638 356.983 120.965 359.103 125.208 361.475" stroke="white" style="stroke:white;stroke-opacity:1;" stroke-width="5" stroke-linecap="round"/>
<path d="M126.442 362.063C123.74 366.8 124.067 368.921 128.31 371.293" stroke="white" style="stroke:white;stroke-opacity:1;" stroke-width="5" stroke-linecap="round"/>
<path d="M128.564 371.681C125.863 376.417 126.19 378.538 130.433 380.91" stroke="white" style="stroke:white;stroke-opacity:1;" stroke-width="5" stroke-linecap="round"/>
<path d="M131.667 381.498C128.965 386.235 129.292 388.355 133.535 390.727" stroke="white" style="stroke:white;stroke-opacity:1;" stroke-width="5" stroke-linecap="round"/>
<path d="M186.105 532.033C190.009 535.841 192.143 536.059 195.508 532.55" stroke="white" style="stroke:white;stroke-opacity:1;" stroke-width="5" stroke-linecap="round"/>
<path d="M196.227 531.831C200.13 535.639 202.265 535.856 205.629 532.348" stroke="white" style="stroke:white;stroke-opacity:1;" stroke-width="5" stroke-linecap="round"/>
<path d="M206.509 531.303C210.412 535.111 212.547 535.328 215.911 531.82" stroke="white" style="stroke:white;stroke-opacity:1;" stroke-width="5" stroke-linecap="round"/>
<path d="M216.351 531.672C220.254 535.48 222.389 535.697 225.753 532.189" stroke="white" style="stroke:white;stroke-opacity:1;" stroke-width="5" stroke-linecap="round"/>
<path d="M226.633 531.143C230.536 534.951 232.671 535.168 236.036 531.66" stroke="white" style="stroke:white;stroke-opacity:1;" stroke-width="5" stroke-linecap="round"/>
<path d="M276.105 532.033C280.009 535.841 282.143 536.059 285.508 532.55" stroke="white" style="stroke:white;stroke-opacity:1;" stroke-width="5" stroke-linecap="round"/>
<path d="M286.227 531.831C290.13 535.639 292.265 535.856 295.629 532.348" stroke="white" style="stroke:white;stroke-opacity:1;" stroke-width="5" stroke-linecap="round"/>
<path d="M296.509 531.303C300.412 535.111 302.547 535.328 305.911 531.82" stroke="white" style="stroke:white;stroke-opacity:1;" stroke-width="5" stroke-linecap="round"/>
<path d="M306.351 531.672C310.254 535.48 312.389 535.697 315.753 532.189" stroke="white" style="stroke:white;stroke-opacity:1;" stroke-width="5" stroke-linecap="round"/>
<path d="M316.633 531.143C320.536 534.951 322.671 535.168 326.036 531.66" stroke="white" style="stroke:white;stroke-opacity:1;" stroke-width="5" stroke-linecap="round"/>
<path d="M389.882 343.497C392.529 348.041 392.193 350.085 387.98 352.393" stroke="white" style="stroke:white;stroke-opacity:1;" stroke-width="5" stroke-linecap="round"/>
<path d="M387.109 352.894C389.756 357.438 389.42 359.481 385.206 361.789" stroke="white" style="stroke:white;stroke-opacity:1;" stroke-width="5" stroke-linecap="round"/>
<path d="M383.982 362.362C386.629 366.906 386.293 368.95 382.079 371.258" stroke="white" style="stroke:white;stroke-opacity:1;" stroke-width="5" stroke-linecap="round"/>
<path d="M381.826 371.633C384.473 376.177 384.136 378.22 379.923 380.528" stroke="white" style="stroke:white;stroke-opacity:1;" stroke-width="5" stroke-linecap="round"/>
<path d="M378.699 381.102C381.346 385.646 381.01 387.689 376.796 389.997" stroke="white" style="stroke:white;stroke-opacity:1;" stroke-width="5" stroke-linecap="round"/>
</svg>
