<svg width="510" height="580" viewBox="0 0 510 580" fill="none" xmlns="http://www.w3.org/2000/svg">
<path d="M225.055 484.367C219.678 485.6 214.196 482.658 212.395 477.444C196.25 430.711 195.378 396.771 207.302 343.842C208.347 339.202 212.32 335.798 217.061 335.414L233.716 334.063C240.547 333.509 246.207 339.282 245.637 346.111C241.701 393.331 242.929 425.821 250.784 467.413C251.895 473.294 248.216 479.055 242.383 480.393L225.055 484.367Z" fill="#499E2E" style="fill:#499E2E;fill:color(display-p3 0.2871 0.6202 0.1819);fill-opacity:1;"/>
<path d="M217.061 335.414L233.716 334.063C240.547 333.509 246.207 339.277 245.638 346.106C241.701 393.328 242.929 425.819 250.784 467.412C251.894 473.293 248.216 479.055 242.383 480.393L225.055 484.367C219.678 485.6 214.197 482.662 212.396 477.448C196.25 430.713 195.377 396.773 207.302 343.842C208.347 339.202 212.32 335.798 217.061 335.414Z" fill="#499E2E" style="fill:#499E2E;fill:color(display-p3 0.2871 0.6202 0.1819);fill-opacity:1;"/>
<path d="M214.365 483.458L251.189 473.344C252.871 480.019 250.084 482.253 251.176 488.581C251.414 489.96 250.842 491.395 249.604 492.046C239.27 497.473 235.84 497.202 223.459 494.894C222.509 494.717 221.71 494.08 221.248 493.23C218.703 488.549 216.565 488.663 214.365 483.458Z" fill="#45673B" style="fill:#45673B;fill:color(display-p3 0.2725 0.4038 0.2310);fill-opacity:1;"/>
<path d="M214.365 483.458L251.189 473.344C252.096 476.944 253.309 483.8 254.32 487.566C256.067 494.075 251.447 497.496 244.759 498.326L230.182 500.136C225.448 500.724 220.856 498.182 218.898 493.832C217.305 490.295 215.795 486.841 214.365 483.458Z" fill="#45673B" style="fill:#45673B;fill:color(display-p3 0.2725 0.4038 0.2310);fill-opacity:1;"/>
<path d="M201.684 394.976C200.517 395.004 199.573 394.031 199.649 392.866C200.226 384.061 201.358 374.925 203.026 365.2C203.184 364.276 203.967 363.589 204.903 363.548L242.268 361.882C243.455 361.829 244.426 362.818 244.357 364.004C243.783 373.836 243.479 383.082 243.463 392.013C243.461 393.102 242.594 393.992 241.506 394.019L201.684 394.976Z" fill="#45673B" style="fill:#45673B;fill:color(display-p3 0.2725 0.4038 0.2310);fill-opacity:1;"/>
<path d="M202.429 427.307C201.324 427.447 200.317 426.658 200.202 425.551C199.216 416.11 198.967 406.675 199.425 396.872C199.473 395.83 200.323 395.008 201.366 394.983L241.422 394.02C242.542 393.993 243.466 394.893 243.475 396.014C243.539 404.198 243.852 412.146 244.426 420.074C244.503 421.138 243.736 422.079 242.678 422.213L202.429 427.307Z" fill="#499E2E" style="fill:#499E2E;fill:color(display-p3 0.2871 0.6202 0.1819);fill-opacity:1;"/>
<path d="M208.804 459.741C207.77 459.964 206.74 459.343 206.463 458.322C203.774 448.42 201.849 438.944 200.66 429.524C200.523 428.437 201.298 427.449 202.386 427.312L242.486 422.237C243.62 422.093 244.642 422.927 244.737 424.065C245.435 432.419 246.424 440.789 247.722 449.427C247.879 450.474 247.198 451.465 246.163 451.688L208.804 459.741Z" fill="#45673B" style="fill:#45673B;fill:color(display-p3 0.2725 0.4038 0.2310);fill-opacity:1;"/>
<path d="M217.094 485.011C216.084 485.313 215.012 484.778 214.65 483.788C211.906 476.278 209.54 469.116 207.542 462.182C207.223 461.075 207.913 459.934 209.039 459.691L245.932 451.738C247.057 451.496 248.153 452.251 248.335 453.387C249.333 459.65 250.492 466.07 251.816 472.741C252.017 473.755 251.416 474.757 250.426 475.053L217.094 485.011Z" fill="#499E2E" style="fill:#499E2E;fill:color(display-p3 0.2871 0.6202 0.1819);fill-opacity:1;"/>
<path d="M321.112 353.934C321.906 359.393 318.531 364.619 313.188 365.993C265.303 378.307 231.404 376.433 179.612 360.269C175.071 358.851 172 354.616 172 349.86V333.15C172 326.297 178.212 321.123 184.973 322.242C231.719 329.983 264.202 331.385 306.293 326.918C312.244 326.287 317.689 330.419 318.551 336.341L321.112 353.934Z" fill="#499E2E" style="fill:#499E2E;fill:color(display-p3 0.2871 0.6202 0.1819);fill-opacity:1;"/>
<path d="M172 349.86V333.15C172 326.297 178.206 321.122 184.967 322.241C231.716 329.983 264.2 331.385 306.293 326.918C312.244 326.287 317.689 330.419 318.551 336.341L321.112 353.934C321.906 359.393 318.535 364.618 313.192 365.992C265.305 378.307 231.405 376.433 179.611 360.268C175.071 358.851 172 354.616 172 349.86Z" fill="#499E2E" style="fill:#499E2E;fill:color(display-p3 0.2871 0.6202 0.1819);fill-opacity:1;"/>
<path d="M319.341 364.515L312.237 326.995C319.027 325.858 321.028 328.817 327.424 328.239C328.817 328.113 330.202 328.8 330.75 330.087C335.324 340.825 334.777 344.222 331.475 356.376C331.222 357.309 330.522 358.054 329.638 358.445C324.766 360.604 324.707 362.744 319.341 364.515Z" fill="#45673B" style="fill:#45673B;fill:color(display-p3 0.2725 0.4038 0.2310);fill-opacity:1;"/>
<path d="M319.341 364.515L312.237 326.995C315.899 326.382 322.83 325.726 326.666 325.023C333.295 323.809 336.331 328.69 336.618 335.423L337.244 350.099C337.447 354.865 334.542 359.236 330.048 360.836C326.394 362.138 322.829 363.364 319.341 364.515Z" fill="#45673B" style="fill:#45673B;fill:color(display-p3 0.2725 0.4038 0.2310);fill-opacity:1;"/>
<path d="M230.123 370.001C230.057 371.167 229.011 372.029 227.856 371.858C219.126 370.572 210.112 368.705 200.553 366.256C199.646 366.024 199.024 365.188 199.058 364.252L200.419 326.875C200.462 325.687 201.526 324.799 202.703 324.964C212.456 326.331 221.648 327.381 230.548 328.12C231.633 328.21 232.451 329.146 232.389 330.232L230.123 370.001Z" fill="#45673B" style="fill:#45673B;fill:color(display-p3 0.2725 0.4038 0.2310);fill-opacity:1;"/>
<path d="M262.409 371.873C262.459 372.985 261.592 373.925 260.479 373.951C250.989 374.17 241.564 373.656 231.831 372.407C230.797 372.274 230.046 371.361 230.105 370.32L232.384 330.317C232.448 329.197 233.419 328.35 234.537 328.432C242.699 329.029 250.647 329.36 258.595 329.429C259.661 329.438 260.538 330.278 260.586 331.344L262.409 371.873Z" fill="#499E2E" style="fill:#499E2E;fill:color(display-p3 0.2871 0.6202 0.1819);fill-opacity:1;"/>
<path d="M295.253 368.142C295.392 369.191 294.69 370.167 293.65 370.361C283.563 372.24 273.962 373.392 264.477 373.816C263.382 373.864 262.46 373.012 262.411 371.917L260.594 331.538C260.543 330.396 261.457 329.445 262.599 329.442C270.982 329.422 279.405 329.112 288.119 328.517C289.175 328.445 290.108 329.204 290.247 330.254L295.253 368.142Z" fill="#45673B" style="fill:#45673B;fill:color(display-p3 0.2725 0.4038 0.2310);fill-opacity:1;"/>
<path d="M321.11 361.92C321.329 362.951 320.71 363.976 319.693 364.257C311.986 366.385 304.657 368.164 297.583 369.595C296.454 369.824 295.373 369.044 295.222 367.902L290.278 330.487C290.127 329.346 290.968 328.314 292.115 328.225C298.439 327.736 304.931 327.1 311.687 326.32C312.714 326.201 313.664 326.881 313.879 327.893L321.11 361.92Z" fill="#499E2E" style="fill:#499E2E;fill:color(display-p3 0.2871 0.6202 0.1819);fill-opacity:1;"/>
</svg>
