<svg width="510" height="580" viewBox="0 0 510 580" fill="none" xmlns="http://www.w3.org/2000/svg">
<path d="M146 347.303C146 338.179 138.77 331 129.862 331C122.668 331 116.583 335.93 114.498 342.592C112.412 335.931 106.327 331.172 99.133 331.172C90.2226 331.172 81 340.437 81 347.303C81 354.17 85.9019 359.615 87.6152 362.615C92.6133 370.615 103.712 377.45 114.513 386C127.419 376.434 136.115 371.046 143.615 359.115C146.052 355.24 146 350.115 146 347.303Z" fill="#460404" style="fill:#460404;fill:color(display-p3 0.2740 0.0145 0.0145);fill-opacity:1;"/>
<path d="M429 347.303C429 338.179 421.77 331 412.862 331C405.668 331 399.583 335.93 397.498 342.592C395.412 335.931 389.327 331.172 382.133 331.172C373.223 331.172 364 340.437 364 347.303C364 354.17 368.902 359.615 370.615 362.615C375.613 370.615 386.712 377.45 397.513 386C410.419 376.434 419.115 371.046 426.615 359.115C429.052 355.24 429 350.115 429 347.303Z" fill="#460404" style="fill:#460404;fill:color(display-p3 0.2740 0.0145 0.0145);fill-opacity:1;"/>
<path d="M143 350.303C143 341.179 135.77 334 126.862 334C119.668 334 113.583 338.93 111.498 345.592C109.412 338.931 103.327 334.172 96.133 334.172C87.2226 334.172 80 343.407 80 350.274C80 357.14 82.9019 362.615 84.6152 365.615C89.6133 373.615 101.699 379.45 112.5 388C125.406 378.434 133.115 374.046 140.615 362.115C143.052 358.24 143 353.115 143 350.303Z" fill="#EB5757" style="fill:#EB5757;fill:color(display-p3 0.9216 0.3412 0.3412);fill-opacity:1;"/>
<path d="M426 350.303C426 341.179 418.77 334 409.862 334C402.668 334 396.583 338.93 394.498 345.592C392.412 338.931 386.327 334.172 379.133 334.172C370.223 334.172 363 343.407 363 350.274C363 357.14 365.902 362.615 367.615 365.615C372.613 373.615 384.699 379.45 395.5 388C408.406 378.434 416.115 374.046 423.615 362.115C426.052 358.24 426 353.115 426 350.303Z" fill="#EB5757" style="fill:#EB5757;fill:color(display-p3 0.9216 0.3412 0.3412);fill-opacity:1;"/>
</svg>
