<svg width="510" height="580" viewBox="0 0 510 580" fill="none" xmlns="http://www.w3.org/2000/svg">
<path d="M322.677 383.475C329.932 385.172 337.563 386.746 345.452 388.194C375.382 393.688 392.524 394.259 402.269 389.95C400.441 452.422 380.892 487.442 332.58 494.891C333.134 469.764 332.595 442.005 329.329 420.253C327.979 408.302 325.793 395.748 322.677 383.475ZM338.907 305.3C367.335 308.745 388.705 318.435 397.716 345.655C390.154 342.043 379.598 338.836 365.238 335.802C344.75 348.365 309.297 379.467 300.915 423.903C298.691 426.946 292.413 434.403 285.415 429.903C284.875 383.117 298.848 363.389 319.914 314.402C324.486 308.056 330.84 306.23 337.715 306.959C338.119 306.41 338.516 305.857 338.907 305.3Z" fill="#E83B40" style="fill:#E83B40;fill:color(display-p3 0.9098 0.2314 0.2510);fill-opacity:1;"/>
</svg>
