<svg width="510" height="580" viewBox="0 0 510 580" fill="none" xmlns="http://www.w3.org/2000/svg">
<rect x="92" y="301" width="163" height="115" rx="6" fill="#302E31" style="fill:#302E31;fill:color(display-p3 0.1882 0.1804 0.1922);fill-opacity:1;"/>
<path d="M180.5 361.516C181.759 364.272 183.4 363.956 183 365.016C182.337 368.907 180.5 373.016 174 370.516C167.5 373.016 164 367.538 164 362.015C164 356.493 164 351.516 174 353.515C178.5 352.182 181.82 353.684 182.5 355.016C179 359.016 180.5 361.516 180.5 361.516Z" fill="#141315" style="fill:#141315;fill:color(display-p3 0.0799 0.0762 0.0817);fill-opacity:1;"/>
<path d="M177 350.516C176.182 351.957 173.984 352.787 173.503 352.515C173.023 352.242 173.682 350.457 174.5 349.016C175.317 347.575 177.521 346.743 178.002 347.016C178.482 347.288 177.818 349.075 177 350.516Z" fill="#141315" style="fill:#141315;fill:color(display-p3 0.0799 0.0762 0.0817);fill-opacity:1;"/>
<path d="M170.246 350.516C171.064 351.957 173.262 352.787 173.743 352.515C174.223 352.242 173.564 350.457 172.746 349.016C171.929 347.575 169.725 346.743 169.244 347.016C168.764 347.288 169.429 349.075 170.246 350.516Z" fill="#141315" style="fill:#141315;fill:color(display-p3 0.0799 0.0762 0.0817);fill-opacity:1;"/>
</svg>
