<svg width="510" height="580" viewBox="0 0 510 580" fill="none" xmlns="http://www.w3.org/2000/svg">
<path d="M184 359.056C218.848 341.193 226.175 334.169 235.5 322.556L247 343.556C250 360.056 225.017 360.165 208.5 385.556C203.247 377.691 206.506 367.285 208.5 362.056C206.278 362.157 195.562 364.486 184 359.056Z" fill="#F25873" style="fill:#F25873;fill:color(display-p3 0.9471 0.3461 0.4517);fill-opacity:1;"/>
<path d="M210.999 317.556C231.99 317.948 238.082 321.086 249.499 329.056L249.499 342.056C238.166 352.101 229.784 356.152 209.999 359.556C208.438 342.62 205.25 332.492 210.999 317.556Z" fill="#F8647E" style="fill:#F8647E;fill:color(display-p3 0.9725 0.3922 0.4941);fill-opacity:1;"/>
<path d="M217 344.554C220.5 343.055 228.334 341.141 249.498 340.054L249.498 342.054C238.165 352.099 229.786 356.15 210.001 359.554C208.579 351.449 212.5 347.554 217 344.554Z" fill="#7E2953" style="fill:#7E2953;fill:color(display-p3 0.4941 0.1608 0.3255);fill-opacity:1;"/>
<path d="M239.381 333.171C240.524 333.632 242.584 334.221 249.498 334.556V333.556C245.795 330.465 241.463 329.603 235 328.556C234.535 331.049 237.911 332.248 239.381 333.171Z" fill="#7E2953" style="fill:#7E2953;fill:color(display-p3 0.4941 0.1608 0.3255);fill-opacity:1;"/>
<path d="M326.499 359.056C291.651 341.193 284.324 334.169 274.999 322.556L263.499 343.556C260.499 360.056 285.482 360.165 301.999 385.556C307.252 377.691 303.993 367.285 301.999 362.056C304.221 362.157 314.938 364.486 326.499 359.056Z" fill="#F25873" style="fill:#F25873;fill:color(display-p3 0.9471 0.3461 0.4517);fill-opacity:1;"/>
<path d="M299.5 317.556C278.509 317.948 272.417 321.086 261 329.056L261 342.056C272.333 352.101 280.715 356.152 300.5 359.556C302.061 342.62 305.249 332.492 299.5 317.556Z" fill="#F8647E" style="fill:#F8647E;fill:color(display-p3 0.9725 0.3922 0.4941);fill-opacity:1;"/>
<path d="M293.499 344.554C289.999 343.055 282.165 341.141 261.001 340.054L261.001 342.054C272.334 352.099 280.713 356.15 300.498 359.554C301.92 351.449 297.999 347.554 293.499 344.554Z" fill="#7E2953" style="fill:#7E2953;fill:color(display-p3 0.4941 0.1608 0.3255);fill-opacity:1;"/>
<path d="M271.118 333.171C269.975 333.632 267.915 334.221 261.001 334.556V333.556C264.704 330.465 269.036 329.603 275.499 328.556C275.964 331.049 272.588 332.248 271.118 333.171Z" fill="#7E2953" style="fill:#7E2953;fill:color(display-p3 0.4941 0.1608 0.3255);fill-opacity:1;"/>
<path d="M248.48 329.882C248.587 329.079 249.18 328.422 249.972 328.252C253.825 327.42 256.465 327.492 260.309 328.266C261.128 328.43 261.746 329.105 261.846 329.934C262.46 334.992 262.361 338.273 261.828 343.146C261.736 343.99 261.114 344.684 260.282 344.852C256.458 345.621 253.834 345.689 249.998 344.864C249.193 344.691 248.596 344.017 248.495 343.199C247.92 338.524 247.76 335.302 248.48 329.882Z" fill="#F8647E" style="fill:#F8647E;fill:color(display-p3 0.9725 0.3922 0.4941);fill-opacity:1;"/>
<path d="M254.787 327.757C254.817 327.488 255.183 327.488 255.213 327.757L255.465 330.011C256 335.056 256 335.056 260.689 335.561L262.81 335.829C263.063 335.861 263.063 336.251 262.81 336.283L260.689 336.55C255.465 337.556 256 336.556 255.465 341.755L255.213 344.354C255.183 344.623 254.817 344.623 254.787 344.354L254.576 341.755C254.273 336.283 253 337.056 249.352 336.205L247.19 336.283C246.937 336.251 246.937 335.861 247.19 335.829L249.311 335.561C253.5 335.056 254 335.056 254.535 330.011L254.787 327.757Z" fill="#FFE2B3" style="fill:#FFE2B3;fill:color(display-p3 1.0000 0.8863 0.7020);fill-opacity:1;"/>
</svg>
