<svg width="510" height="580" viewBox="0 0 510 580" fill="none" xmlns="http://www.w3.org/2000/svg">
<rect x="96" y="302" width="163" height="115" rx="6" fill="#686B77" style="fill:#686B77;fill:color(display-p3 0.4081 0.4197 0.4663);fill-opacity:1;"/>
<path d="M109.568 361.744C109.28 361.824 108.955 361.864 108.592 361.864C108.229 361.864 107.872 361.813 107.52 361.712C107.419 361.68 107.304 361.635 107.176 361.576C107.053 361.512 106.928 361.44 106.8 361.36C106.672 361.28 106.547 361.195 106.424 361.104C106.307 361.008 106.205 360.909 106.12 360.808L107.064 359.784C107.464 360.067 107.819 360.267 108.128 360.384C108.443 360.501 108.715 360.531 108.944 360.472C109.045 360.451 109.125 360.408 109.184 360.344C109.248 360.275 109.288 360.197 109.304 360.112C109.32 360.032 109.309 359.952 109.272 359.872C109.235 359.787 109.173 359.715 109.088 359.656C108.981 359.587 108.875 359.528 108.768 359.48C108.667 359.427 108.555 359.373 108.432 359.32C108.309 359.272 108.176 359.216 108.032 359.152C107.888 359.083 107.728 359 107.552 358.904C107.04 358.621 106.715 358.285 106.576 357.896C106.437 357.507 106.456 357.139 106.632 356.792C106.808 356.413 107.077 356.125 107.44 355.928C107.808 355.731 108.221 355.632 108.68 355.632C109.128 355.632 109.536 355.712 109.904 355.872C110.277 356.032 110.595 356.251 110.856 356.528L109.928 357.56C109.731 357.395 109.501 357.259 109.24 357.152C108.984 357.04 108.76 356.984 108.568 356.984C108.456 356.984 108.355 357.019 108.264 357.088C108.173 357.152 108.128 357.248 108.128 357.376C108.128 357.504 108.216 357.632 108.392 357.76C108.568 357.883 108.872 358.048 109.304 358.256C109.848 358.507 110.235 358.76 110.464 359.016C110.699 359.272 110.837 359.549 110.88 359.848C110.949 360.28 110.872 360.669 110.648 361.016C110.424 361.363 110.064 361.605 109.568 361.744ZM114.716 361.744C114.428 361.824 114.103 361.864 113.74 361.864C113.378 361.864 113.02 361.813 112.668 361.712C112.567 361.68 112.452 361.635 112.324 361.576C112.202 361.512 112.076 361.44 111.948 361.36C111.82 361.28 111.695 361.195 111.572 361.104C111.455 361.008 111.354 360.909 111.268 360.808L112.212 359.784C112.612 360.067 112.967 360.267 113.276 360.384C113.591 360.501 113.863 360.531 114.092 360.472C114.194 360.451 114.274 360.408 114.332 360.344C114.396 360.275 114.436 360.197 114.452 360.112C114.468 360.032 114.458 359.952 114.42 359.872C114.383 359.787 114.322 359.715 114.236 359.656C114.13 359.587 114.023 359.528 113.916 359.48C113.815 359.427 113.703 359.373 113.58 359.32C113.458 359.272 113.324 359.216 113.18 359.152C113.036 359.083 112.876 359 112.7 358.904C112.188 358.621 111.863 358.285 111.724 357.896C111.586 357.507 111.604 357.139 111.78 356.792C111.956 356.413 112.226 356.125 112.588 355.928C112.956 355.731 113.37 355.632 113.828 355.632C114.276 355.632 114.684 355.712 115.052 355.872C115.426 356.032 115.743 356.251 116.004 356.528L115.076 357.56C114.879 357.395 114.65 357.259 114.388 357.152C114.132 357.04 113.908 356.984 113.716 356.984C113.604 356.984 113.503 357.019 113.412 357.088C113.322 357.152 113.276 357.248 113.276 357.376C113.276 357.504 113.364 357.632 113.54 357.76C113.716 357.883 114.02 358.048 114.452 358.256C114.996 358.507 115.383 358.76 115.612 359.016C115.847 359.272 115.986 359.549 116.028 359.848C116.098 360.28 116.02 360.669 115.796 361.016C115.572 361.363 115.212 361.605 114.716 361.744ZM122.057 361.712H120.505L120.081 360.632H118.273L117.881 361.712H116.337L118.537 355.776H119.793L122.057 361.712ZM119.193 357.512L118.657 359.352H119.697L119.193 357.512ZM124.91 361.712L123.838 357.864H123.798L123.766 361.712H122.302L122.67 355.776H124.31L125.566 359.896H125.606L126.87 355.776H128.51L128.878 361.712H127.414L127.382 357.864H127.342L126.27 361.712H124.91ZM132.654 361.744C132.366 361.824 132.041 361.864 131.678 361.864C131.315 361.864 130.958 361.813 130.606 361.712C130.505 361.68 130.39 361.635 130.262 361.576C130.139 361.512 130.014 361.44 129.886 361.36C129.758 361.28 129.633 361.195 129.51 361.104C129.393 361.008 129.291 360.909 129.206 360.808L130.15 359.784C130.55 360.067 130.905 360.267 131.214 360.384C131.529 360.501 131.801 360.531 132.03 360.472C132.131 360.451 132.211 360.408 132.27 360.344C132.334 360.275 132.374 360.197 132.39 360.112C132.406 360.032 132.395 359.952 132.358 359.872C132.321 359.787 132.259 359.715 132.174 359.656C132.067 359.587 131.961 359.528 131.854 359.48C131.753 359.427 131.641 359.373 131.518 359.32C131.395 359.272 131.262 359.216 131.118 359.152C130.974 359.083 130.814 359 130.638 358.904C130.126 358.621 129.801 358.285 129.662 357.896C129.523 357.507 129.542 357.139 129.718 356.792C129.894 356.413 130.163 356.125 130.526 355.928C130.894 355.731 131.307 355.632 131.766 355.632C132.214 355.632 132.622 355.712 132.99 355.872C133.363 356.032 133.681 356.251 133.942 356.528L133.014 357.56C132.817 357.395 132.587 357.259 132.326 357.152C132.07 357.04 131.846 356.984 131.654 356.984C131.542 356.984 131.441 357.019 131.35 357.088C131.259 357.152 131.214 357.248 131.214 357.376C131.214 357.504 131.302 357.632 131.478 357.76C131.654 357.883 131.958 358.048 132.39 358.256C132.934 358.507 133.321 358.76 133.55 359.016C133.785 359.272 133.923 359.549 133.966 359.848C134.035 360.28 133.958 360.669 133.734 361.016C133.51 361.363 133.15 361.605 132.654 361.744ZM136.978 360.568C137.234 360.568 137.456 360.491 137.642 360.336C137.834 360.176 137.93 359.928 137.93 359.592V355.776H139.354V359.712C139.354 360.064 139.296 360.376 139.178 360.648C139.061 360.915 138.898 361.141 138.69 361.328C138.482 361.509 138.232 361.648 137.938 361.744C137.65 361.84 137.33 361.888 136.978 361.888C136.626 361.888 136.306 361.84 136.018 361.744C135.73 361.648 135.482 361.509 135.274 361.328C135.072 361.141 134.914 360.915 134.802 360.648C134.69 360.376 134.634 360.064 134.634 359.712V355.776H136.058V359.592C136.058 359.928 136.146 360.176 136.322 360.336C136.504 360.491 136.722 360.568 136.978 360.568ZM141.574 358.024V361.712H140.166V355.776H141.55L143.638 359.344V355.776H145.046V361.712H143.734L141.574 358.024ZM149.093 360.344C149.194 360.275 149.277 360.163 149.341 360.008C149.405 359.853 149.437 359.696 149.437 359.536H148.213V358.312H150.925V358.896C150.914 359.077 150.904 359.251 150.893 359.416C150.882 359.581 150.864 359.741 150.837 359.896C150.816 360.051 150.778 360.2 150.725 360.344C150.677 360.488 150.608 360.632 150.517 360.776C150.325 361.101 150.093 361.344 149.821 361.504C149.549 361.664 149.274 361.771 148.997 361.824C148.842 361.856 148.674 361.875 148.493 361.88C148.312 361.885 148.13 361.877 147.949 361.856C147.762 361.829 147.584 361.792 147.413 361.744C147.242 361.691 147.09 361.624 146.957 361.544C146.52 361.272 146.192 360.907 145.973 360.448C145.76 359.989 145.653 359.424 145.653 358.752C145.653 358.091 145.773 357.531 146.013 357.072C146.253 356.608 146.592 356.24 147.029 355.968C147.157 355.888 147.304 355.824 147.469 355.776C147.634 355.723 147.805 355.685 147.981 355.664C148.157 355.643 148.333 355.635 148.509 355.64C148.685 355.64 148.85 355.656 149.005 355.688C149.261 355.741 149.514 355.845 149.765 356C150.021 356.155 150.288 356.381 150.565 356.68L149.701 357.576C149.434 357.288 149.162 357.101 148.885 357.016C148.608 356.931 148.333 356.933 148.061 357.024C147.725 357.136 147.472 357.339 147.301 357.632C147.13 357.925 147.045 358.299 147.045 358.752C147.045 359.216 147.133 359.605 147.309 359.92C147.485 360.229 147.717 360.424 148.005 360.504C148.165 360.552 148.346 360.565 148.549 360.544C148.757 360.523 148.938 360.456 149.093 360.344Z" fill="white" style="fill:white;fill-opacity:1;"/>
</svg>
