<svg width="510" height="580" viewBox="0 0 510 580" fill="none" xmlns="http://www.w3.org/2000/svg">
<path d="M125.25 339.292L134.649 393.391C112.098 398.808 112.12 385.776 109.683 371.358C107.257 357 100.274 345.428 125.25 339.292Z" fill="url(#paint0_linear_660_18722)" style=""/>
<path d="M190.999 351.9C194.274 371.285 215.212 379.261 163.813 388.696C147.182 391.749 122.89 398.738 124.499 394.4L114.999 343.4C113.499 334.9 137.719 335.48 154.499 332.4C205.897 322.965 187.723 332.514 190.999 351.9Z" fill="black" style="fill:black;fill-opacity:1;"/>
<path d="M377.576 338.288L368.465 390.81C392.504 398.31 388.177 391.28 392.499 370.4C395.789 345.695 399.436 343.486 377.576 338.288Z" fill="url(#paint1_linear_660_18722)" style=""/>
<path d="M311.848 350.9C308.573 370.285 287.635 378.261 339.034 387.696C355.665 390.749 379.957 397.738 378.348 393.4L387.848 342.4C389.348 333.9 365.128 334.48 348.348 331.4C296.95 321.965 315.124 331.514 311.848 350.9Z" fill="black" style="fill:black;fill-opacity:1;"/>
<path d="M186.999 328.899C243.495 350.092 264.287 350.185 313.999 328.899C313.999 328.899 347.57 430.339 333.499 445.091C319.429 459.842 185.721 453.724 172.749 444.091C159.777 434.457 186.999 328.899 186.999 328.899Z" fill="black" style="fill:black;fill-opacity:1;"/>
<circle cx="230.999" cy="349.899" r="4" fill="#07A4BF" style="fill:#07A4BF;fill:color(display-p3 0.0288 0.6418 0.7500);fill-opacity:1;"/>
<path d="M230.479 350.9C220.609 367.256 226.108 387.636 225.999 403.9" stroke="#14DCFF" style="stroke:#14DCFF;stroke:color(display-p3 0.0784 0.8627 1.0000);stroke-opacity:1;" stroke-width="4" stroke-linecap="round"/>
<path d="M220.361 408.686C219.815 412.434 222.726 411.156 225.348 411.473C227.97 411.791 229.311 413.584 229.857 409.836C230.404 406.088 228.721 402.792 226.099 402.475C223.477 402.157 220.908 404.938 220.361 408.686Z" fill="#14DCFF" style="fill:#14DCFF;fill:color(display-p3 0.0784 0.8627 1.0000);fill-opacity:1;"/>
<circle cx="4" cy="4" r="4" transform="matrix(-1 0 0 1 264.861 345.899)" fill="#07A4BF" style="fill:#07A4BF;fill:color(display-p3 0.0288 0.6418 0.7500);fill-opacity:1;"/>
<path d="M261.381 350.898C267.313 352.894 265.65 386.832 268.999 414.9" stroke="#14DCFF" style="stroke:#14DCFF;stroke:color(display-p3 0.0784 0.8627 1.0000);stroke-opacity:1;" stroke-width="4" stroke-linecap="round"/>
<path d="M274.484 419.686C275.031 423.434 272.12 422.156 269.498 422.473C266.876 422.791 265.535 424.584 264.989 420.836C264.442 417.088 266.125 413.792 268.747 413.475C271.369 413.157 273.938 415.938 274.484 419.686Z" fill="#14DCFF" style="fill:#14DCFF;fill:color(display-p3 0.0784 0.8627 1.0000);fill-opacity:1;"/>
<path d="M276.871 366.527V366.011H276.295V365.471H275.731V364.919H275.239V362.567H275.731V362.003H276.295V361.427H276.871V360.899H281.131V361.355H281.683V362.747H281.131V363.239H278.191V363.575H277.699V363.923H278.191V364.271H280.231V364.787H280.807V365.327H281.359V365.879H281.863V368.219H281.359V368.795H280.807V369.371H280.231V369.899H275.995V369.443H275.455V368.051H275.995V367.559H278.911V367.223H279.403V366.863H278.911V366.527H276.871ZM284.066 366.527V366.011H283.49V365.471H282.926V364.919H282.434V362.567H282.926V362.003H283.49V361.427H284.066V360.899H288.326V361.355H288.878V362.747H288.326V363.239H285.386V363.575H284.894V363.923H285.386V364.271H287.426V364.787H288.002V365.327H288.554V365.879H289.058V368.219H288.554V368.795H288.002V369.371H287.426V369.899H283.19V369.443H282.65V368.051H283.19V367.559H286.106V367.223H286.598V366.863H286.106V366.527H284.066ZM294.682 365.159V364.403H294.19V363.683H293.71V363.107H293.05V363.683H292.57V364.403H292.078V365.159H294.682ZM294.682 367.271H292.078V369.407H291.586V369.899H290.266V369.407H289.75V363.563H290.266V362.819H290.758V362.111H291.238V361.403H291.73V360.899H295.03V361.403H295.522V362.111H296.002V362.819H296.494V363.563H297.022V369.407H296.518V369.899H295.21V369.407H294.682V367.271ZM300.258 364.403H303.522V364.919H304.038V366.239H303.522V366.755H300.258V369.383H299.742V369.899H298.422V369.383H297.906V361.415H298.422V360.899H303.762V361.415H304.278V362.723H303.762V363.239H300.258V364.403ZM308.803 363.059V362.507H309.283V361.931H309.775V361.403H310.267V360.899H311.707V361.403H312.163V362.939H311.707V363.515H311.215V364.055H310.735V364.595H310.267V365.195H309.727V369.503H309.331V369.899H307.579V369.503H307.183V365.195H306.643V364.595H306.175V364.055H305.695V363.515H305.203V362.939H304.747V361.403H305.203V360.899H306.643V361.403H307.135V361.931H307.627V362.507H308.107V363.059H308.803Z" fill="white" style="fill:white;fill-opacity:1;"/>
<path d="M156.798 290.73C147.341 295.642 141.999 301.821 141.999 307.899C141.999 316.74 155.521 325.798 175.834 330.851C180.41 330.316 184.859 329.889 189.15 329.58C174.777 319.76 163.515 306.49 156.798 290.73Z" fill="#4F4C4C" style="fill:#4F4C4C;fill:color(display-p3 0.3082 0.2963 0.2963);fill-opacity:1;"/>
<path d="M153.845 280.999C142.432 283.905 133.934 290.333 129.517 303.399C129.517 313.991 139.77 325.358 156.741 333.67C163.472 332.534 170.034 331.588 176.351 330.85C156.038 325.797 142.517 316.74 142.517 307.899C142.517 301.821 147.858 295.641 157.316 290.729C155.975 287.582 154.812 284.337 153.845 280.999Z" fill="black" style="fill:black;fill-opacity:1;"/>
<defs>
<linearGradient id="paint0_linear_660_18722" x1="104.941" y1="355.926" x2="207.659" y2="427.001" gradientUnits="userSpaceOnUse">
<stop stop-color="white" style="stop-color:white;stop-opacity:1;"/>
<stop offset="1" stop-color="#ADADAD" style="stop-color:#ADADAD;stop-color:color(display-p3 0.6779 0.6779 0.6779);stop-opacity:1;"/>
</linearGradient>
<linearGradient id="paint1_linear_660_18722" x1="396.043" y1="354.207" x2="297.437" y2="418.274" gradientUnits="userSpaceOnUse">
<stop stop-color="white" style="stop-color:white;stop-opacity:1;"/>
<stop offset="1" stop-color="#9F9F9F" style="stop-color:#9F9F9F;stop-color:color(display-p3 0.6250 0.6250 0.6250);stop-opacity:1;"/>
</linearGradient>
</defs>
</svg>
