<svg width="510" height="580" viewBox="0 0 510 580" fill="none" xmlns="http://www.w3.org/2000/svg">
<path d="M126.733 338.292L136.131 392.391C113.58 397.808 113.602 384.776 111.166 370.358C108.74 356 101.756 344.428 126.733 338.292Z" fill="url(#paint0_linear_660_18716)" style=""/>
<path d="M192.481 350.9C195.757 370.285 216.694 378.261 165.296 387.696C148.664 390.749 124.373 397.738 125.981 393.4L116.481 342.4C114.981 333.9 139.202 334.48 155.981 331.4C207.38 321.965 189.205 331.514 192.481 350.9Z" fill="white" style="fill:white;fill-opacity:1;"/>
<path d="M379.058 337.288L369.948 389.81C393.987 397.31 389.66 390.28 393.981 369.4C397.271 344.695 400.919 342.486 379.058 337.288Z" fill="url(#paint1_linear_660_18716)" style=""/>
<path d="M313.331 349.9C310.055 369.285 289.118 377.261 340.516 386.696C357.148 389.749 381.439 396.738 379.831 392.4L389.331 341.4C390.831 332.9 366.61 333.48 349.831 330.4C298.432 320.965 316.607 330.514 313.331 349.9Z" fill="white" style="fill:white;fill-opacity:1;"/>
<path d="M188.481 327.899C244.977 349.092 265.769 349.185 315.481 327.899C315.481 327.899 349.052 429.339 334.982 444.091C320.911 458.842 187.204 452.724 174.232 443.091C161.259 433.457 188.481 327.899 188.481 327.899Z" fill="white" style="fill:white;fill-opacity:1;"/>
<circle cx="232.481" cy="348.899" r="4" fill="#07A4BF" style="fill:#07A4BF;fill:color(display-p3 0.0288 0.6418 0.7500);fill-opacity:1;"/>
<path d="M231.961 349.9C222.092 366.256 227.59 386.636 227.481 402.9" stroke="#14DCFF" style="stroke:#14DCFF;stroke:color(display-p3 0.0784 0.8627 1.0000);stroke-opacity:1;" stroke-width="4" stroke-linecap="round"/>
<path d="M221.844 407.686C221.297 411.434 224.208 410.156 226.83 410.473C229.452 410.791 230.793 412.584 231.34 408.836C231.886 405.088 230.203 401.792 227.581 401.475C224.959 401.157 222.39 403.938 221.844 407.686Z" fill="#14DCFF" style="fill:#14DCFF;fill:color(display-p3 0.0784 0.8627 1.0000);fill-opacity:1;"/>
<circle cx="4" cy="4" r="4" transform="matrix(-1 0 0 1 266.344 344.899)" fill="#07A4BF" style="fill:#07A4BF;fill:color(display-p3 0.0288 0.6418 0.7500);fill-opacity:1;"/>
<path d="M262.864 349.898C268.796 351.894 267.132 385.832 270.482 413.9" stroke="#14DCFF" style="stroke:#14DCFF;stroke:color(display-p3 0.0784 0.8627 1.0000);stroke-opacity:1;" stroke-width="4" stroke-linecap="round"/>
<path d="M275.967 418.686C276.513 422.434 273.602 421.156 270.98 421.473C268.358 421.791 267.018 423.584 266.471 419.836C265.924 416.088 267.607 412.792 270.229 412.475C272.852 412.157 275.42 414.938 275.967 418.686Z" fill="#14DCFF" style="fill:#14DCFF;fill:color(display-p3 0.0784 0.8627 1.0000);fill-opacity:1;"/>
<path d="M278.917 367.499V366.983H278.269V366.419H277.621V365.831H276.949V362.555H277.621V361.943H278.245V361.391H278.833V360.887H284.197V361.439H284.845V362.891H284.197V363.455H280.429V363.887H279.985V364.607H280.429V365.039H283.033V365.567H283.669V366.119H284.329V366.719H285.001V369.983H284.329V370.595H283.693V371.147H283.117V371.663H277.717V371.099H277.093V369.647H277.717V369.095H281.485V368.651H281.929V367.943H281.485V367.499H278.917ZM287.894 367.499V366.983H287.246V366.419H286.598V365.831H285.926V362.555H286.598V361.943H287.222V361.391H287.81V360.887H293.174V361.439H293.822V362.891H293.174V363.455H289.406V363.887H288.962V364.607H289.406V365.039H292.01V365.567H292.646V366.119H293.306V366.719H293.978V369.983H293.306V370.595H292.67V371.147H292.094V371.663H286.694V371.099H286.07V369.647H286.694V369.095H290.462V368.651H290.906V367.943H290.462V367.499H287.894ZM300.999 365.051H300.375V364.199H299.787V363.455H298.971V364.199H298.383V365.051H297.759V366.119H300.999V365.051ZM297.759 368.567V371.123H297.171V371.675H295.539V371.123H294.963V364.043H295.587V363.059H296.211V362.207H296.823V361.511H297.411V360.887H301.335V361.511H301.911V362.207H302.523V363.059H303.159V364.043H303.795V371.123H303.207V371.675H301.575V371.123H300.999V368.567H297.759ZM311.597 365.099V365.675H312.233V367.067H311.597V367.655H307.697V371.087H307.109V371.675H305.429V371.087H304.853V361.463H305.477V360.887H311.897V361.463H312.521V362.819H311.897V363.407H307.697V365.099H311.597ZM315.213 366.383V365.603H314.625V364.847H314.025V364.115H313.413V363.467H312.825V361.439H313.413V360.887H315.129V361.439H315.741V362.231H316.329V362.987H316.893V363.695H317.565V362.987H318.129V362.231H318.717V361.439H319.329V360.887H321.045V361.439H321.633V363.467H321.045V364.115H320.433V364.847H319.845V365.603H319.245V366.383H318.669V371.195H318.189V371.675H316.269V371.195H315.789V366.383H315.213Z" fill="black" style="fill:black;fill-opacity:1;"/>
<path d="M347.834 288.73C357.291 293.642 362.633 299.821 362.633 305.899C362.633 314.74 349.111 323.797 328.799 328.85C324.223 328.315 319.775 327.888 315.483 327.579C329.856 317.759 341.117 304.489 347.834 288.73Z" fill="#A6A6A6" style="fill:#A6A6A6;fill:color(display-p3 0.6490 0.6490 0.6490);fill-opacity:1;"/>
<path d="M351.304 278.999C362.718 281.905 371.216 288.333 375.633 301.399C375.633 311.991 365.38 323.358 348.409 331.67C341.678 330.534 335.116 329.588 328.799 328.85C349.111 323.797 362.633 314.74 362.633 305.899C362.633 299.821 357.292 293.641 347.834 288.729C349.175 285.583 350.337 282.337 351.304 278.999Z" fill="white" style="fill:white;fill-opacity:1;"/>
<defs>
<linearGradient id="paint0_linear_660_18716" x1="106.424" y1="354.926" x2="209.142" y2="426.001" gradientUnits="userSpaceOnUse">
<stop stop-color="white" style="stop-color:white;stop-opacity:1;"/>
<stop offset="1" stop-color="#ADADAD" style="stop-color:#ADADAD;stop-color:color(display-p3 0.6779 0.6779 0.6779);stop-opacity:1;"/>
</linearGradient>
<linearGradient id="paint1_linear_660_18716" x1="397.525" y1="353.207" x2="298.92" y2="417.274" gradientUnits="userSpaceOnUse">
<stop stop-color="white" style="stop-color:white;stop-opacity:1;"/>
<stop offset="1" stop-color="#9F9F9F" style="stop-color:#9F9F9F;stop-color:color(display-p3 0.6250 0.6250 0.6250);stop-opacity:1;"/>
</linearGradient>
</defs>
</svg>
