<svg width="510" height="580" viewBox="0 0 510 580" fill="none" xmlns="http://www.w3.org/2000/svg">
<path d="M126.733 339.392L136.132 393.492C113.581 398.909 113.603 385.877 111.166 371.458C108.74 357.101 101.757 345.529 126.733 339.392Z" fill="url(#paint0_linear_660_18713)" style=""/>
<path d="M192.482 352C195.757 371.386 216.695 379.362 165.296 388.797C148.665 391.85 124.373 398.839 125.982 394.5L116.482 343.5C114.982 335 139.202 335.58 155.982 332.5C207.38 323.065 189.206 332.615 192.482 352Z" fill="#14DCFF" style="fill:#14DCFF;fill:color(display-p3 0.0784 0.8627 1.0000);fill-opacity:1;"/>
<path d="M379.058 338.389L369.948 390.911C393.987 398.411 389.66 391.381 393.981 370.5C397.271 345.795 400.919 343.586 379.058 338.389Z" fill="url(#paint1_linear_660_18713)" style=""/>
<path d="M313.331 351C310.055 370.386 289.118 378.362 340.516 387.797C357.148 390.85 381.439 397.839 379.831 393.5L389.331 342.5C390.831 334 366.61 334.58 349.831 331.5C298.432 322.065 316.607 331.615 313.331 351Z" fill="#14DCFF" style="fill:#14DCFF;fill:color(display-p3 0.0784 0.8627 1.0000);fill-opacity:1;"/>
<path d="M188.481 329C244.977 350.193 265.769 350.285 315.481 329C315.481 329 349.052 430.44 334.982 445.191C320.911 459.943 187.204 453.825 174.232 444.191C161.259 434.558 188.481 329 188.481 329Z" fill="#14DCFF" style="fill:#14DCFF;fill:color(display-p3 0.0769 0.8615 1.0000);fill-opacity:1;"/>
<circle cx="232.481" cy="350" r="4" fill="#07A4BF" style="fill:#07A4BF;fill:color(display-p3 0.0288 0.6418 0.7500);fill-opacity:1;"/>
<path d="M231.961 351C222.092 367.356 227.59 387.736 227.481 404" stroke="white" style="stroke:white;stroke-opacity:1;" stroke-width="4" stroke-linecap="round"/>
<path d="M221.844 408.786C221.297 412.534 224.208 411.256 226.83 411.574C229.452 411.892 230.793 413.685 231.34 409.937C231.886 406.189 230.203 402.893 227.581 402.575C224.959 402.257 222.39 405.038 221.844 408.786Z" fill="white" style="fill:white;fill-opacity:1;"/>
<circle cx="4" cy="4" r="4" transform="matrix(-1 0 0 1 266.344 346)" fill="#07A4BF" style="fill:#07A4BF;fill:color(display-p3 0.0288 0.6418 0.7500);fill-opacity:1;"/>
<path d="M262.864 350.999C268.796 352.995 267.132 386.932 270.482 415" stroke="white" style="stroke:white;stroke-opacity:1;" stroke-width="4" stroke-linecap="round"/>
<path d="M275.967 419.786C276.513 423.534 273.602 422.256 270.98 422.574C268.358 422.892 267.018 424.685 266.471 420.937C265.924 417.189 267.607 413.893 270.229 413.575C272.852 413.257 275.42 416.038 275.967 419.786Z" fill="white" style="fill:white;fill-opacity:1;"/>
<path d="M278.917 368.6V368.084H278.269V367.52H277.621V366.932H276.949V363.656H277.621V363.044H278.245V362.492H278.833V361.988H284.197V362.54H284.845V363.992H284.197V364.556H280.429V364.988H279.985V365.708H280.429V366.14H283.033V366.668H283.669V367.22H284.329V367.82H285.001V371.084H284.329V371.696H283.693V372.248H283.117V372.764H277.717V372.2H277.093V370.748H277.717V370.196H281.485V369.752H281.929V369.044H281.485V368.6H278.917ZM287.894 368.6V368.084H287.246V367.52H286.598V366.932H285.926V363.656H286.598V363.044H287.222V362.492H287.81V361.988H293.174V362.54H293.822V363.992H293.174V364.556H289.406V364.988H288.962V365.708H289.406V366.14H292.01V366.668H292.646V367.22H293.306V367.82H293.978V371.084H293.306V371.696H292.67V372.248H292.094V372.764H286.694V372.2H286.07V370.748H286.694V370.196H290.462V369.752H290.906V369.044H290.462V368.6H287.894ZM300.999 366.152H300.375V365.3H299.787V364.556H298.971V365.3H298.383V366.152H297.759V367.22H300.999V366.152ZM297.759 369.668V372.224H297.171V372.776H295.539V372.224H294.963V365.144H295.587V364.16H296.211V363.308H296.823V362.612H297.411V361.988H301.335V362.612H301.911V363.308H302.523V364.16H303.159V365.144H303.795V372.224H303.207V372.776H301.575V372.224H300.999V369.668H297.759ZM311.597 366.2V366.776H312.233V368.168H311.597V368.756H307.697V372.188H307.109V372.776H305.429V372.188H304.853V362.564H305.477V361.988H311.897V362.564H312.521V363.92H311.897V364.508H307.697V366.2H311.597ZM315.213 367.484V366.704H314.625V365.948H314.025V365.216H313.413V364.568H312.825V362.54H313.413V361.988H315.129V362.54H315.741V363.332H316.329V364.088H316.893V364.796H317.565V364.088H318.129V363.332H318.717V362.54H319.329V361.988H321.045V362.54H321.633V364.568H321.045V365.216H320.433V365.948H319.845V366.704H319.245V367.484H318.669V372.296H318.189V372.776H316.269V372.296H315.789V367.484H315.213Z" fill="#F2F2F2" style="fill:#F2F2F2;fill:color(display-p3 0.9490 0.9490 0.9490);fill-opacity:1;"/>
<path d="M249.481 128C318.241 128 382.981 170.211 382.981 234C382.981 269.941 363.856 306.015 334.859 330.663C327.896 329.735 321.19 329.041 314.836 328.607C338.173 312.211 353.055 286.295 354.5 255.5C352.499 200.799 309.248 152.46 252.064 152.46C190.603 151.243 152.171 215.824 150.586 255.2C150.586 286.639 165.682 312.82 189.624 329.17C183.291 329.761 176.664 330.585 169.827 331.617C145.028 310.504 129.481 280.187 129.481 246.5C129.481 182.711 180.722 128 249.481 128Z" fill="#14DCFF" style="fill:#14DCFF;fill:color(display-p3 0.0769 0.8615 1.0000);fill-opacity:1;"/>
<defs>
<linearGradient id="paint0_linear_660_18713" x1="106.424" y1="356.026" x2="209.142" y2="427.101" gradientUnits="userSpaceOnUse">
<stop stop-color="#14DCFF" style="stop-color:#14DCFF;stop-color:color(display-p3 0.0784 0.8627 1.0000);stop-opacity:1;"/>
<stop offset="1" stop-color="#0C8499" style="stop-color:#0C8499;stop-color:color(display-p3 0.0471 0.5176 0.6000);stop-opacity:1;"/>
</linearGradient>
<linearGradient id="paint1_linear_660_18713" x1="397.525" y1="354.307" x2="298.92" y2="418.375" gradientUnits="userSpaceOnUse">
<stop stop-color="#14DCFF" style="stop-color:#14DCFF;stop-color:color(display-p3 0.0784 0.8627 1.0000);stop-opacity:1;"/>
<stop offset="1" stop-color="#0C8499" style="stop-color:#0C8499;stop-color:color(display-p3 0.0471 0.5176 0.6000);stop-opacity:1;"/>
</linearGradient>
</defs>
</svg>
