<svg width="510" height="580" viewBox="0 0 510 580" fill="none" xmlns="http://www.w3.org/2000/svg">
<path d="M251.622 365.01C251.839 364.029 252.767 363.433 253.757 363.637C254.918 363.876 255.674 365.098 255.37 366.231C250.08 385.974 248.819 397.432 248.87 415.616C248.873 416.808 247.849 417.665 246.692 417.427C245.702 417.223 244.979 416.282 245.031 415.267C246.044 395.601 247.422 383.98 251.622 365.01Z" fill="#3C3C3C" style="fill:#3C3C3C;fill:color(display-p3 0.2356 0.2356 0.2356);fill-opacity:1;"/>
<path d="M253.854 359.251C253.786 358.279 254.417 357.313 255.325 357.006C256.491 356.61 257.566 357.455 257.532 358.721C256.986 378.923 259.383 390.103 266.78 406.821C267.268 407.926 266.619 409.365 265.44 409.765C264.539 410.07 263.64 409.648 263.329 408.769C257.714 392.878 255.434 381.666 253.854 359.251Z" fill="#3C3C3C" style="fill:#3C3C3C;fill:color(display-p3 0.2356 0.2356 0.2356);fill-opacity:1;"/>
<path d="M111.381 344.5C185.893 316.697 214.445 328.153 256.881 356.5C256.881 356.5 243.443 405.974 221.381 428C194.924 454.414 168.88 468.33 132.881 464.5C96.8813 460.67 111.381 344.5 111.381 344.5Z" fill="#E33C40" style="fill:#E33C40;fill:color(display-p3 0.8902 0.2353 0.2510);fill-opacity:1;"/>
<g filter="url(#filter0_g_660_18704)">
<path d="M118.954 461.448C118.251 461.158 117.506 460.992 116.799 460.712C100.746 454.346 98.1594 355.761 109.269 343.608C110.161 342.632 111.253 341.896 112.23 341.006C114.001 339.393 117.925 337.288 127.885 337.998C101.138 335.402 131.396 462.999 131.395 464C131.394 464.951 125.706 464.231 118.954 461.448Z" fill="#FFFAFA" style="fill:#FFFAFA;fill:color(display-p3 1.0000 0.9808 0.9808);fill-opacity:1;"/>
</g>
<g filter="url(#filter1_g_660_18704)">
<path d="M141.383 466C157.881 466 173.881 469.5 211.378 440.5C244.328 415.016 256.432 365.209 253.796 357.237C253.273 355.657 251.609 357.338 251.061 358.909C234.521 406.335 188.023 464.136 121.643 450.602C119.866 450.239 117.875 450.306 116.519 451.51C109.937 457.353 123.986 466.915 141.383 466Z" fill="#FFFAFA" style="fill:#FFFAFA;fill:color(display-p3 1.0000 0.9808 0.9808);fill-opacity:1;"/>
</g>
<g filter="url(#filter2_g_660_18704)">
<path d="M254.879 365.988C253.919 366.69 253.109 367.603 252.102 368.235C239.811 375.944 171.196 345.912 169.075 333.798C168.992 333.324 168.993 332.856 168.949 332.376C168.696 329.602 169.06 326.717 170.179 323.913C172.202 318.842 175.601 313.952 180.485 316.391C194.22 323.252 227.151 339.218 260.471 347.282C261.077 347.428 261.713 347.45 262.311 347.624C266.683 348.901 263.41 359.742 254.879 365.988Z" fill="#FFFAFA" style="fill:#FFFAFA;fill:color(display-p3 1.0000 0.9808 0.9808);fill-opacity:1;"/>
</g>
<path d="M402.701 344.5C328.189 316.697 299.637 328.153 257.201 356.5C257.201 356.5 270.639 405.974 292.701 428C319.158 454.414 345.202 468.33 381.201 464.5C417.201 460.67 402.701 344.5 402.701 344.5Z" fill="#E33C40" style="fill:#E33C40;fill:color(display-p3 0.8902 0.2353 0.2510);fill-opacity:1;"/>
<g filter="url(#filter3_g_660_18704)">
<path d="M392.1 461.386C392.834 461.187 393.577 460.992 394.283 460.712C410.336 454.346 412.923 355.761 401.813 343.608C400.921 342.632 399.83 341.895 398.852 341.006C397.081 339.393 393.157 337.288 383.198 337.998C409.944 335.402 385.38 451.5 385.381 452.5C385.383 453.448 385.918 463.057 392.1 461.386Z" fill="#FFFAFA" style="fill:#FFFAFA;fill:color(display-p3 1.0000 0.9808 0.9808);fill-opacity:1;"/>
</g>
<g filter="url(#filter4_g_660_18704)">
<path d="M370.381 467.5C360.382 467 340.381 472 300.204 440.783C263.884 412.564 254.416 362.228 258.469 356.884C259.249 355.856 260.488 357.368 261.061 358.525C283.68 404.206 327.474 476.044 393.991 449.222C395.837 448.478 398.183 448.084 399.54 449.54C404.609 454.979 385.824 467.5 370.381 467.5Z" fill="#FFFAFA" style="fill:#FFFAFA;fill:color(display-p3 1.0000 0.9808 0.9808);fill-opacity:1;"/>
</g>
<circle cx="244.976" cy="418.856" r="10" transform="rotate(-10.0722 244.976 418.856)" fill="#E33C40" style="fill:#E33C40;fill:color(display-p3 0.8902 0.2353 0.2510);fill-opacity:1;"/>
<circle cx="268.381" cy="407" r="10" fill="#E33C40" style="fill:#E33C40;fill:color(display-p3 0.8902 0.2353 0.2510);fill-opacity:1;"/>
<g filter="url(#filter5_g_660_18704)">
<path d="M256.623 365.618C257.583 366.321 258.393 367.234 259.4 367.866C271.691 375.575 340.305 345.543 342.427 333.429C342.51 332.955 342.509 332.487 342.553 332.007C342.806 329.233 342.441 326.348 341.323 323.544C339.3 318.473 335.901 313.582 331.017 316.022C317.282 322.882 284.351 338.848 251.031 346.913C250.425 347.059 249.788 347.08 249.191 347.255C244.819 348.532 248.092 359.373 256.623 365.618Z" fill="#FFFAFA" style="fill:#FFFAFA;fill:color(display-p3 1.0000 0.9808 0.9808);fill-opacity:1;"/>
</g>
<defs>
<filter id="filter0_g_660_18704" x="100.495" y="335.856" width="32.8999" height="130.541" filterUnits="userSpaceOnUse" color-interpolation-filters="sRGB">
<feFlood flood-opacity="0" result="BackgroundImageFix"/>
<feBlend mode="normal" in="SourceGraphic" in2="BackgroundImageFix" result="shape"/>
<feTurbulence type="fractalNoise" baseFrequency="0.5 0.5" numOctaves="3" seed="7059" />
<feDisplacementMap in="shape" scale="4" xChannelSelector="R" yChannelSelector="G" result="displacedImage" width="100%" height="100%" />
<feMerge result="effect1_texture_660_18704">
<feMergeNode in="displacedImage"/>
</feMerge>
</filter>
<filter id="filter1_g_660_18704" x="112.866" y="354.603" width="143.279" height="113.529" filterUnits="userSpaceOnUse" color-interpolation-filters="sRGB">
<feFlood flood-opacity="0" result="BackgroundImageFix"/>
<feBlend mode="normal" in="SourceGraphic" in2="BackgroundImageFix" result="shape"/>
<feTurbulence type="fractalNoise" baseFrequency="0.5 0.5" numOctaves="3" seed="7059" />
<feDisplacementMap in="shape" scale="4" xChannelSelector="R" yChannelSelector="G" result="displacedImage" width="100%" height="100%" />
<feMerge result="effect1_texture_660_18704">
<feMergeNode in="displacedImage"/>
</feMerge>
</filter>
<filter id="filter2_g_660_18704" x="166.873" y="313.744" width="99.3735" height="57.7393" filterUnits="userSpaceOnUse" color-interpolation-filters="sRGB">
<feFlood flood-opacity="0" result="BackgroundImageFix"/>
<feBlend mode="normal" in="SourceGraphic" in2="BackgroundImageFix" result="shape"/>
<feTurbulence type="fractalNoise" baseFrequency="0.5 0.5" numOctaves="3" seed="7059" />
<feDisplacementMap in="shape" scale="4" xChannelSelector="R" yChannelSelector="G" result="displacedImage" width="100%" height="100%" />
<feMerge result="effect1_texture_660_18704">
<feMergeNode in="displacedImage"/>
</feMerge>
</filter>
<filter id="filter3_g_660_18704" x="381.198" y="335.856" width="29.3896" height="127.724" filterUnits="userSpaceOnUse" color-interpolation-filters="sRGB">
<feFlood flood-opacity="0" result="BackgroundImageFix"/>
<feBlend mode="normal" in="SourceGraphic" in2="BackgroundImageFix" result="shape"/>
<feTurbulence type="fractalNoise" baseFrequency="0.5 0.5" numOctaves="3" seed="7059" />
<feDisplacementMap in="shape" scale="4" xChannelSelector="R" yChannelSelector="G" result="displacedImage" width="100%" height="100%" />
<feMerge result="effect1_texture_660_18704">
<feMergeNode in="displacedImage"/>
</feMerge>
</filter>
<filter id="filter4_g_660_18704" x="255.599" y="354.542" width="146.785" height="114.985" filterUnits="userSpaceOnUse" color-interpolation-filters="sRGB">
<feFlood flood-opacity="0" result="BackgroundImageFix"/>
<feBlend mode="normal" in="SourceGraphic" in2="BackgroundImageFix" result="shape"/>
<feTurbulence type="fractalNoise" baseFrequency="0.5 0.5" numOctaves="3" seed="7059" />
<feDisplacementMap in="shape" scale="4" xChannelSelector="R" yChannelSelector="G" result="displacedImage" width="100%" height="100%" />
<feMerge result="effect1_texture_660_18704">
<feMergeNode in="displacedImage"/>
</feMerge>
</filter>
<filter id="filter5_g_660_18704" x="245.256" y="313.375" width="99.3735" height="57.7393" filterUnits="userSpaceOnUse" color-interpolation-filters="sRGB">
<feFlood flood-opacity="0" result="BackgroundImageFix"/>
<feBlend mode="normal" in="SourceGraphic" in2="BackgroundImageFix" result="shape"/>
<feTurbulence type="fractalNoise" baseFrequency="0.5 0.5" numOctaves="3" seed="7059" />
<feDisplacementMap in="shape" scale="4" xChannelSelector="R" yChannelSelector="G" result="displacedImage" width="100%" height="100%" />
<feMerge result="effect1_texture_660_18704">
<feMergeNode in="displacedImage"/>
</feMerge>
</filter>
</defs>
</svg>
