<svg width="510" height="580" viewBox="0 0 510 580" fill="none" xmlns="http://www.w3.org/2000/svg">
<path d="M316.196 456.46C265.923 465.943 236.944 465.367 184.196 456.46V333.46C208.412 337.707 227.616 340.064 246.251 340.434L253.196 352.46L260.194 340.338C277.265 339.76 294.792 337.493 316.196 333.46V456.46Z" fill="#E5F1FF" style="fill:#E5F1FF;fill:color(display-p3 0.8990 0.9462 1.0000);fill-opacity:1;"/>
<path d="M108.197 344.836L119.712 341.46C120.428 362.935 123.793 373.939 134.531 392.002L123.016 395.378C111.106 377.727 108.47 366.454 108.197 344.836Z" fill="#E5F1FF" style="fill:#E5F1FF;fill:color(display-p3 0.8990 0.9462 1.0000);fill-opacity:1;"/>
<mask id="path-3-inside-1_662_630" fill="white">
<path d="M113.484 342.283C147.06 329.095 177.506 326.174 195.344 328.621C196.52 328.783 197.54 329.494 198.14 330.519L200.734 334.951L207.661 333.229C214.175 336.504 218.229 337.335 225.363 339.045C241.23 390.065 237.671 421.561 234.113 477.09C202.289 477.699 175.745 474.744 161.598 465.762C172.356 434.966 178.738 412.572 183.28 388.99C167.412 393.154 151.822 396.349 130.184 397.043C128.582 397.094 127.098 396.163 126.438 394.703C118.454 377.048 113.397 365.272 111.035 346.396C110.814 344.628 111.827 342.934 113.484 342.283Z"/>
</mask>
<path d="M113.484 342.283C147.06 329.095 177.506 326.174 195.344 328.621C196.52 328.783 197.54 329.494 198.14 330.519L200.734 334.951L207.661 333.229C214.175 336.504 218.229 337.335 225.363 339.045C241.23 390.065 237.671 421.561 234.113 477.09C202.289 477.699 175.745 474.744 161.598 465.762C172.356 434.966 178.738 412.572 183.28 388.99C167.412 393.154 151.822 396.349 130.184 397.043C128.582 397.094 127.098 396.163 126.438 394.703C118.454 377.048 113.397 365.272 111.035 346.396C110.814 344.628 111.827 342.934 113.484 342.283Z" fill="#352C2C" style="fill:#352C2C;fill:color(display-p3 0.2067 0.1729 0.1729);fill-opacity:1;"/>
<path d="M113.484 342.283L113.119 341.352H113.119L113.484 342.283ZM195.344 328.621L195.48 327.63L195.48 327.63L195.344 328.621ZM198.14 330.519L197.277 331.024V331.024L198.14 330.519ZM200.734 334.951L199.871 335.456L200.249 336.102L200.976 335.922L200.734 334.951ZM207.661 333.229L208.11 332.336L207.779 332.17L207.42 332.259L207.661 333.229ZM225.363 339.045L226.318 338.748L226.149 338.205L225.596 338.072L225.363 339.045ZM234.113 477.09L234.132 478.09L235.052 478.072L235.111 477.154L234.113 477.09ZM161.598 465.762L160.654 465.432L160.392 466.181L161.062 466.606L161.598 465.762ZM183.28 388.99L184.262 389.179L184.563 387.62L183.026 388.023L183.28 388.99ZM130.184 397.043L130.216 398.042H130.216L130.184 397.043ZM126.438 394.703L125.526 395.115L125.526 395.115L126.438 394.703ZM111.035 346.396L110.043 346.52L110.043 346.52L111.035 346.396ZM113.484 342.283L113.85 343.214C147.303 330.074 177.575 327.193 195.208 329.612L195.344 328.621L195.48 327.63C177.436 325.155 146.816 328.117 113.119 341.352L113.484 342.283ZM195.344 328.621L195.208 329.612C196.064 329.729 196.824 330.25 197.277 331.024L198.14 330.519L199.003 330.013C198.256 328.738 196.975 327.836 195.48 327.63L195.344 328.621ZM198.14 330.519L197.277 331.024L199.871 335.456L200.734 334.951L201.597 334.446L199.003 330.013L198.14 330.519ZM200.734 334.951L200.976 335.922L207.902 334.2L207.661 333.229L207.42 332.259L200.493 333.981L200.734 334.951ZM207.661 333.229L207.212 334.123C213.845 337.457 218.008 338.31 225.13 340.017L225.363 339.045L225.596 338.072C218.45 336.359 214.506 335.551 208.11 332.336L207.661 333.229ZM225.363 339.045L224.408 339.342C240.211 390.158 236.675 421.472 233.115 477.026L234.113 477.09L235.111 477.154C238.668 421.651 242.248 389.971 226.318 338.748L225.363 339.045ZM234.113 477.09L234.094 476.09C218.213 476.394 203.68 475.808 191.37 474.033C179.042 472.255 169.032 469.297 162.134 464.917L161.598 465.762L161.062 466.606C168.311 471.208 178.647 474.219 191.084 476.012C203.539 477.808 218.19 478.395 234.132 478.09L234.113 477.09ZM161.598 465.762L162.542 466.092C173.31 435.267 179.708 412.824 184.262 389.179L183.28 388.99L182.298 388.801C177.768 412.32 171.402 434.665 160.654 465.432L161.598 465.762ZM183.28 388.99L183.026 388.023C167.206 392.174 151.693 395.352 130.152 396.043L130.184 397.043L130.216 398.042C151.951 397.345 167.619 394.134 183.534 389.957L183.28 388.99ZM130.184 397.043L130.152 396.043C128.957 396.082 127.844 395.385 127.349 394.291L126.438 394.703L125.526 395.115C126.352 396.941 128.207 398.107 130.216 398.042L130.184 397.043ZM126.438 394.703L127.349 394.291C119.372 376.65 114.369 364.99 112.027 346.271L111.035 346.396L110.043 346.52C112.425 365.555 117.537 377.447 125.526 395.115L126.438 394.703ZM111.035 346.396L112.027 346.271C111.863 344.96 112.615 343.699 113.85 343.214L113.484 342.283L113.119 341.352C111.038 342.17 109.765 344.296 110.043 346.52L111.035 346.396Z" fill="#514B4B" style="fill:#514B4B;fill:color(display-p3 0.3176 0.2941 0.2941);fill-opacity:1;" mask="url(#path-3-inside-1_662_630)"/>
<path d="M235.86 429.266C235.493 429.275 235.028 429.132 234.453 428.77C233.298 428.041 231.88 426.539 230.239 424.284C226.969 419.791 222.948 412.495 218.495 403.06C209.629 384.275 199.094 357.106 189.42 326.978C190.976 325.929 192.284 325.264 193.857 324.981C195.541 324.679 197.576 324.804 200.592 325.449L200.6 325.45L201.395 325.612C209.566 327.334 216.5 330.632 221.187 333.389C223.605 334.812 225.419 336.087 226.49 336.921C226.773 337.141 226.997 337.327 227.166 337.473L227.23 337.639C227.525 338.406 227.994 340.296 228.579 343.079C229.161 345.845 229.85 349.452 230.587 353.623C232.062 361.964 233.732 372.552 235.137 383.156C236.542 393.761 237.679 404.372 238.091 412.763C238.298 416.96 238.322 420.589 238.11 423.378C238.004 424.772 237.84 425.944 237.615 426.865C237.387 427.8 237.108 428.423 236.811 428.77C236.516 429.114 236.203 429.257 235.86 429.266Z" fill="#352C2C" stroke="#514B4B" style="fill:#352C2C;fill:color(display-p3 0.2067 0.1729 0.1729);fill-opacity:1;stroke:#514B4B;stroke:color(display-p3 0.3173 0.2960 0.2960);stroke-opacity:1;"/>
<path d="M205.681 425.253L204.869 433.878C204.74 435.253 203.52 436.263 202.146 436.133L183.229 434.353C181.855 434.223 180.845 433.004 180.975 431.63L181.786 423.005L205.681 425.253Z" fill="#352C2C" stroke="#514B4B" style="fill:#352C2C;fill:color(display-p3 0.2067 0.1729 0.1729);fill-opacity:1;stroke:#514B4B;stroke:color(display-p3 0.3173 0.2960 0.2960);stroke-opacity:1;"/>
<path d="M401.196 344.836L389.681 341.46C388.965 362.935 385.6 373.939 374.862 392.002L386.377 395.378C398.287 377.727 400.923 366.454 401.196 344.836Z" fill="#E5F1FF" style="fill:#E5F1FF;fill:color(display-p3 0.8990 0.9462 1.0000);fill-opacity:1;"/>
<mask id="path-8-inside-2_662_630" fill="white">
<path d="M395.909 341.342C362.333 328.154 331.887 325.232 314.049 327.68C312.873 327.841 311.853 328.553 311.253 329.577L308.659 334.01L301.732 332.288C295.218 335.563 291.163 336.393 284.029 338.104C268.163 389.123 271.721 420.62 275.279 476.148C307.103 476.757 333.648 473.802 347.795 464.819C337.037 434.024 330.655 411.63 326.113 388.049C341.981 392.212 357.571 395.407 379.209 396.102C380.811 396.153 382.295 395.221 382.956 393.761C390.939 376.106 395.995 364.33 398.357 345.453C398.578 343.686 397.566 341.993 395.909 341.342Z"/>
</mask>
<path d="M395.909 341.342C362.333 328.154 331.887 325.232 314.049 327.68C312.873 327.841 311.853 328.553 311.253 329.577L308.659 334.01L301.732 332.288C295.218 335.563 291.163 336.393 284.029 338.104C268.163 389.123 271.721 420.62 275.279 476.148C307.103 476.757 333.648 473.802 347.795 464.819C337.037 434.024 330.655 411.63 326.113 388.049C341.981 392.212 357.571 395.407 379.209 396.102C380.811 396.153 382.295 395.221 382.956 393.761C390.939 376.106 395.995 364.33 398.357 345.453C398.578 343.686 397.566 341.993 395.909 341.342Z" fill="#352C2C" style="fill:#352C2C;fill:color(display-p3 0.2067 0.1729 0.1729);fill-opacity:1;"/>
<path d="M395.909 341.342L396.274 340.411L396.274 340.411L395.909 341.342ZM314.049 327.68L313.913 326.689L313.913 326.689L314.049 327.68ZM311.253 329.577L312.116 330.082L312.116 330.082L311.253 329.577ZM308.659 334.01L309.522 334.515L309.144 335.161L308.417 334.98L308.659 334.01ZM301.732 332.288L301.283 331.395L301.614 331.228L301.973 331.318L301.732 332.288ZM284.029 338.104L283.074 337.807L283.243 337.264L283.796 337.131L284.029 338.104ZM275.279 476.148L275.26 477.148L274.34 477.131L274.281 476.212L275.279 476.148ZM347.795 464.819L348.739 464.49L349.001 465.238L348.331 465.664L347.795 464.819ZM326.113 388.049L325.131 388.238L324.83 386.678L326.367 387.082L326.113 388.049ZM379.209 396.102L379.177 397.101H379.177L379.209 396.102ZM382.956 393.761L383.867 394.173L382.956 393.761ZM398.357 345.453L399.349 345.577L399.349 345.577L398.357 345.453ZM395.909 341.342L395.543 342.273C362.09 329.132 331.818 326.251 314.185 328.67L314.049 327.68L313.913 326.689C331.957 324.214 362.577 327.175 396.274 340.411L395.909 341.342ZM314.049 327.68L314.185 328.67C313.329 328.788 312.569 329.309 312.116 330.082L311.253 329.577L310.39 329.072C311.137 327.797 312.418 326.894 313.913 326.689L314.049 327.68ZM311.253 329.577L312.116 330.082L309.522 334.515L308.659 334.01L307.796 333.505L310.39 329.072L311.253 329.577ZM308.659 334.01L308.417 334.98L301.491 333.259L301.732 332.288L301.973 331.318L308.9 333.039L308.659 334.01ZM301.732 332.288L302.181 333.182C295.548 336.516 291.384 337.368 284.262 339.076L284.029 338.104L283.796 337.131C290.942 335.418 294.887 334.61 301.283 331.395L301.732 332.288ZM284.029 338.104L284.984 338.4C269.181 389.217 272.717 420.53 276.277 476.084L275.279 476.148L274.281 476.212C270.724 420.709 267.144 389.029 283.074 337.807L284.029 338.104ZM275.279 476.148L275.298 475.149C291.179 475.453 305.713 474.866 318.023 473.091C330.351 471.313 340.361 468.355 347.259 463.975L347.795 464.819L348.331 465.664C341.082 470.266 330.746 473.277 318.308 475.07C305.853 476.866 291.203 477.453 275.26 477.148L275.279 476.148ZM347.795 464.819L346.851 465.149C336.083 434.325 329.685 411.882 325.131 388.238L326.113 388.049L327.095 387.86C331.625 411.378 337.991 433.723 348.739 464.49L347.795 464.819ZM326.113 388.049L326.367 387.082C342.187 391.233 357.701 394.411 379.242 395.102L379.209 396.102L379.177 397.101C357.442 396.404 341.774 393.192 325.859 389.016L326.113 388.049ZM379.209 396.102L379.241 395.102C380.436 395.14 381.549 394.443 382.044 393.349L382.956 393.761L383.867 394.173C383.041 395.999 381.187 397.165 379.177 397.101L379.209 396.102ZM382.956 393.761L382.044 393.349C390.021 375.708 395.023 364.048 397.365 345.329L398.357 345.453L399.349 345.577C396.968 364.613 391.856 376.504 383.867 394.173L382.956 393.761ZM398.357 345.453L397.365 345.329C397.529 344.018 396.778 342.758 395.543 342.273L395.909 341.342L396.274 340.411C398.355 341.228 399.627 343.354 399.349 345.577L398.357 345.453Z" fill="#514B4B" style="fill:#514B4B;fill:color(display-p3 0.3176 0.2941 0.2941);fill-opacity:1;" mask="url(#path-8-inside-2_662_630)"/>
<path d="M303.712 425.253L304.524 433.878C304.653 435.253 305.873 436.263 307.247 436.133L326.164 434.353C327.538 434.223 328.548 433.004 328.418 431.63L327.607 423.005L303.712 425.253Z" fill="#352C2C" stroke="#514B4B" style="fill:#352C2C;fill:color(display-p3 0.2067 0.1729 0.1729);fill-opacity:1;stroke:#514B4B;stroke:color(display-p3 0.3173 0.2960 0.2960);stroke-opacity:1;"/>
<path d="M272.403 429.266C272.769 429.275 273.234 429.132 273.809 428.77C274.964 428.041 276.382 426.539 278.023 424.284C281.293 419.791 285.314 412.495 289.767 403.06C298.633 384.275 309.168 357.106 318.842 326.978C317.287 325.929 315.978 325.264 314.405 324.981C312.721 324.679 310.686 324.804 307.671 325.449L307.662 325.45L306.868 325.612C298.697 327.334 291.763 330.632 287.076 333.389C284.657 334.812 282.843 336.087 281.773 336.921C281.49 337.141 281.265 337.327 281.096 337.473L281.032 337.639C280.737 338.406 280.268 340.296 279.683 343.079C279.101 345.845 278.412 349.452 277.675 353.623C276.2 361.964 274.53 372.552 273.125 383.156C271.721 393.761 270.583 404.372 270.171 412.763C269.965 416.96 269.941 420.589 270.152 423.378C270.258 424.772 270.423 425.944 270.647 426.865C270.875 427.8 271.154 428.423 271.451 428.77C271.746 429.114 272.059 429.257 272.403 429.266Z" fill="#352C2C" stroke="#514B4B" style="fill:#352C2C;fill:color(display-p3 0.2067 0.1729 0.1729);fill-opacity:1;stroke:#514B4B;stroke:color(display-p3 0.3173 0.2960 0.2960);stroke-opacity:1;"/>
</svg>
