<svg width="510" height="580" viewBox="0 0 510 580" fill="none" xmlns="http://www.w3.org/2000/svg">
<path d="M290.865 233.642C298.344 235.965 302.406 243.481 300.095 250.353L300.086 250.379L300.078 250.407C299.52 252.43 298.177 254.741 295.654 256.434C293.137 258.123 289.355 259.259 283.817 258.774C281.254 258.549 278.033 257.934 275.34 257.146C273.992 256.751 272.806 256.321 271.913 255.89C271.466 255.674 271.113 255.469 270.857 255.28C270.589 255.082 270.487 254.948 270.459 254.896C270.427 254.836 270.37 254.663 270.345 254.312C270.322 253.978 270.333 253.554 270.381 253.048C270.478 252.036 270.711 250.789 271.022 249.453C271.644 246.786 272.552 243.873 273.2 242.009L273.203 242C275.515 235.129 283.386 231.319 290.865 233.642Z" fill="white" stroke="black" style="fill:white;fill-opacity:1;stroke:black;stroke-opacity:1;" stroke-width="2"/>
<path d="M219.288 233.642C211.809 235.965 207.747 243.481 210.058 250.353L210.067 250.379L210.076 250.407C210.633 252.43 211.976 254.741 214.499 256.434C217.016 258.123 220.798 259.259 226.336 258.774C228.899 258.549 232.12 257.934 234.813 257.146C236.161 256.751 237.347 256.321 238.24 255.89C238.687 255.674 239.04 255.469 239.296 255.28C239.564 255.082 239.666 254.948 239.694 254.896C239.726 254.836 239.783 254.663 239.808 254.312C239.831 253.978 239.82 253.554 239.772 253.048C239.675 252.036 239.442 250.789 239.131 249.453C238.51 246.786 237.601 243.873 236.953 242.009L236.95 242C234.639 235.129 226.767 231.319 219.288 233.642Z" fill="white" stroke="black" style="fill:white;fill-opacity:1;stroke:black;stroke-opacity:1;" stroke-width="2"/>
<path d="M289.544 232.278C296.84 233.66 302.13 239.901 301.676 247.049C301.648 250.921 299.481 256.203 292.055 258.838C284.86 258.73 279.06 252.764 279.06 245.418C279.06 238.95 283.557 233.549 289.544 232.278Z" fill="black" style="fill:black;fill-opacity:1;"/>
<path d="M228.373 232.662C232.762 234.01 236.405 237.245 237.905 241.704C239.215 245.477 241.586 253.492 240.587 255.37C239.919 256.624 236.185 257.954 232.209 258.838C225.053 258.684 219.299 252.735 219.299 245.418C219.299 239.468 223.104 234.423 228.373 232.662Z" fill="black" style="fill:black;fill-opacity:1;"/>
<line x1="1" y1="-1" x2="5.10483" y2="-1" transform="matrix(0.765412 0.64354 -0.67329 0.739378 207.657 234.187)" stroke="black" style="stroke:black;stroke-opacity:1;" stroke-width="2" stroke-linecap="round"/>
<line x1="1" y1="-1" x2="5.19298" y2="-1" transform="matrix(0.968417 0.249337 -0.268608 0.96325 204.552 240.152)" stroke="black" style="stroke:black;stroke-opacity:1;" stroke-width="2" stroke-linecap="round"/>
<line x1="1" y1="-1" x2="5.10483" y2="-1" transform="matrix(-0.765412 0.64354 0.67329 0.739378 302.359 234.187)" stroke="black" style="stroke:black;stroke-opacity:1;" stroke-width="2" stroke-linecap="round"/>
<line x1="1" y1="-1" x2="5.19298" y2="-1" transform="matrix(-0.968417 0.249337 0.268608 0.96325 305.464 240.152)" stroke="black" style="stroke:black;stroke-opacity:1;" stroke-width="2" stroke-linecap="round"/>
</svg>
