<svg width="510" height="580" viewBox="0 0 510 580" fill="none" xmlns="http://www.w3.org/2000/svg">
<path d="M282.97 242.5C282.97 246.642 279.612 250 275.47 250C271.328 250 267.97 246.642 267.97 242.5C267.97 238.358 271.328 235 275.47 235C279.612 235 282.97 238.358 282.97 242.5Z" fill="black" style="fill:black;fill-opacity:1;"/>
<path d="M238.97 242.5C238.97 246.642 235.612 250 231.47 250C227.328 250 223.97 246.642 223.97 242.5C223.97 238.358 227.328 235 231.47 235C235.612 235 238.97 238.358 238.97 242.5Z" fill="black" style="fill:black;fill-opacity:1;"/>
<path d="M231.97 240C231.97 241.657 230.627 243 228.97 243C227.313 243 225.97 241.657 225.97 240C225.97 238.343 227.313 237 228.97 237C230.627 237 231.97 238.343 231.97 240Z" fill="white" style="fill:white;fill-opacity:1;"/>
<path d="M275.836 240C275.836 241.657 274.493 243 272.836 243C271.179 243 269.836 241.657 269.836 240C269.836 238.343 271.179 237 272.836 237C274.493 237 275.836 238.343 275.836 240Z" fill="white" style="fill:white;fill-opacity:1;"/>
<path d="M237.97 242.5C237.97 243.881 236.85 245 235.47 245C234.089 245 232.97 243.881 232.97 242.5C232.97 241.119 234.089 240 235.47 240C236.85 240 237.97 241.119 237.97 242.5Z" fill="white" style="fill:white;fill-opacity:1;"/>
<path d="M281.836 242.5C281.836 243.881 280.717 245 279.336 245C277.955 245 276.836 243.881 276.836 242.5C276.836 241.119 277.955 240 279.336 240C280.717 240 281.836 241.119 281.836 242.5Z" fill="white" style="fill:white;fill-opacity:1;"/>
<path d="M232.97 246C232.97 247.105 232.074 248 230.97 248C229.865 248 228.97 247.105 228.97 246C228.97 244.895 229.865 244 230.97 244C232.074 244 232.97 244.895 232.97 246Z" fill="white" style="fill:white;fill-opacity:1;"/>
<path d="M276.836 246C276.836 247.105 275.941 248 274.836 248C273.731 248 272.836 247.105 272.836 246C272.836 244.895 273.731 244 274.836 244C275.941 244 276.836 244.895 276.836 246Z" fill="white" style="fill:white;fill-opacity:1;"/>
<path d="M241.752 250.853C242.252 251.353 242.39 254.832 236.252 252.853C234.35 253.424 234.911 255.353 232.252 255.353C229.232 255.455 227.4 252.279 225.97 253.499C224.541 254.719 218.663 254.706 222.243 251.353C219.91 248.218 220.569 243.33 226.743 248.126C228.969 248.499 229.038 249.499 231.469 249.499C233.798 249.499 236.973 246.903 238.752 247.352C244.752 248.352 240.752 249.353 241.752 250.853Z" fill="#78FFFF" style="fill:#78FFFF;fill:color(display-p3 0.4712 1.0000 1.0000);fill-opacity:1;"/>
<path d="M287.971 249.5C288.471 250 286.256 254.832 280.118 252.853C278.216 253.424 278.777 255.353 276.118 255.353C273.098 255.455 271.266 252.279 269.837 253.499C268.408 254.719 265.471 252.853 266.109 251.353C265.707 248.42 267.29 246.365 270.609 248.126C272.836 248.499 272.904 249.499 275.336 249.499C277.497 249.154 283.171 247.564 284.471 247.5C286.308 247.409 287.709 246.742 287.971 249.5Z" fill="#78FFFF" style="fill:#78FFFF;fill:color(display-p3 0.4712 1.0000 1.0000);fill-opacity:1;"/>
</svg>
