<svg width="510" height="580" viewBox="0 0 510 580" fill="none" xmlns="http://www.w3.org/2000/svg">
<path d="M230 249.5C230 257.508 223.508 264 215.5 264C207.492 264 201 257.508 201 249.5C201 241.492 207.492 235 215.5 235C223.508 235 230 241.492 230 249.5Z" fill="black" style="fill:black;fill-opacity:1;"/>
<path d="M216.329 243.286C216.329 245.574 214.474 247.429 212.186 247.429C209.898 247.429 208.043 245.574 208.043 243.286C208.043 240.998 209.898 239.143 212.186 239.143C214.474 239.143 216.329 240.998 216.329 243.286Z" fill="white" style="fill:white;fill-opacity:1;"/>
<path d="M309 249.5C309 257.508 302.508 264 294.5 264C286.492 264 280 257.508 280 249.5C280 241.492 286.492 235 294.5 235C302.508 235 309 241.492 309 249.5Z" fill="black" style="fill:black;fill-opacity:1;"/>
<path d="M295.329 243.286C295.329 245.574 293.474 247.429 291.186 247.429C288.898 247.429 287.043 245.574 287.043 243.286C287.043 240.998 288.898 239.143 291.186 239.143C293.474 239.143 295.329 240.998 295.329 243.286Z" fill="white" style="fill:white;fill-opacity:1;"/>
</svg>
