<svg width="510" height="580" viewBox="0 0 510 580" fill="none" xmlns="http://www.w3.org/2000/svg">
<path fill-rule="evenodd" clip-rule="evenodd" d="M238.116 233.992C238.213 234.35 238.029 234.728 237.706 234.836L219.338 240.941L219.329 240.943C218.503 241.187 217.217 241.36 216.039 241.049C215.443 240.892 214.848 240.603 214.361 240.108C213.866 239.605 213.513 238.92 213.368 238.037C213.308 237.668 213.528 237.315 213.861 237.248C214.193 237.181 214.512 237.426 214.572 237.794C214.672 238.402 214.9 238.816 215.188 239.109C215.483 239.408 215.871 239.611 216.323 239.73C217.237 239.972 218.301 239.842 219.005 239.636L237.354 233.537C237.678 233.429 238.019 233.633 238.116 233.992Z" fill="#1F1919" style="fill:#1F1919;fill:color(display-p3 0.1202 0.0988 0.0988);fill-opacity:1;"/>
<path d="M228.351 256.898C235.279 256.898 240.896 250.676 240.896 243C240.896 239.706 239.862 236.68 238.134 234.299C238.096 234.545 237.937 234.759 237.706 234.836L219.339 240.94L219.33 240.943C218.503 241.187 217.217 241.36 216.039 241.049C216.004 241.04 215.968 241.03 215.933 241.02C215.849 241.666 215.806 242.328 215.806 243C215.806 250.676 221.423 256.898 228.351 256.898Z" fill="#1F1919" style="fill:#1F1919;fill:color(display-p3 0.1202 0.0988 0.0988);fill-opacity:1;"/>
<path d="M223.465 239.568C224.634 240.099 225.448 241.284 225.448 242.661C225.448 244.533 223.944 246.051 222.09 246.051C220.235 246.051 218.732 244.533 218.731 242.661C218.731 242.051 218.892 241.479 219.171 240.984C219.225 240.97 219.278 240.958 219.329 240.943L219.339 240.94L223.465 239.568Z" fill="white" style="fill:white;fill-opacity:1;"/>
<path d="M216.165 239.684C217.507 233.609 222.454 229.102 228.351 229.102C231.967 229.102 235.225 230.797 237.515 233.508C237.462 233.51 237.408 233.519 237.354 233.537L219.005 239.636C218.302 239.842 217.237 239.972 216.323 239.73C216.269 239.716 216.217 239.701 216.165 239.684Z" fill="#FFAFA4" style="fill:#FFAFA4;fill:color(display-p3 1.0000 0.6847 0.6417);fill-opacity:1;"/>
<path fill-rule="evenodd" clip-rule="evenodd" d="M271.884 233.992C271.787 234.35 271.971 234.728 272.294 234.836L290.662 240.941L290.671 240.943C291.497 241.187 292.783 241.36 293.961 241.049C294.557 240.892 295.152 240.603 295.64 240.108C296.134 239.605 296.487 238.92 296.632 238.037C296.693 237.668 296.472 237.315 296.14 237.248C295.807 237.181 295.488 237.426 295.428 237.794C295.328 238.402 295.1 238.816 294.812 239.109C294.518 239.408 294.129 239.611 293.677 239.73C292.763 239.972 291.699 239.842 290.995 239.636L272.646 233.537C272.322 233.429 271.981 233.633 271.884 233.992Z" fill="#1F1919" style="fill:#1F1919;fill:color(display-p3 0.1202 0.0988 0.0988);fill-opacity:1;"/>
<path d="M281.649 256.898C274.721 256.898 269.105 250.676 269.105 243C269.105 239.706 270.139 236.68 271.867 234.299C271.904 234.545 272.064 234.759 272.294 234.836L290.662 240.94L290.671 240.943C291.497 241.187 292.783 241.36 293.961 241.049C293.997 241.04 294.032 241.03 294.068 241.02C294.151 241.666 294.194 242.328 294.194 243C294.194 250.676 288.578 256.898 281.649 256.898Z" fill="#1F1919" style="fill:#1F1919;fill:color(display-p3 0.1202 0.0988 0.0988);fill-opacity:1;"/>
<path d="M293.835 239.684C292.493 233.609 287.546 229.102 281.649 229.102C278.033 229.102 274.775 230.797 272.485 233.508C272.539 233.51 272.593 233.519 272.646 233.537L290.995 239.636C291.699 239.842 292.763 239.972 293.677 239.73C293.731 239.716 293.783 239.701 293.835 239.684Z" fill="#FFAFA4" style="fill:#FFAFA4;fill:color(display-p3 1.0000 0.6847 0.6417);fill-opacity:1;"/>
<ellipse cx="275.821" cy="242.661" rx="3.35821" ry="3.38983" fill="white" style="fill:white;fill-opacity:1;"/>
</svg>
