<svg width="510" height="580" viewBox="0 0 510 580" fill="none" xmlns="http://www.w3.org/2000/svg">
<path d="M218.5 237.5C225.369 237.5 230.5 242.102 230.5 248.5C230.5 255.127 225.127 260.5 218.5 260.5C212.082 260.5 206.5 254.346 206.5 247.5C206.5 244.242 207.789 241.834 209.82 240.19C211.907 238.501 214.938 237.5 218.5 237.5Z" fill="black" stroke="black" style="fill:black;fill-opacity:1;stroke:black;stroke-opacity:1;" stroke-width="5"/>
<path d="M228 245C228 247.496 222.253 247.5 219.5 247.5C216.746 247.5 212.551 244.996 212.551 242.5C212.551 240.004 216.298 239.517 219.051 239.517C221.805 239.517 228 242.504 228 245Z" fill="white" style="fill:white;fill-opacity:1;"/>
<path d="M212.5 249C210 250.5 208.944 249.896 208.5 249C207.872 247.733 208 247.563 208 246C208 244.436 210.443 244.587 211 245.5C212.041 247.208 212.5 247.436 212.5 249Z" fill="white" style="fill:white;fill-opacity:1;"/>
<path d="M227.5 253C227.5 250.504 221.254 251.5 218.5 251.5C215.747 251.5 210.5 251.004 210.5 253.5C210.5 255.996 215.747 258 218.5 258C221.254 258 227.5 255.496 227.5 253Z" fill="white" style="fill:white;fill-opacity:1;"/>
<path d="M289.5 237.5C296.369 237.5 301.5 242.102 301.5 248.5C301.5 255.127 296.127 260.5 289.5 260.5C283.082 260.5 277.5 254.346 277.5 247.5C277.5 244.242 278.789 241.834 280.82 240.19C282.907 238.501 285.938 237.5 289.5 237.5Z" fill="black" stroke="black" style="fill:black;fill-opacity:1;stroke:black;stroke-opacity:1;" stroke-width="5"/>
<path d="M299 245C299 247.496 293.253 247.5 290.5 247.5C287.746 247.5 283.551 244.996 283.551 242.5C283.551 240.004 287.298 239.517 290.051 239.517C292.805 239.517 299 242.504 299 245Z" fill="white" style="fill:white;fill-opacity:1;"/>
<path d="M283.5 249C281 250.5 279.944 249.896 279.5 249C278.872 247.733 279 247.563 279 246C279 244.436 281.443 244.587 282 245.5C283.041 247.208 283.5 247.436 283.5 249Z" fill="white" style="fill:white;fill-opacity:1;"/>
<path d="M298.5 253C298.5 250.504 292.254 251.5 289.5 251.5C286.747 251.5 281.5 251.004 281.5 253.5C281.5 255.996 286.747 258 289.5 258C292.254 258 298.5 255.496 298.5 253Z" fill="white" style="fill:white;fill-opacity:1;"/>
</svg>
