<svg width="510" height="580" viewBox="0 0 510 580" fill="none" xmlns="http://www.w3.org/2000/svg">
<ellipse cx="234.5" cy="243.505" rx="10.5" ry="11.5" fill="black" style="fill:black;fill-opacity:1;"/>
<g filter="url(#filter0_d_1240_9863)">
<circle cx="231.5" cy="239.505" r="4.5" fill="white" style="fill:white;fill-opacity:1;"/>
</g>
<g filter="url(#filter1_d_1240_9863)">
<circle cx="239.5" cy="248.505" r="2.5" fill="white" style="fill:white;fill-opacity:1;"/>
</g>
<path d="M285.971 243.5C285.971 249.851 281.27 255 275.471 255C269.672 255 264.971 249.851 264.971 243.5C264.971 237.149 269.672 232 275.471 232C281.27 232 285.971 237.149 285.971 243.5Z" fill="black" style="fill:black;fill-opacity:1;"/>
<g filter="url(#filter2_d_1240_9863)">
<circle cx="272.5" cy="239.505" r="4.5" fill="white" style="fill:white;fill-opacity:1;"/>
</g>
<g filter="url(#filter3_d_1240_9863)">
<circle cx="280.5" cy="248.505" r="2.5" fill="white" style="fill:white;fill-opacity:1;"/>
</g>
<rect x="262" y="228" width="48" height="36" fill="#A8E8FF" fill-opacity="0.21" style="fill:#A8E8FF;fill:color(display-p3 0.6587 0.9090 1.0000);fill-opacity:0.21;"/>
<rect x="200" y="228" width="48" height="36" fill="#A8E8FF" fill-opacity="0.21" style="fill:#A8E8FF;fill:color(display-p3 0.6587 0.9090 1.0000);fill-opacity:0.21;"/>
<path d="M198.072 225.414C201.59 223.806 246.753 223.27 249.26 225.414C252.274 229.704 250.768 262.411 249.26 265.092C246.753 267.773 208.614 270.454 198.072 265.092C195.064 259.731 195.566 227.023 198.072 225.414ZM245.442 229.247C243.345 227.521 205.554 227.953 202.611 229.247C200.515 230.545 200.095 256.868 202.611 261.183C211.432 265.498 243.345 263.341 245.442 261.183C246.704 259.025 247.964 232.702 245.442 229.247Z" fill="black" style="fill:black;fill-opacity:1;"/>
<path d="M260.072 225.414C263.59 223.806 308.753 223.27 311.26 225.414C314.274 229.704 312.768 262.411 311.26 265.092C308.753 267.773 270.614 270.454 260.072 265.092C257.064 259.731 257.566 227.023 260.072 225.414ZM307.442 229.247C305.345 227.521 267.554 227.953 264.611 229.247C262.515 230.545 262.095 256.868 264.611 261.183C273.432 265.498 305.345 263.341 307.442 261.183C308.704 259.025 309.964 232.702 307.442 229.247Z" fill="black" style="fill:black;fill-opacity:1;"/>
<path d="M250 238C253.658 237.279 255.627 237.438 259 238V241.5C255.488 241.095 253.511 241.021 250 241.5V238Z" fill="black" style="fill:black;fill-opacity:1;"/>
<defs>
<filter id="filter0_d_1240_9863" x="223" y="235.005" width="17" height="17" filterUnits="userSpaceOnUse" color-interpolation-filters="sRGB">
<feFlood flood-opacity="0" result="BackgroundImageFix"/>
<feColorMatrix in="SourceAlpha" type="matrix" values="0 0 0 0 0 0 0 0 0 0 0 0 0 0 0 0 0 0 127 0" result="hardAlpha"/>
<feOffset dy="4"/>
<feGaussianBlur stdDeviation="2"/>
<feComposite in2="hardAlpha" operator="out"/>
<feColorMatrix type="matrix" values="0 0 0 0 0 0 0 0 0 0 0 0 0 0 0 0 0 0 0.25 0"/>
<feBlend mode="normal" in2="BackgroundImageFix" result="effect1_dropShadow_1240_9863"/>
<feBlend mode="normal" in="SourceGraphic" in2="effect1_dropShadow_1240_9863" result="shape"/>
</filter>
<filter id="filter1_d_1240_9863" x="233" y="246.005" width="13" height="13" filterUnits="userSpaceOnUse" color-interpolation-filters="sRGB">
<feFlood flood-opacity="0" result="BackgroundImageFix"/>
<feColorMatrix in="SourceAlpha" type="matrix" values="0 0 0 0 0 0 0 0 0 0 0 0 0 0 0 0 0 0 127 0" result="hardAlpha"/>
<feOffset dy="4"/>
<feGaussianBlur stdDeviation="2"/>
<feComposite in2="hardAlpha" operator="out"/>
<feColorMatrix type="matrix" values="0 0 0 0 0 0 0 0 0 0 0 0 0 0 0 0 0 0 0.25 0"/>
<feBlend mode="normal" in2="BackgroundImageFix" result="effect1_dropShadow_1240_9863"/>
<feBlend mode="normal" in="SourceGraphic" in2="effect1_dropShadow_1240_9863" result="shape"/>
</filter>
<filter id="filter2_d_1240_9863" x="264" y="235.005" width="17" height="17" filterUnits="userSpaceOnUse" color-interpolation-filters="sRGB">
<feFlood flood-opacity="0" result="BackgroundImageFix"/>
<feColorMatrix in="SourceAlpha" type="matrix" values="0 0 0 0 0 0 0 0 0 0 0 0 0 0 0 0 0 0 127 0" result="hardAlpha"/>
<feOffset dy="4"/>
<feGaussianBlur stdDeviation="2"/>
<feComposite in2="hardAlpha" operator="out"/>
<feColorMatrix type="matrix" values="0 0 0 0 0 0 0 0 0 0 0 0 0 0 0 0 0 0 0.25 0"/>
<feBlend mode="normal" in2="BackgroundImageFix" result="effect1_dropShadow_1240_9863"/>
<feBlend mode="normal" in="SourceGraphic" in2="effect1_dropShadow_1240_9863" result="shape"/>
</filter>
<filter id="filter3_d_1240_9863" x="274" y="246.005" width="13" height="13" filterUnits="userSpaceOnUse" color-interpolation-filters="sRGB">
<feFlood flood-opacity="0" result="BackgroundImageFix"/>
<feColorMatrix in="SourceAlpha" type="matrix" values="0 0 0 0 0 0 0 0 0 0 0 0 0 0 0 0 0 0 127 0" result="hardAlpha"/>
<feOffset dy="4"/>
<feGaussianBlur stdDeviation="2"/>
<feComposite in2="hardAlpha" operator="out"/>
<feColorMatrix type="matrix" values="0 0 0 0 0 0 0 0 0 0 0 0 0 0 0 0 0 0 0.25 0"/>
<feBlend mode="normal" in2="BackgroundImageFix" result="effect1_dropShadow_1240_9863"/>
<feBlend mode="normal" in="SourceGraphic" in2="effect1_dropShadow_1240_9863" result="shape"/>
</filter>
</defs>
</svg>
