<svg width="510" height="580" viewBox="0 0 510 580" fill="none" xmlns="http://www.w3.org/2000/svg">
<g filter="url(#filter0_f_652_15971)">
<circle cx="233.833" cy="242.408" r="10.5" fill="#F3AEC1" style="fill:#F3AEC1;fill:color(display-p3 0.9529 0.6824 0.7569);fill-opacity:1;"/>
</g>
<circle cx="226.333" cy="249.908" r="11" fill="black" style="fill:black;fill-opacity:1;"/>
<circle cx="223.333" cy="247.908" r="3" fill="white" style="fill:white;fill-opacity:1;"/>
<path d="M233.333 249.908C234.74 250.429 235.116 253.448 231.836 256.408C228.555 259.368 224.333 258.513 224.334 257.408C224.334 256.408 226.054 256.869 229.334 253.909C232.614 250.949 232.297 249.524 233.333 249.908Z" fill="#D9D9D9" style="fill:#D9D9D9;fill:color(display-p3 0.8510 0.8510 0.8510);fill-opacity:1;"/>
<path d="M225.241 226.991C231.465 227.254 233.391 226.161 235.833 223.408C236.018 223.2 236.334 223 236.334 223" stroke="url(#paint0_linear_652_15971)" style="" stroke-width="3" stroke-linecap="round"/>
<g filter="url(#filter1_f_652_15971)">
<circle cx="10.5" cy="10.5" r="10.5" transform="matrix(-1 0 0 1 287.333 232.816)" fill="#F3AEC1" style="fill:#F3AEC1;fill:color(display-p3 0.9529 0.6824 0.7569);fill-opacity:1;"/>
</g>
<circle cx="284.333" cy="250.816" r="11" fill="black" style="fill:black;fill-opacity:1;"/>
<circle cx="281.333" cy="248.816" r="3" fill="white" style="fill:white;fill-opacity:1;"/>
<path d="M291.333 250.816C292.74 251.337 293.116 254.356 289.836 257.316C286.555 260.276 282.333 259.421 282.334 258.317C282.334 257.316 284.054 257.777 287.334 254.817C290.614 251.857 290.297 250.432 291.333 250.816Z" fill="#D9D9D9" style="fill:#D9D9D9;fill:color(display-p3 0.8510 0.8510 0.8510);fill-opacity:1;"/>
<path d="M285.426 227.899C279.202 228.163 277.276 227.07 274.833 224.317L274.251 223.908" stroke="url(#paint1_linear_652_15971)" style="" stroke-width="3" stroke-linecap="round"/>
<defs>
<filter id="filter0_f_652_15971" x="203.333" y="211.908" width="61" height="61" filterUnits="userSpaceOnUse" color-interpolation-filters="sRGB">
<feFlood flood-opacity="0" result="BackgroundImageFix"/>
<feBlend mode="normal" in="SourceGraphic" in2="BackgroundImageFix" result="shape"/>
<feGaussianBlur stdDeviation="10" result="effect1_foregroundBlur_652_15971"/>
</filter>
<filter id="filter1_f_652_15971" x="246.333" y="212.816" width="61" height="61" filterUnits="userSpaceOnUse" color-interpolation-filters="sRGB">
<feFlood flood-opacity="0" result="BackgroundImageFix"/>
<feBlend mode="normal" in="SourceGraphic" in2="BackgroundImageFix" result="shape"/>
<feGaussianBlur stdDeviation="10" result="effect1_foregroundBlur_652_15971"/>
</filter>
<linearGradient id="paint0_linear_652_15971" x1="225.517" y1="227.762" x2="236.691" y2="223.771" gradientUnits="userSpaceOnUse">
<stop stop-color="#666666" style="stop-color:#666666;stop-color:color(display-p3 0.4000 0.4000 0.4000);stop-opacity:1;"/>
<stop offset="1" style="stop-color:black;stop-opacity:1;"/>
</linearGradient>
<linearGradient id="paint1_linear_652_15971" x1="285.151" y1="228.671" x2="273.976" y2="224.68" gradientUnits="userSpaceOnUse">
<stop stop-color="#666666" style="stop-color:#666666;stop-color:color(display-p3 0.4000 0.4000 0.4000);stop-opacity:1;"/>
<stop offset="1" style="stop-color:black;stop-opacity:1;"/>
</linearGradient>
</defs>
</svg>
