<svg width="510" height="580" viewBox="0 0 510 580" fill="none" xmlns="http://www.w3.org/2000/svg">
<ellipse cx="234.5" cy="243.505" rx="10.5" ry="11.5" fill="black" style="fill:black;fill-opacity:1;"/>
<g filter="url(#filter0_d_1240_9923)">
<circle cx="231.5" cy="239.505" r="4.5" fill="white" style="fill:white;fill-opacity:1;"/>
</g>
<g filter="url(#filter1_d_1240_9923)">
<circle cx="239.5" cy="248.505" r="2.5" fill="white" style="fill:white;fill-opacity:1;"/>
</g>
<path d="M285.971 243.5C285.971 249.851 281.27 255 275.471 255C269.672 255 264.971 249.851 264.971 243.5C264.971 237.149 269.672 232 275.471 232C281.27 232 285.971 237.149 285.971 243.5Z" fill="black" style="fill:black;fill-opacity:1;"/>
<g filter="url(#filter2_d_1240_9923)">
<circle cx="272.5" cy="239.505" r="4.5" fill="white" style="fill:white;fill-opacity:1;"/>
</g>
<g filter="url(#filter3_d_1240_9923)">
<circle cx="280.5" cy="248.505" r="2.5" fill="white" style="fill:white;fill-opacity:1;"/>
</g>
<ellipse cx="229.5" cy="244" rx="19.5" ry="19" fill="#A4F6FF" fill-opacity="0.26" style="fill:#A4F6FF;fill:color(display-p3 0.6442 0.9644 1.0000);fill-opacity:0.26;"/>
<ellipse cx="279.5" cy="244" rx="19.5" ry="19" fill="#A4F6FF" fill-opacity="0.26" style="fill:#A4F6FF;fill:color(display-p3 0.6442 0.9644 1.0000);fill-opacity:0.26;"/>
<path d="M251 244C251 255.598 241.374 265 229.5 265C217.626 265 208 255.598 208 244C208 232.402 217.626 223 229.5 223C241.374 223 251 232.402 251 244ZM211.293 244C211.293 253.822 219.445 261.783 229.5 261.783C239.555 261.783 247.707 253.822 247.707 244C247.707 234.178 239.555 226.217 229.5 226.217C219.445 226.217 211.293 234.178 211.293 244Z" fill="black" style="fill:black;fill-opacity:1;"/>
<path d="M301 244C301 255.598 291.374 265 279.5 265C267.626 265 258 255.598 258 244C258 232.402 267.626 223 279.5 223C291.374 223 301 232.402 301 244ZM261.293 244C261.293 253.822 269.445 261.783 279.5 261.783C289.555 261.783 297.707 253.822 297.707 244C297.707 234.178 289.555 226.217 279.5 226.217C269.445 226.217 261.293 234.178 261.293 244Z" fill="black" style="fill:black;fill-opacity:1;"/>
<path d="M250 241.483C253.658 240.762 255.627 240.921 259 241.483V244.983C255.488 244.578 253.511 244.504 250 244.983V241.483Z" fill="black" style="fill:black;fill-opacity:1;"/>
<defs>
<filter id="filter0_d_1240_9923" x="223" y="235.005" width="17" height="17" filterUnits="userSpaceOnUse" color-interpolation-filters="sRGB">
<feFlood flood-opacity="0" result="BackgroundImageFix"/>
<feColorMatrix in="SourceAlpha" type="matrix" values="0 0 0 0 0 0 0 0 0 0 0 0 0 0 0 0 0 0 127 0" result="hardAlpha"/>
<feOffset dy="4"/>
<feGaussianBlur stdDeviation="2"/>
<feComposite in2="hardAlpha" operator="out"/>
<feColorMatrix type="matrix" values="0 0 0 0 0 0 0 0 0 0 0 0 0 0 0 0 0 0 0.25 0"/>
<feBlend mode="normal" in2="BackgroundImageFix" result="effect1_dropShadow_1240_9923"/>
<feBlend mode="normal" in="SourceGraphic" in2="effect1_dropShadow_1240_9923" result="shape"/>
</filter>
<filter id="filter1_d_1240_9923" x="233" y="246.005" width="13" height="13" filterUnits="userSpaceOnUse" color-interpolation-filters="sRGB">
<feFlood flood-opacity="0" result="BackgroundImageFix"/>
<feColorMatrix in="SourceAlpha" type="matrix" values="0 0 0 0 0 0 0 0 0 0 0 0 0 0 0 0 0 0 127 0" result="hardAlpha"/>
<feOffset dy="4"/>
<feGaussianBlur stdDeviation="2"/>
<feComposite in2="hardAlpha" operator="out"/>
<feColorMatrix type="matrix" values="0 0 0 0 0 0 0 0 0 0 0 0 0 0 0 0 0 0 0.25 0"/>
<feBlend mode="normal" in2="BackgroundImageFix" result="effect1_dropShadow_1240_9923"/>
<feBlend mode="normal" in="SourceGraphic" in2="effect1_dropShadow_1240_9923" result="shape"/>
</filter>
<filter id="filter2_d_1240_9923" x="264" y="235.005" width="17" height="17" filterUnits="userSpaceOnUse" color-interpolation-filters="sRGB">
<feFlood flood-opacity="0" result="BackgroundImageFix"/>
<feColorMatrix in="SourceAlpha" type="matrix" values="0 0 0 0 0 0 0 0 0 0 0 0 0 0 0 0 0 0 127 0" result="hardAlpha"/>
<feOffset dy="4"/>
<feGaussianBlur stdDeviation="2"/>
<feComposite in2="hardAlpha" operator="out"/>
<feColorMatrix type="matrix" values="0 0 0 0 0 0 0 0 0 0 0 0 0 0 0 0 0 0 0.25 0"/>
<feBlend mode="normal" in2="BackgroundImageFix" result="effect1_dropShadow_1240_9923"/>
<feBlend mode="normal" in="SourceGraphic" in2="effect1_dropShadow_1240_9923" result="shape"/>
</filter>
<filter id="filter3_d_1240_9923" x="274" y="246.005" width="13" height="13" filterUnits="userSpaceOnUse" color-interpolation-filters="sRGB">
<feFlood flood-opacity="0" result="BackgroundImageFix"/>
<feColorMatrix in="SourceAlpha" type="matrix" values="0 0 0 0 0 0 0 0 0 0 0 0 0 0 0 0 0 0 127 0" result="hardAlpha"/>
<feOffset dy="4"/>
<feGaussianBlur stdDeviation="2"/>
<feComposite in2="hardAlpha" operator="out"/>
<feColorMatrix type="matrix" values="0 0 0 0 0 0 0 0 0 0 0 0 0 0 0 0 0 0 0.25 0"/>
<feBlend mode="normal" in2="BackgroundImageFix" result="effect1_dropShadow_1240_9923"/>
<feBlend mode="normal" in="SourceGraphic" in2="effect1_dropShadow_1240_9923" result="shape"/>
</filter>
</defs>
</svg>
