<svg width="510" height="580" viewBox="0 0 510 580" fill="none" xmlns="http://www.w3.org/2000/svg">
<path d="M155.917 287.115C162.387 304.249 174.019 318.592 189.218 328.972C181.183 329.722 172.676 330.843 163.865 332.295L155.917 287.115ZM342.954 331.693C333.3 330.191 324.047 329.1 315.425 328.479C331.244 317.67 343.296 302.685 349.666 284.8H350.51L342.954 331.693Z" fill="#BF788B" style="fill:#BF788B;fill:color(display-p3 0.7490 0.4706 0.5451);fill-opacity:1;"/>
<rect x="132.904" y="179.8" width="43" height="20" rx="3" transform="rotate(18.073 132.904 179.8)" fill="#4186B2" style="fill:#4186B2;fill:color(display-p3 0.2549 0.5255 0.6980);fill-opacity:1;"/>
<rect width="43" height="20" rx="3" transform="matrix(0.950662 -0.310228 -0.310228 -0.950662 132.904 228.153)" fill="#D5B55E" style="fill:#D5B55E;fill:color(display-p3 0.8365 0.7116 0.3700);fill-opacity:1;"/>
<path d="M152.201 195.8L174.7 211.3C160.569 243.624 154.739 294.699 174.2 364.8C169.202 364.8 153.567 359.638 152.2 325.638C158.971 355.764 142.049 365.356 138.201 372.3C139.556 339.804 127.854 262.574 152.201 195.8Z" fill="#DEA4B1" style="fill:#DEA4B1;fill:color(display-p3 0.8702 0.6443 0.6956);fill-opacity:1;"/>
<path d="M351.338 180.8L334.235 191.829C358.324 278.658 348.408 307.806 323.2 362.786C329.823 360.781 348.121 360.269 355.203 327.191C353.799 363.243 357.432 362.762 356.303 367.8C375.165 336.794 376.059 239.189 351.338 180.8Z" fill="#DEA4B1" style="fill:#DEA4B1;fill:color(display-p3 0.8702 0.6443 0.6956);fill-opacity:1;"/>
<path d="M201.802 137.184C220.756 125.731 264.766 118.683 308.328 137.184C324.155 143.906 338.482 152.89 346.924 168.477C360.929 194.335 368.137 233.983 357.839 270.8C357.839 241.48 327.194 253.741 309.183 182.307C309.759 175.861 301.472 240.826 292.202 239.348C296.319 229.219 284.998 231.351 283.454 175.91C280.608 195.805 267.936 238.681 256.696 239.881C260.813 233.591 262.356 207.895 255.152 171.645C247.224 232.624 248.977 231.884 253.094 239.348C243.831 233.484 233.54 206.529 227.365 176.976C222.219 188.171 211.161 211.312 209.354 239.881C209.354 239.881 184.836 215.359 197.7 182.307C191.202 190.22 168.365 212.152 163.042 251.076C163.587 251.35 147.353 244.353 148.79 202.831C149.249 189.571 160.888 172.245 165.267 167.147C175.444 155.302 184.643 145.936 201.802 137.184Z" fill="#E7A5B4" style="fill:#E7A5B4;fill:color(display-p3 0.9059 0.6471 0.7059);fill-opacity:1;"/>
</svg>
