<svg width="510" height="580" viewBox="0 0 510 580" fill="none" xmlns="http://www.w3.org/2000/svg">
<path d="M197.177 139.859C217.19 129.334 284.61 132.206 306.094 139.859C321.978 145.517 329.21 151.651 342.067 168.559C354.923 185.467 360.659 267.703 351.56 279.533C350.076 281.463 348.57 236.622 346.064 224.046C316.031 224.046 290.526 222.572 290.526 222.572L281.114 176.691C281.114 176.691 290.614 221.908 282.612 221.908C274.61 221.908 243.642 221.908 227.654 221.908C231.651 211.5 230.652 176.691 230.652 176.691C230.652 176.691 229.935 222.262 217.162 222.572C204.39 222.883 167.921 224.046 165.701 224.046C153.646 237.45 148.956 286.806 152.212 279.533C138.057 265.655 143.339 189.648 159.378 170.45C174.541 152.299 179.06 147.901 197.177 139.859Z" fill="#333131" style="fill:#333131;fill:color(display-p3 0.2000 0.1922 0.1922);fill-opacity:1;"/>
</svg>
