<svg width="510" height="580" viewBox="0 0 510 580" fill="none" xmlns="http://www.w3.org/2000/svg">
<path d="M171.332 167.515C181.021 158.202 203.721 138.128 253.345 138.128C287.977 136.513 323.848 150.508 333.476 161.02C366.371 196.934 361.182 259 361.182 259C342.189 222.072 334.192 199.61 300.557 172.387C222.779 192.075 192.004 214.345 142.724 259C142.724 259 137.89 199.657 171.332 167.515Z" fill="#333131" style="fill:#333131;fill:color(display-p3 0.2000 0.1922 0.1922);fill-opacity:1;"/>
<path d="M185.403 383.648C185.006 385.284 184.628 386.923 184.269 388.562C174.876 388.846 166.029 389.044 158.001 389.098C160.015 388.755 162.093 388.389 164.236 387.995C171.544 386.654 178.632 385.204 185.403 383.648ZM322.113 383.274C325.109 383.975 328.17 384.653 331.286 385.312C328.47 385.192 325.554 385.1 322.55 385.029C322.406 384.444 322.262 383.859 322.113 383.274ZM360.894 235.909C360.531 253.945 378.173 302.384 380.75 339.516C373.4 337.426 364.588 335.45 354.094 333.523C340.141 330.962 326.799 329.167 314.698 328.295C338.672 311.915 353.997 285.942 353.997 254.817C353.997 248.409 353.346 242.071 352.104 235.877L360.894 235.909ZM152.763 235.148C150.818 242.081 149.697 248.749 149.453 254.817C149.453 286.256 164.55 312.437 188.491 328.787C178.017 329.765 166.739 331.374 155.032 333.523C144.833 335.396 136.224 337.316 129 339.341C133.155 319.282 138.081 287.276 143.545 235.115L152.763 235.148Z" fill="#333131" style="fill:#333131;fill:color(display-p3 0.2000 0.1922 0.1922);fill-opacity:1;"/>
</svg>
