<svg width="510" height="580" viewBox="0 0 510 580" fill="none" xmlns="http://www.w3.org/2000/svg">
<path d="M201.345 138.392C207.082 162.502 231.556 176.819 256.009 170.371C280.462 163.923 295.634 139.15 289.897 115.04C284.16 90.9306 254.452 82.0513 230 88.4996C205.547 94.9479 195.608 114.282 201.345 138.392Z" fill="url(#paint0_linear_1267_2131)" style=""/>
<path d="M165 167C174.689 157.688 200.875 124 250.5 124C285.132 122.385 328.371 147.488 338 158C370.894 193.915 358.134 260 358.134 260C339.141 223.072 331.144 200.61 297.509 173.388C219.731 193.075 198.78 215.345 149.5 260C149.5 260 131.557 199.142 165 167Z" fill="#333131" style="fill:#333131;fill:color(display-p3 0.2000 0.1922 0.1922);fill-opacity:1;"/>
<path d="M326 192.101C335.072 191.814 343.351 199.803 350.13 211.792C356.909 223.781 362.529 249.954 363.043 267.196C363.557 284.438 364.54 295.458 358.488 307.853C352.437 320.248 343.43 325.545 334.358 325.832C343.599 317.9 355.917 315.555 356.433 295.691C356.433 282.221 355.859 277.712 354.381 263.963C352.327 251.272 349.758 236.995 346.536 227.656C342.653 213.039 335.427 202.378 326 192.101Z" fill="#333131" style="fill:#333131;fill:color(display-p3 0.2000 0.1922 0.1922);fill-opacity:1;"/>
<path d="M178.782 191.101C169.71 190.814 161.431 198.803 154.652 210.792C147.873 222.781 142.254 248.954 141.739 266.196C141.225 283.438 140.242 294.458 146.294 306.853C152.345 319.248 161.352 324.545 170.424 324.832C161.183 316.9 148.865 314.555 148.349 294.691C148.349 281.221 148.923 276.712 150.401 262.963C152.455 250.272 155.024 235.995 158.246 226.656C162.13 212.039 169.355 201.378 178.782 191.101Z" fill="#333131" style="fill:#333131;fill:color(display-p3 0.2000 0.1922 0.1922);fill-opacity:1;"/>
<defs>
<linearGradient id="paint0_linear_1267_2131" x1="246" y1="48.5" x2="256.459" y2="191.247" gradientUnits="userSpaceOnUse">
<stop offset="0.495192" stop-color="#333131" style="stop-color:#333131;stop-color:color(display-p3 0.2000 0.1922 0.1922);stop-opacity:1;"/>
<stop offset="1" stop-color="#565656" style="stop-color:#565656;stop-color:color(display-p3 0.3365 0.3365 0.3365);stop-opacity:1;"/>
</linearGradient>
</defs>
</svg>
