<svg width="510" height="580" viewBox="0 0 510 580" fill="none" xmlns="http://www.w3.org/2000/svg">
<path d="M197.283 209C193.746 206.6 199.605 187.833 199.605 181C184.211 221.462 182.977 296.31 206.677 354C192.615 353.625 138.711 366.1 129.428 338.5C117.823 304 135.908 182.733 180.265 158.5C209.552 142.5 226.682 141 257.073 141C287.465 141 301.28 142.5 330.566 158.5C374.923 182.733 393.197 304 381.592 338.5C372.309 366.1 325.476 353.625 311.415 354C335.114 296.31 326.809 221.462 311.415 181C311.415 187.833 319.071 206.6 315.535 209C311.998 211.4 275.309 216 258.731 216C242.154 216 200.819 211.4 197.283 209Z" fill="#333131" style="fill:#333131;fill:color(display-p3 0.2000 0.1922 0.1922);fill-opacity:1;"/>
</svg>
