<svg width="510" height="580" viewBox="0 0 510 580" fill="none" xmlns="http://www.w3.org/2000/svg">
<path d="M340.371 196.115C344.735 196.539 348.432 199.526 349.797 203.692C362.967 243.886 373.104 270.33 373.129 309.083C373.131 312.736 371.24 316.165 368.021 317.892C352.995 325.957 335.574 328.871 316.034 329.504C337.615 313.427 351.232 289.03 351.232 260.063C351.232 235.862 341.728 212.689 326.016 194.72L340.371 196.115ZM183.302 189.892C163.375 211.06 151.908 239.187 151.066 260.063C151.066 287.972 163.269 311.639 183.083 327.71C168.788 327.061 155.82 326.24 146.185 325.625C138.457 325.131 132.668 316.788 134.267 309.211C140.328 280.478 147.148 227.564 157.142 197.589C158.504 193.502 162.327 190.83 166.631 190.637L183.302 189.892Z" fill="#333131" style="fill:#333131;fill:color(display-p3 0.2019 0.1922 0.1922);fill-opacity:1;"/>
<path d="M202.09 155.728C220.118 146.3 259.625 142.634 303.623 154.355C318.44 162.493 331.675 168.278 340.801 181.511C346.576 193.643 350.24 200.509 351.122 213.202C352.045 232.106 342.283 228.638 321.087 228.557C312.123 228.522 281.123 228.068 285.623 227.091C290.123 226.115 280.124 198.059 280.124 198.059C281.786 197.86 276.684 227.32 269.619 227.687C262.554 228.053 222.625 229.045 226.125 227.091C229.625 225.138 224.121 198.059 224.121 198.059C224.121 198.059 217.125 227.58 205.996 227.849C194.867 228.118 182.126 228.068 180.126 228.068C178.127 228.068 153.686 228.221 155.127 209.784C156.638 197.085 158.94 190.674 165.331 180.347C171.789 170.109 185.771 162.932 202.09 155.728Z" fill="#333131" style="fill:#333131;fill:color(display-p3 0.2019 0.1922 0.1922);fill-opacity:1;"/>
</svg>
