<svg width="510" height="580" viewBox="0 0 510 580" fill="none" xmlns="http://www.w3.org/2000/svg">
<path d="M185.414 383.975C184.612 387.278 183.887 390.593 183.236 393.899C157.329 394.696 135.658 394.802 124 392.919C133.81 393.039 146.874 391.512 164.247 388.323C171.555 386.981 178.642 385.53 185.414 383.975ZM322.124 383.602C329.379 385.299 337.011 386.875 344.9 388.323C350.581 389.366 355.802 390.229 360.598 390.917C356.665 391.842 352.08 392.091 346.761 391.561C339.98 390.885 332.208 390.467 323.714 390.246C323.213 388.026 322.684 385.809 322.124 383.602ZM362.189 242.411C361.844 260.071 377.442 304.173 381.018 339.917C373.616 337.8 364.721 335.8 354.104 333.851C340.152 331.29 326.81 329.494 314.709 328.623C338.683 312.242 354.008 286.269 354.008 255.144C354.008 250.762 353.702 246.414 353.113 242.122L362.189 242.411ZM152.699 235.741C150.801 242.578 149.705 249.153 149.464 255.144C149.464 286.582 164.56 312.764 188.501 329.114C178.027 330.092 166.749 331.702 155.043 333.851C145.026 335.69 136.543 337.574 129.399 339.559C133.417 318.682 138.114 286.365 143.294 235.442L152.699 235.741Z" fill="#333131" style="fill:#333131;fill:color(display-p3 0.2000 0.1922 0.1922);fill-opacity:1;"/>
<path d="M197.874 131.936C217.902 120.934 264.405 114.164 310.434 131.935C327.157 138.392 342.277 147.033 351.216 161.993C358.779 174.652 360.576 189.797 361.403 202.297C361.569 204.797 339.403 208.297 350.403 216.797C358.284 222.886 291.403 215.902 291.403 215.902H286.403C286.403 215.902 280.903 215.902 272.895 215.902C264.887 215.902 220.687 217.487 224.575 215.207C228.463 212.928 224.575 169.422 224.575 169.422C224.575 169.422 214.577 215.777 202.213 216.091C189.849 216.405 175.694 216.347 173.473 216.347C171.251 216.347 147.607 206.083 145.903 201.797C147.581 186.979 150.616 175.153 160.156 161.418C170.821 146.063 179.743 140.342 197.874 131.936Z" fill="#333131" style="fill:#333131;fill:color(display-p3 0.2000 0.1922 0.1922);fill-opacity:1;"/>
<path d="M321.903 179.016C331.945 178.698 349.352 179.974 356.737 189.297C364.123 198.62 361.767 223.964 362.169 237.466C362.572 250.968 359.431 275.025 352.615 284.797C345.799 294.569 353 290 344.5 298C351.743 290.572 353.877 262.297 353.903 258.797C353.974 249.178 353.478 243.145 352.615 235.022C351.753 226.9 347.761 213.943 344.285 206.659C340.128 195.248 332.236 186.97 321.903 179.016Z" fill="#333131" style="fill:#333131;fill:color(display-p3 0.2000 0.1922 0.1922);fill-opacity:1;"/>
<path d="M183.611 185.036C173.569 184.719 157.369 179.177 149.984 188.5C142.598 197.823 142.886 229.998 142.484 243.5C142.081 257.002 146.083 281.046 152.899 290.818C159.715 300.59 156.111 295.318 164.611 303.318C157.368 295.89 151.637 268.318 151.611 264.818C151.54 255.199 152.036 249.165 152.899 241.043C153.761 232.921 157.753 219.964 161.229 212.68C165.385 201.269 173.278 192.99 183.611 185.036Z" fill="#333131" style="fill:#333131;fill:color(display-p3 0.2000 0.1922 0.1922);fill-opacity:1;"/>
</svg>
