<svg width="510" height="580" viewBox="0 0 510 580" fill="none" xmlns="http://www.w3.org/2000/svg">
<path d="M210.086 138.209C235.086 132.85 271.086 132.35 295.586 138.209C312.104 142.159 323.832 145.552 342.086 163.35C362.086 182.85 366.023 264.352 352.587 277.883C350.871 279.611 349.594 234.971 347.086 222.396C317.03 222.396 271.086 220.922 271.086 220.922C281.305 202.706 278.887 193.985 277.586 176.35C277.586 176.35 273.594 171.35 265.586 171.35C257.578 171.35 281.586 171.35 265.586 171.35C269.586 160.942 231.586 176.35 231.586 176.35C231.586 176.35 230.869 220.612 218.087 220.922C205.304 221.233 168.808 222.396 166.586 222.396C154.522 235.8 149.829 285.156 153.087 277.883C138.922 264.005 140.037 187.622 165.586 163.35C185.586 144.35 191.086 144.35 210.086 138.209Z" fill="#333131" style="fill:#333131;fill:color(display-p3 0.2000 0.1922 0.1922);fill-opacity:1;"/>
</svg>
