<svg width="510" height="580" viewBox="0 0 510 580" fill="none" xmlns="http://www.w3.org/2000/svg">
<path d="M322.733 401.46C328.305 402.763 334.098 403.993 340.059 405.15L335.901 446.3C334.084 446.66 332.305 447.007 330.56 447.345C330.214 444.214 329.826 441.171 329.386 438.238C328.036 426.288 325.85 413.734 322.733 401.46ZM186.023 401.832C183.818 410.917 182.187 420.086 181.11 428.942C180.269 433.762 179.618 439.03 179.119 444.618C176.445 444.194 173.706 443.755 170.901 443.3L166.767 405.824C173.4 404.582 179.843 403.251 186.023 401.832ZM155.592 304.538C162.017 321.928 173.741 336.476 189.11 346.972C180.149 347.808 170.6 349.108 160.697 350.812L155.592 304.538ZM345.617 350.136C334.961 348.405 324.762 347.16 315.318 346.479C331.137 335.671 343.188 320.685 349.558 302.8H350.4L345.617 350.136Z" fill="#27253A" style="fill:#27253A;fill:color(display-p3 0.1529 0.1451 0.2275);fill-opacity:1;"/>
<path d="M160.259 212.8L178.544 228.344C167.059 260.759 162.321 311.979 178.138 382.279C174.076 382.279 161.368 377.102 160.258 343.006C165.761 373.217 152.008 382.836 148.88 389.8C149.981 357.212 140.471 279.763 160.259 212.8Z" fill="#434457" style="fill:#434457;fill:color(display-p3 0.2627 0.2667 0.3412);fill-opacity:1;"/>
<path d="M337.9 188.8L320.4 201.8C344.489 288.629 355.108 324.306 329.9 379.286C341.127 370.524 352.411 326.538 350.403 306.8C349.482 339.259 364.22 377.299 369.903 379.286C363.389 354.203 359.4 210.3 337.9 188.8Z" fill="#434457" style="fill:#434457;fill:color(display-p3 0.2627 0.2667 0.3412);fill-opacity:1;"/>
<path d="M200.738 164.769C228.822 152.266 260.779 143.264 314.526 164.769C339.221 179.773 344.477 192.308 349.387 208.78C358.387 238.964 344.545 251.791 342.609 265.794C336.785 242.93 308.545 212.236 295.158 206.279C295.158 215.282 290.316 243.288 282.568 248.79C284.021 246.789 272.792 197.431 277.241 196.277C272.094 213.743 270.462 242.288 259.325 257.792C258.82 249.84 240.102 241.023 242.862 198.277C232.21 214.781 222.896 237.181 221.557 261.793C213.326 251.291 209.936 220.283 221.557 200.278C204.25 212.353 189.764 262.19 200.738 265.794C196.38 266.467 179.486 248.644 192.506 221.283C171.685 243.288 165.124 282.13 169.264 289.8C151.911 285.414 157.086 223.984 167.326 214.781C145.127 261.898 152.315 269.295 160.064 281.298C136.003 274.339 136.097 227.44 162.97 196.277C182.148 174.038 184.602 173.281 200.738 164.769Z" fill="#6B6C8A" style="fill:#6B6C8A;fill:color(display-p3 0.4196 0.4235 0.5412);fill-opacity:1;"/>
<path d="M328.4 185.3L312.434 201.829C330.394 288.646 321.122 324.301 304.4 379.3C307.529 378.344 320.303 347.024 329.538 313.3C318.164 356.158 332.4 374.3 334.503 377.8C332.401 346.3 358.763 320.3 328.4 185.3Z" fill="url(#paint0_linear_1220_10862)" style=""/>
<rect x="312.741" y="212.589" width="26" height="3" rx="1" transform="rotate(-15.5543 312.741 212.589)" fill="#DADADA" style="fill:#DADADA;fill:color(display-p3 0.8558 0.8558 0.8558);fill-opacity:1;"/>
<rect x="331.631" y="202.141" width="14" height="3" rx="1" transform="rotate(74.4457 331.631 202.141)" fill="#DADADA" style="fill:#DADADA;fill:color(display-p3 0.8558 0.8558 0.8558);fill-opacity:1;"/>
<defs>
<linearGradient id="paint0_linear_1220_10862" x1="318.9" y1="195.8" x2="350.4" y2="376.3" gradientUnits="userSpaceOnUse">
<stop stop-color="#6B6C8A" style="stop-color:#6B6C8A;stop-color:color(display-p3 0.4196 0.4235 0.5412);stop-opacity:1;"/>
<stop offset="1" stop-color="#1B1C23" style="stop-color:#1B1C23;stop-color:color(display-p3 0.1042 0.1082 0.1373);stop-opacity:1;"/>
</linearGradient>
</defs>
</svg>
