<svg width="510" height="580" viewBox="0 0 510 580" fill="none" xmlns="http://www.w3.org/2000/svg">
<path d="M322.733 383.66C328.305 384.963 334.098 386.194 340.059 387.351L335.901 428.5C334.084 428.86 332.305 429.207 330.56 429.545C330.214 426.414 329.826 423.372 329.386 420.438C328.036 408.488 325.85 395.934 322.733 383.66ZM186.023 384.032C183.818 393.117 182.187 402.287 181.11 411.143C180.269 415.962 179.618 421.23 179.119 426.818C176.445 426.394 173.706 425.955 170.901 425.5L166.767 388.024C173.4 386.783 179.843 385.452 186.023 384.032ZM155.592 286.738C162.017 304.128 173.741 318.676 189.11 329.172C180.149 330.009 170.6 331.308 160.697 333.012L155.592 286.738ZM345.617 332.336C334.961 330.606 324.762 329.36 315.318 328.68C331.137 317.871 343.188 302.886 349.558 285H350.4L345.617 332.336Z" fill="#27253A" style="fill:#27253A;fill:color(display-p3 0.1529 0.1451 0.2275);fill-opacity:1;"/>
<path d="M160.259 195L178.544 210.544C167.059 242.959 162.321 294.179 178.138 364.479C174.076 364.479 161.368 359.303 160.258 325.206C165.761 355.417 152.008 365.037 148.88 372C149.981 339.412 140.471 261.963 160.259 195Z" fill="#434457" style="fill:#434457;fill:color(display-p3 0.2627 0.2667 0.3412);fill-opacity:1;"/>
<path d="M337.9 171L320.4 184C344.489 270.829 355.108 306.507 329.9 361.487C341.127 352.724 352.411 308.738 350.403 289C349.482 321.459 364.22 359.499 369.903 361.487C363.389 336.403 359.4 192.5 337.9 171Z" fill="#434457" style="fill:#434457;fill:color(display-p3 0.2627 0.2667 0.3412);fill-opacity:1;"/>
<path d="M200.738 146.969C228.822 134.466 260.779 125.464 314.526 146.97C339.221 161.973 344.477 174.508 349.387 190.98C358.387 221.164 344.545 233.991 342.609 247.994C336.785 225.13 308.545 194.436 295.158 188.48C295.158 197.482 290.316 225.489 282.568 230.99C284.021 228.99 272.792 179.631 277.241 178.477C272.094 195.943 270.462 224.488 259.325 239.992C258.82 232.04 240.102 223.223 242.862 180.477C232.21 196.982 222.896 219.381 221.557 243.993C213.326 233.491 209.936 202.483 221.557 182.478C204.25 194.553 189.764 244.39 200.738 247.994C196.38 248.667 179.486 230.844 192.506 203.483C171.685 225.489 165.124 264.33 169.264 272C151.911 267.614 157.086 206.185 167.326 196.982C145.127 244.099 152.315 251.495 160.064 263.498C136.003 256.539 136.097 209.64 162.97 178.477C182.148 156.238 184.602 155.482 200.738 146.969Z" fill="#6B6C8A" style="fill:#6B6C8A;fill:color(display-p3 0.4196 0.4235 0.5412);fill-opacity:1;"/>
<path d="M328.4 167.5L312.434 184.029C330.394 270.846 321.122 306.501 304.4 361.5C307.529 360.544 320.303 329.224 329.538 295.5C318.164 338.358 332.4 356.5 334.503 360C332.401 328.5 358.763 302.5 328.4 167.5Z" fill="url(#paint0_linear_1220_10862)" style=""/>
<rect x="312.741" y="194.79" width="26" height="3" rx="1" transform="rotate(-15.5543 312.741 194.79)" fill="#DADADA" style="fill:#DADADA;fill:color(display-p3 0.8558 0.8558 0.8558);fill-opacity:1;"/>
<rect x="331.631" y="184.341" width="14" height="3" rx="1" transform="rotate(74.4457 331.631 184.341)" fill="#DADADA" style="fill:#DADADA;fill:color(display-p3 0.8558 0.8558 0.8558);fill-opacity:1;"/>
<defs>
<linearGradient id="paint0_linear_1220_10862" x1="318.9" y1="178" x2="350.4" y2="358.5" gradientUnits="userSpaceOnUse">
<stop stop-color="#6B6C8A" style="stop-color:#6B6C8A;stop-color:color(display-p3 0.4196 0.4235 0.5412);stop-opacity:1;"/>
<stop offset="1" stop-color="#1B1C23" style="stop-color:#1B1C23;stop-color:color(display-p3 0.1042 0.1082 0.1373);stop-opacity:1;"/>
</linearGradient>
</defs>
</svg>
