<svg width="510" height="580" viewBox="0 0 510 580" fill="none" xmlns="http://www.w3.org/2000/svg">
<path d="M201.976 150.95C220.382 140.84 263.118 134.618 305.42 150.95C320.788 156.884 334.684 164.825 342.899 178.574C349.849 190.207 353.233 198.972 354.134 212.583C355.076 232.855 345.11 229.136 323.469 229.049C314.316 229.012 282.667 228.525 287.261 227.478C291.855 226.43 281.646 196.344 281.646 196.344C283.343 196.131 278.134 227.722 270.921 228.116C263.708 228.509 222.941 229.572 226.515 227.478C230.088 225.383 224.468 196.344 224.468 196.344C224.468 196.344 217.326 228.001 205.964 228.29C194.601 228.578 181.593 228.525 179.551 228.525C177.509 228.525 152.556 228.689 154.027 208.917C155.569 195.3 160.787 189.12 167.312 178.045C177.067 167.469 185.314 158.676 201.976 150.95Z" fill="#333131" style="fill:#333131;fill:color(display-p3 0.2000 0.1922 0.1922);fill-opacity:1;"/>
<path d="M181.818 325.533C178.637 327.515 174.868 328.245 171.205 327.589C167.542 326.932 164.234 324.933 161.89 321.961C159.547 318.988 158.326 315.243 158.453 311.416C158.58 307.59 158.962 304.2 161.498 301.4C164.291 306.57 166.415 308.598 170.498 313.4C174.387 318.851 177.47 321.657 181.818 325.533Z" fill="#333131" style="fill:#333131;fill:color(display-p3 0.2000 0.1922 0.1922);fill-opacity:1;"/>
<ellipse cx="15.5024" cy="15.766" rx="15.5024" ry="15.766" transform="matrix(0.880621 0.473821 -0.452347 0.891842 151.798 313.944)" fill="#333131" style="fill:#333131;fill:color(display-p3 0.2000 0.1922 0.1922);fill-opacity:1;"/>
<ellipse cx="15.5024" cy="15.766" rx="15.5024" ry="15.766" transform="matrix(0.880621 0.473821 -0.452347 0.891842 141.006 335.096)" fill="#333131" style="fill:#333131;fill:color(display-p3 0.2000 0.1922 0.1922);fill-opacity:1;"/>
<path d="M147.985 390.764C142.432 401.713 137.108 392.89 129.568 388.833C122.029 384.777 115.128 387.022 120.682 376.073C126.235 365.124 136.849 359.536 144.389 363.593C151.929 367.65 153.539 379.814 147.985 390.764Z" fill="#333131" style="fill:#333131;fill:color(display-p3 0.2000 0.1922 0.1922);fill-opacity:1;"/>
<path d="M321.498 325.4C324.51 327.631 327.181 327.264 330.884 326.904C334.588 326.544 338.046 324.817 340.621 322.043C343.196 319.269 344.714 315.634 344.894 311.809C345.075 307.984 344.801 303.895 342.498 300.9C339.299 305.828 336.454 310.441 331.999 314.9C327.336 319.844 325.772 321.697 321.498 325.4Z" fill="#333131" style="fill:#333131;fill:color(display-p3 0.2000 0.1922 0.1922);fill-opacity:1;"/>
<ellipse cx="15.5024" cy="15.766" rx="15.5024" ry="15.766" transform="matrix(-0.880621 0.473821 0.452347 0.891842 350.206 313.944)" fill="#333131" style="fill:#333131;fill:color(display-p3 0.2000 0.1922 0.1922);fill-opacity:1;"/>
<ellipse cx="15.5024" cy="15.766" rx="15.5024" ry="15.766" transform="matrix(-0.880621 0.473821 0.452347 0.891842 360.998 335.096)" fill="#333131" style="fill:#333131;fill:color(display-p3 0.2000 0.1922 0.1922);fill-opacity:1;"/>
<path d="M354.019 390.763C359.572 401.712 364.896 392.89 372.436 388.833C379.975 384.776 386.876 387.022 381.322 376.072C375.769 365.123 365.155 359.536 357.615 363.592C350.075 367.649 348.465 379.814 354.019 390.763Z" fill="#333131" style="fill:#333131;fill:color(display-p3 0.2000 0.1922 0.1922);fill-opacity:1;"/>
<path d="M184.492 166.286C175.419 165.999 166.996 179.107 160.217 191.096C153.439 203.085 149.856 224.049 148.316 241.499C146.262 257.892 143.292 268.764 149.344 281.159C155.395 293.554 163.888 299.909 172.96 300.196C163.719 292.264 154.574 289.74 154.059 269.876C154.059 256.406 154.632 251.897 156.11 238.148C158.164 225.457 160.733 211.18 163.955 201.841C167.839 187.224 175.064 176.563 184.492 166.286Z" fill="#333131" style="fill:#333131;fill:color(display-p3 0.2000 0.1922 0.1922);fill-opacity:1;"/>
<path d="M322.362 166.286C331.434 165.999 339.713 173.988 346.492 185.976C353.271 197.965 358.891 224.138 359.405 241.38C359.92 258.622 360.902 269.643 354.851 282.037C348.799 294.432 339.793 299.729 330.72 300.017C339.962 292.085 352.28 289.74 352.795 269.875C352.795 256.406 352.222 251.896 350.743 238.148C348.689 225.457 346.121 211.18 342.898 201.84C339.015 187.224 331.789 176.562 322.362 166.286Z" fill="#333131" style="fill:#333131;fill:color(display-p3 0.2000 0.1922 0.1922);fill-opacity:1;"/>
</svg>
