<svg width="510" height="580" viewBox="0 0 510 580" fill="none" xmlns="http://www.w3.org/2000/svg">
<path d="M319.202 155.291C334.437 137.66 355.07 158.616 370.328 185C503.706 415.625 478.324 413.002 439.324 440C410.191 432.955 411.324 401.501 410.824 398C406.824 409.5 408.324 420.001 409.824 425C396.526 424.418 386.951 411.895 379.62 392.896C402.943 393.843 410.694 387.3 413.052 373.347C416.069 355.49 406.945 345.072 365.312 336.166C354.156 273.774 349.011 199.81 329.389 190.254C322.828 190.143 309.407 166.626 319.202 155.291Z" fill="#67C8D3" style="fill:#67C8D3;fill:color(display-p3 0.4055 0.7827 0.8269);fill-opacity:1;"/>
<path d="M134.214 185C149.473 158.617 170.105 137.661 185.34 155.292C195.136 166.627 181.715 190.143 175.154 190.254C155.43 199.859 150.333 274.54 139.056 337.132C101.146 345.831 92.7704 356.133 95.6792 373.348C97.8886 386.422 104.833 392.987 124.888 392.984C117.561 411.934 107.996 424.419 94.7183 425C96.2182 420 97.7182 409.5 93.7183 398C93.2183 401.5 94.3513 432.955 65.2183 440C26.2184 413.002 0.836796 415.625 134.214 185Z" fill="#67C8D3" style="fill:#67C8D3;fill:color(display-p3 0.4055 0.7827 0.8269);fill-opacity:1;"/>
<path d="M169.314 128.12L182.246 128.12L151.609 173L141.718 165.88L169.314 128.12Z" fill="#AB377D" style="fill:#AB377D;fill:color(display-p3 0.6706 0.2157 0.4902);fill-opacity:1;"/>
<path d="M153.989 161.797L141.718 165.878L184.952 198.797L192.091 188.919L153.989 161.797Z" fill="#AB377D" style="fill:#AB377D;fill:color(display-p3 0.6706 0.2157 0.4902);fill-opacity:1;"/>
<path d="M181.943 128.12L169.01 128.12L199.648 173L209.539 165.88L181.943 128.12Z" fill="#AB377D" style="fill:#AB377D;fill:color(display-p3 0.6706 0.2157 0.4902);fill-opacity:1;"/>
<path d="M336.943 128.12L324.01 128.12L354.648 173L364.539 165.88L336.943 128.12Z" fill="#AB377D" style="fill:#AB377D;fill:color(display-p3 0.6706 0.2157 0.4902);fill-opacity:1;"/>
<path d="M352.267 161.797L364.539 165.878L321.305 198.797L314.166 188.919L352.267 161.797Z" fill="#AB377D" style="fill:#AB377D;fill:color(display-p3 0.6706 0.2157 0.4902);fill-opacity:1;"/>
<path d="M324.314 128.12L337.246 128.12L306.609 173L296.718 165.88L324.314 128.12Z" fill="#AB377D" style="fill:#AB377D;fill:color(display-p3 0.6706 0.2157 0.4902);fill-opacity:1;"/>
<path d="M202.696 145.05C221.102 134.939 263.838 128.717 306.14 145.05C321.508 150.983 335.422 158.914 343.619 172.673C357.218 195.5 364.218 230.5 354.218 263C347.218 240.148 334.001 221 329.501 214.5C316.501 197.5 314.219 183.5 309.719 188C301.852 195.867 305.124 228.547 309.719 227.5C304.404 243.352 254.837 180.22 265.719 163C247.851 168.987 253.755 215.537 261.719 217.5C241.219 228.483 228.219 193 227.219 184C225.664 170.006 230.666 161.164 232.719 163C232.719 163 214.718 203 179.718 225.5C144.718 248 152.26 257.5 150.218 257.5C148.176 257.5 143.805 239.087 151.218 203C153.581 191.5 162.966 176 167.219 171.5C177.101 161.043 186.034 152.775 202.696 145.05Z" fill="#69E0DC" style="fill:#69E0DC;fill:color(display-p3 0.4118 0.8784 0.8627);fill-opacity:1;"/>
</svg>
