<svg width="510" height="580" viewBox="0 0 510 580" fill="none" xmlns="http://www.w3.org/2000/svg">
<g clip-path="url(#clip0_1220_10712)">
<path d="M330.207 356.014C330.621 368.284 339.171 362.532 347.718 362.036C356.265 361.54 361.574 366.488 361.159 354.218C360.745 341.947 353.48 332.403 344.933 332.899C336.386 333.395 329.792 343.744 330.207 356.014Z" fill="#D6C2B7" style="fill:#D6C2B7;fill:color(display-p3 0.8392 0.7608 0.7176);fill-opacity:1;"/>
<ellipse cx="17.5054" cy="19.0521" rx="17.5054" ry="19.0521" transform="matrix(-0.998009 0.0630725 0.0309948 0.99952 361.398 242)" fill="#D6C2B7" style="fill:#D6C2B7;fill:color(display-p3 0.8392 0.7608 0.7176);fill-opacity:1;"/>
<ellipse cx="17.5054" cy="19.0521" rx="17.5054" ry="19.0521" transform="matrix(-0.998009 0.0630725 0.0309948 0.99952 361.398 270.309)" fill="#D6C2B7" style="fill:#D6C2B7;fill:color(display-p3 0.8392 0.7608 0.7176);fill-opacity:1;"/>
<ellipse cx="17.5054" cy="19.0521" rx="17.5054" ry="19.0521" transform="matrix(-0.998009 0.0630725 0.0309948 0.99952 361.398 299.706)" fill="#D6C2B7" style="fill:#D6C2B7;fill:color(display-p3 0.8392 0.7608 0.7176);fill-opacity:1;"/>
<path d="M152.043 213L174.457 226.963C160.379 256.082 154.571 302.093 173.959 365.244C168.98 365.244 153.403 360.594 152.042 329.965C158.787 357.104 141.929 365.745 138.095 372C139.445 342.726 127.787 273.153 152.043 213Z" fill="#D6C2B7" style="fill:#D6C2B7;fill:color(display-p3 0.8392 0.7608 0.7176);fill-opacity:1;"/>
<path d="M201.165 163.05C219.571 152.939 262.307 146.717 304.609 163.05C319.977 168.983 333.891 176.914 342.088 190.673C355.687 213.5 362.687 248.5 352.687 281C345.687 258.148 332.47 239 327.97 232.5C314.97 215.5 317.957 210.5 312.957 205.5C342.226 213 332.863 228.047 337.457 227C332.143 242.852 253.575 216.22 264.457 199C250.226 245 238.457 232.5 231.457 236.5C232.457 231 235.457 227 229.457 213.5C225.934 223.775 224.7 227.999 209.957 236.5C209.957 236.5 211.457 221.5 211.457 204C201.957 214.5 184.456 238.45 149.957 248C143.203 249.87 178.95 198.5 136.957 219.5C126.456 224.751 161.435 194 165.688 189.5C175.57 179.043 184.503 170.775 201.165 163.05Z" fill="#D6C2B7" style="fill:#D6C2B7;fill:color(display-p3 0.8392 0.7608 0.7176);fill-opacity:1;"/>
</g>
<defs>
<clipPath id="clip0_1220_10712">
<rect width="510" height="580" fill="white" style="fill:white;fill-opacity:1;"/>
</clipPath>
</defs>
</svg>
