<svg width="510" height="580" viewBox="0 0 510 580" fill="none" xmlns="http://www.w3.org/2000/svg">
<path d="M188.76 384.84C186.959 384.975 185.158 385.108 183.357 385.24C185.249 384.826 187.118 384.406 188.964 383.976C188.895 384.264 188.828 384.552 188.76 384.84ZM157.491 233C155.132 240.819 153.782 248.356 153.513 255.144C153.513 286.582 168.399 312.764 192.009 329.114C181.679 330.092 170.558 331.702 159.014 333.851C148.464 335.815 139.638 337.831 132.306 339.965C138.295 334.622 143.696 328.135 142.037 314.507C139.457 293.305 124.807 295.761 127.28 277.103C131.112 248.199 134.731 254.837 147.448 233H157.491ZM361.931 233C369.38 252.046 375.265 247.128 379.148 269.288C385.877 307.687 364.391 295.676 364.391 314.507C364.391 323.173 368.056 330.661 372.771 337.522C367.562 336.269 361.763 335.05 355.32 333.851C341.561 331.29 328.404 329.493 316.471 328.622C340.113 312.241 355.226 286.268 355.226 255.144C355.226 247.626 354.343 240.205 352.672 233H361.931Z" fill="#333131" style="fill:#333131;fill:color(display-p3 0.2000 0.1922 0.1922);fill-opacity:1;"/>
<path d="M201.25 131.936C221.001 120.934 266.86 114.164 312.252 131.935C328.744 138.392 343.655 147.033 352.47 161.993C359.928 174.652 361.7 189.797 362.516 202.297C362.679 204.797 340.821 208.297 351.668 216.797C359.44 222.886 293.485 215.902 293.485 215.902H288.554C288.554 215.902 283.13 215.902 275.233 215.902C267.336 215.902 223.747 217.487 227.582 215.207C231.416 212.928 227.582 169.422 227.582 169.422C227.582 169.422 217.722 215.777 205.529 216.091C193.336 216.405 179.377 216.347 177.186 216.347C174.995 216.347 151.679 206.083 149.999 201.797C151.653 186.979 154.646 175.153 164.054 161.418C174.571 146.063 183.37 140.342 201.25 131.936Z" fill="#333131" style="fill:#333131;fill:color(display-p3 0.2000 0.1922 0.1922);fill-opacity:1;"/>
<path d="M323.563 179.016C333.466 178.698 350.632 179.974 357.915 189.297C365.199 198.62 362.875 223.964 363.272 237.466C363.669 250.968 360.572 275.025 353.851 284.797C357.915 299.5 354.018 298 345.635 306C352.778 298.572 355.095 262.297 355.12 258.797C355.191 249.178 353.164 243.622 352.313 235.5C351.463 227.378 338.976 200.784 335.549 193.5C331.45 182.089 333.753 186.97 323.563 179.016Z" fill="#333131" style="fill:#333131;fill:color(display-p3 0.2000 0.1922 0.1922);fill-opacity:1;"/>
<path d="M187.185 185.036C177.282 184.719 161.306 179.177 154.023 188.5C146.739 197.823 147.024 229.998 146.626 243.5C146.229 257.002 150.176 281.046 156.897 290.818C163.619 300.59 156.73 298.5 165.112 306.5C157.969 299.072 155.653 268.318 155.628 264.818C155.557 255.199 156.047 249.165 156.897 241.043C157.748 232.921 161.685 219.964 165.113 212.68C169.211 201.269 176.995 192.99 187.185 185.036Z" fill="#333131" style="fill:#333131;fill:color(display-p3 0.2000 0.1922 0.1922);fill-opacity:1;"/>
</svg>
