<svg width="510" height="580" viewBox="0 0 510 580" fill="none" xmlns="http://www.w3.org/2000/svg">
<path d="M186.037 184.41C163.899 206.868 151.114 238.038 150.213 260.903C150.213 262.074 150.235 263.237 150.274 264.394C147.874 246.845 147.878 210.869 159.182 189.329C160.857 186.138 164.296 184.41 167.9 184.41H186.037ZM339.809 184.41C343.213 184.41 346.509 185.941 348.123 188.939C358.124 207.52 356.392 241.16 355.029 261.5C355.03 261.301 355.034 261.102 355.034 260.903C355.034 231.771 342.193 204.061 321.628 184.41H339.809Z" fill="#333131" style="fill:#333131;fill:color(display-p3 0.2019 0.1922 0.1922);fill-opacity:1;"/>
<path d="M198.22 150.079C215.731 141.432 262.038 134.943 305.967 150.079C322.329 155.718 334.554 164.549 343.854 178.301C349.739 190.909 353.473 198.045 354.372 211.236C355.313 230.881 345.365 227.277 323.764 227.193C314.628 227.157 283.037 226.685 287.623 225.67C292.209 224.655 282.019 195.498 282.019 195.498C283.712 195.292 278.513 225.907 271.314 226.289C264.114 226.67 223.422 227.7 226.989 225.67C230.556 223.64 224.946 195.498 224.946 195.498C224.946 195.498 217.818 226.178 206.476 226.457C195.134 226.737 182.15 226.685 180.112 226.685C178.074 226.685 153.167 226.844 154.636 207.683C156.175 194.486 158.522 187.824 165.035 177.091C180.112 158.323 180.708 158.727 198.22 150.079Z" fill="#333131" style="fill:#333131;fill:color(display-p3 0.2019 0.1922 0.1922);fill-opacity:1;"/>
</svg>
