<svg width="510" height="580" viewBox="0 0 510 580" fill="none" xmlns="http://www.w3.org/2000/svg">
<path d="M321.784 383.602C328.939 385.298 336.464 386.874 344.244 388.322C353.994 390.137 362.368 391.412 369.558 392.154C358.119 395.162 342.581 395.065 324.127 387.494C323.646 387.414 323.16 387.337 322.669 387.262C322.382 386.04 322.089 384.819 321.784 383.602ZM186.965 383.976C186.336 386.601 185.756 389.233 185.222 391.862C177.304 392.477 169.386 393.063 161.538 393.577C156.838 393.07 152.504 392.249 148.54 391.211C153.828 390.481 159.661 389.519 166.092 388.322C173.298 386.981 180.287 385.531 186.965 383.976ZM155.491 233C153.132 240.819 151.783 248.356 151.514 255.144C151.514 286.582 166.4 312.764 190.01 329.113C179.68 330.091 168.559 331.702 157.015 333.851C149.061 335.331 142.088 336.84 135.995 338.408C139.167 333.714 141.127 327.576 140.037 318.212C137.457 296.045 122.806 298.613 125.279 279.107C129.111 248.889 132.731 255.83 145.448 233H155.491ZM359.931 233C367.38 252.911 373.265 247.77 377.148 270.937C383.877 311.082 362.391 298.524 362.391 318.212C362.391 325.002 364.45 331.101 367.467 336.75C363.139 335.767 358.433 334.802 353.321 333.851C339.562 331.289 326.405 329.494 314.472 328.622C338.114 312.242 353.226 286.268 353.227 255.144C353.227 247.626 352.343 240.205 350.673 233H359.931Z" fill="#333131" style="fill:#333131;fill:color(display-p3 0.2000 0.1922 0.1922);fill-opacity:1;"/>
<path d="M170.938 161.515C180.627 152.202 203.326 132.128 252.95 132.128C287.583 130.513 323.453 144.508 333.082 155.02C365.976 190.934 360.788 253 360.788 253C341.794 216.072 333.798 193.61 300.162 166.387C222.385 186.075 191.609 208.345 142.329 253C142.329 253 137.495 193.657 170.938 161.515Z" fill="#333131" style="fill:#333131;fill:color(display-p3 0.2000 0.1922 0.1922);fill-opacity:1;"/>
</svg>
