<svg width="510" height="580" viewBox="0 0 510 580" fill="none" xmlns="http://www.w3.org/2000/svg">
<path d="M198.891 134.994C218.919 123.992 265.421 117.222 311.451 134.994C328.174 141.45 343.294 150.091 352.233 165.052C359.796 177.71 361.593 192.855 362.42 205.355C362.586 207.855 340.42 211.355 351.42 219.855C359.301 225.945 292.42 218.96 292.42 218.96H287.42C287.42 218.96 281.92 218.96 273.912 218.96C265.904 218.96 221.704 220.545 225.592 218.265C229.48 215.986 225.592 172.48 225.592 172.48C225.592 172.48 215.594 218.835 203.23 219.149C190.866 219.463 176.711 219.405 174.49 219.405C172.268 219.405 148.624 209.141 146.92 204.855C148.598 190.037 154.072 176.527 161.172 164.476C171.787 152.968 180.76 143.4 198.891 134.994Z" fill="#333131" style="fill:#333131;fill:color(display-p3 0.2000 0.1922 0.1922);fill-opacity:1;"/>
<path d="M322.92 182.073C332.962 181.756 350.369 183.032 357.754 192.355C365.14 201.677 362.784 227.021 363.186 240.524C363.589 254.026 360.448 278.083 353.632 287.855C346.816 297.627 350.42 292.355 341.92 300.355C349.163 292.926 354.894 265.355 354.92 261.855C354.991 252.236 354.495 246.202 353.632 238.08C352.77 229.958 348.778 217.001 345.302 209.717C341.146 198.306 333.253 190.027 322.92 182.073Z" fill="#333131" style="fill:#333131;fill:color(display-p3 0.2000 0.1922 0.1922);fill-opacity:1;"/>
<path d="M184.628 188.094C174.586 187.777 157.179 189.053 149.793 198.376C142.408 207.698 144.764 233.042 144.361 246.545C143.958 260.047 147.099 284.104 153.915 293.876C160.731 303.648 157.128 298.376 165.628 306.376C158.384 298.947 152.654 271.376 152.628 267.876C152.556 258.257 153.053 252.223 153.915 244.101C154.778 235.979 158.77 223.022 162.246 215.738C166.402 204.327 174.295 196.048 184.628 188.094Z" fill="#333131" style="fill:#333131;fill:color(display-p3 0.2000 0.1922 0.1922);fill-opacity:1;"/>
<path d="M129.299 168.412C140.509 190.515 167.65 198.719 189.92 186.736C212.19 174.754 221.155 147.123 209.945 125.02C198.734 102.918 171.593 94.7136 149.323 106.696C127.053 118.678 118.088 146.31 129.299 168.412Z" fill="#333131" style="fill:#333131;fill:color(display-p3 0.2000 0.1922 0.1922);fill-opacity:1;"/>
<path d="M290.218 168.412C301.429 190.515 328.57 198.719 350.84 186.736C373.11 174.754 382.075 147.123 370.865 125.02C359.654 102.918 332.513 94.7136 310.243 106.696C287.973 118.678 279.008 146.31 290.218 168.412Z" fill="#333131" style="fill:#333131;fill:color(display-p3 0.2000 0.1922 0.1922);fill-opacity:1;"/>
</svg>
