<svg width="510" height="580" viewBox="0 0 510 580" fill="none" xmlns="http://www.w3.org/2000/svg">
<path d="M330.207 340.014C330.621 352.284 339.171 346.532 347.718 346.036C356.265 345.54 361.574 350.488 361.159 338.218C360.745 325.947 353.48 316.403 344.933 316.899C336.386 317.395 329.792 327.744 330.207 340.014Z" fill="#D6C2B7" style="fill:#D6C2B7;fill:color(display-p3 0.8392 0.7608 0.7176);fill-opacity:1;"/>
<ellipse cx="17.5054" cy="19.0521" rx="17.5054" ry="19.0521" transform="matrix(-0.998009 0.0630725 0.0309948 0.99952 361.398 226)" fill="#D6C2B7" style="fill:#D6C2B7;fill:color(display-p3 0.8392 0.7608 0.7176);fill-opacity:1;"/>
<ellipse cx="17.5054" cy="19.0521" rx="17.5054" ry="19.0521" transform="matrix(-0.998009 0.0630725 0.0309948 0.99952 361.398 254.309)" fill="#D6C2B7" style="fill:#D6C2B7;fill:color(display-p3 0.8392 0.7608 0.7176);fill-opacity:1;"/>
<ellipse cx="17.5054" cy="19.0521" rx="17.5054" ry="19.0521" transform="matrix(-0.998009 0.0630725 0.0309948 0.99952 361.398 283.706)" fill="#D6C2B7" style="fill:#D6C2B7;fill:color(display-p3 0.8392 0.7608 0.7176);fill-opacity:1;"/>
<path d="M152.043 197L174.457 210.963C160.379 240.082 154.571 286.093 173.959 349.244C168.98 349.244 153.403 344.594 152.042 313.965C158.787 341.104 141.929 349.745 138.095 356C139.445 326.726 127.787 257.153 152.043 197Z" fill="#D6C2B7" style="fill:#D6C2B7;fill:color(display-p3 0.8392 0.7608 0.7176);fill-opacity:1;"/>
<path d="M201.165 147.05C219.571 136.939 262.307 130.717 304.609 147.05C319.977 152.983 333.891 160.914 342.088 174.673C355.687 197.5 362.687 232.5 352.687 265C345.687 242.148 332.47 223 327.97 216.5C314.97 199.5 317.957 194.5 312.957 189.5C342.226 197 332.863 212.047 337.457 211C332.143 226.852 253.575 200.22 264.457 183C250.226 229 238.457 216.5 231.457 220.5C232.457 215 235.457 211 229.457 197.5C225.934 207.775 224.7 211.999 209.957 220.5C209.957 220.5 211.457 205.5 211.457 188C201.957 198.5 184.456 222.45 149.957 232C143.203 233.87 178.95 182.5 136.957 203.5C126.456 208.751 161.435 178 165.688 173.5C175.57 163.043 184.503 154.775 201.165 147.05Z" fill="#D6C2B7" style="fill:#D6C2B7;fill:color(display-p3 0.8392 0.7608 0.7176);fill-opacity:1;"/>
</svg>
